<svg xmlns="http://www.w3.org/2000/svg" width="1296" height="1728" viewBox="0 0 1296 1728">
  <defs>
    <style>
      .cls-1 {
        fill: lime;
        stroke-width: 2px;
      }

      .cls-1, .cls-2, .cls-3, .cls-4, .cls-5, .cls-6, .cls-7 {
        stroke: #000;
        stroke-linejoin: round;
      }

      .cls-1, .cls-3, .cls-4, .cls-5 {
        stroke-linecap: round;
      }

      .cls-2, .cls-3, .cls-4, .cls-5, .cls-6, .cls-7 {
        fill: none;
      }

      .cls-4, .cls-7 {
        stroke-width: 0.5px;
      }

      .cls-5, .cls-6 {
        stroke-width: 0.75px;
      }

      .cls-100 {
        stroke: none;
      }

      .cls-100 {
        fill: none;
      }
    </style>
  </defs>
  <g id="Back_of_head" data-name="Back of head">
    <path class="cls-100" d="M647.88,75.7h1c.67,0,1.33,0,2,0l.35,0c19.22.76,38.52,6.73,53.55,18.74s25.47,30.57,25.79,49.92l.43,27.37c0,1.22,0,2.32,0,3.53a1.08,1.08,0,0,1,0,.18l.07,0c.18-.26.36-.53.55-.79,1-1.35,2.85-1.2,4.29-.68a11,11,0,0,1,3.39,2.12,5.14,5.14,0,0,1,1.31,2.53c1.79,5.87-.57,11-2.44,16.36l-.16.06c.1.26.19.52.28.78,2.07,5.88-.66,15.37-3.32,20.72l-5.45,11h0c-.05,1.51-.16,3-.35,4.55-.35,2.83-.47,5.22-2.94,7.15-1.91,1.5-6.43,3-8.17.53a2.36,2.36,0,0,1-.33-.7l-.2-.66c-2.32,10.48-5.33,19.69-12.16,28.64a113.55,113.55,0,0,1-9.14,10.45,3.8,3.8,0,0,0-.33.37,3.62,3.62,0,0,1-.41.38,7.73,7.73,0,0,0-3.23,7.39,12.13,12.13,0,0,1-5.46-3.93c2.24,2.86-4.34,9.9-6.31,11.16,2.85-1.82-2.88-6.74-4.2-7.79-1.57,2.81-4.37,4.79-3.54,8.37-1.39-.89-3.47-1.7-4.63-2.94a15.09,15.09,0,0,1-3-5.41c.19.53-2.12,4.42-1.16,6.73-.37-.91-8-6-9.16-7.13a6.81,6.81,0,0,1-.56,1.22c-.2.41-.42.81-.65,1.2a12.49,12.49,0,0,1-1.64,2.17,7.67,7.67,0,0,1-3.78,2.34h-.2a7.67,7.67,0,0,1-3.78-2.34,12.49,12.49,0,0,1-1.64-2.17c-.23-.39-.45-.79-.65-1.2a6.81,6.81,0,0,1-.56-1.22c-1.2,1.12-8.79,6.22-9.16,7.13,1-2.31-1.35-6.2-1.16-6.73a15.09,15.09,0,0,1-3,5.41c-1.16,1.24-3.24,2.05-4.63,2.94.83-3.58-2-5.56-3.54-8.37-1.32,1.05-7,6-4.2,7.79-2-1.26-8.55-8.3-6.31-11.16a12.13,12.13,0,0,1-5.46,3.93,7.73,7.73,0,0,0-3.23-7.39,3.62,3.62,0,0,1-.41-.38,3.8,3.8,0,0,0-.33-.37,113.55,113.55,0,0,1-9.14-10.45c-6.83-8.95-9.84-18.16-12.16-28.64l-.2.66a2.36,2.36,0,0,1-.33.7c-1.74,2.51-6.26,1-8.17-.53-2.47-1.93-2.59-4.32-2.94-7.15-.19-1.53-.3-3-.35-4.55h0l-5.45-11c-2.66-5.35-5.39-14.84-3.32-20.72.09-.26.18-.52.28-.78l-.16-.06c-1.87-5.4-4.23-10.49-2.44-16.36a5.14,5.14,0,0,1,1.31-2.53,11,11,0,0,1,3.39-2.12c1.44-.52,3.33-.67,4.29.68.19.26.37.53.55.79l.07,0a1.08,1.08,0,0,1,0-.18c0-1.21,0-2.31,0-3.53l.43-27.37c.32-19.35,10.68-37.84,25.79-49.92s34.33-18,53.55-18.74l.35,0c.67,0,1.33,0,2,0h1"/>
  </g>
  <g id="Behind_ear0" data-name="Behind ear">
    <g id="Left_Behind_ear" data-name="Left Behind ear">
      <path class="cls-100" d="M565.12,175.6c.35.79.8,1.51,1.21,2.27a39.24,39.24,0,0,1,2.54,5.83,74.72,74.72,0,0,1,2.34,8.81c.41,2,.84,3.87,1.36,5.79A102.68,102.68,0,0,0,578,236c.21,1,.07,2,.29,3,.32,1.34.7,1,1.75.28,10-6.46,6.31-20.1,2.84-29.22-2.43-6.41-5.09-12.92-8-19.23-2.38-5.23-5-11.69-9.78-15.19"/>
    </g>
  </g>
  <g id="Behind_ear" data-name="Behind ear">
    <g id="Right_Behind_ear" data-name="Right Behind ear">
      <path class="cls-100" d="M730.88,175.6c-.35.79-.8,1.51-1.21,2.27a39.24,39.24,0,0,0-2.54,5.83,74.72,74.72,0,0,0-2.34,8.81c-.41,2-.84,3.87-1.36,5.79A102.68,102.68,0,0,1,718,236c-.21,1-.07,2-.29,3-.32,1.34-.7,1-1.75.28-10-6.46-6.31-20.1-2.84-29.22,2.43-6.41,5.09-12.92,8-19.23,2.38-5.23,5-11.69,9.78-15.19"/>
    </g>
  </g>
  <g id="Buttocks" data-name="Buttocks">
    <path class="cls-100" d="M647.66,905.41h-.49c-1.68,0-3.37-.11-5-.28-.21,0-2.46-.24-2.46-.21a47.45,47.45,0,0,0-.65,9.31c0,13.92.29,27.83.86,41.74C635.69,969,621.48,971.8,609.63,974c-24.15,4.57-49,3.94-73.36,1.06-19.15-2.27-44.83-3.55-55.75-22.26.86-20.23.93-40.54,1.46-60.76.51-19.54,1.4-38.91,4.74-58.2,1.19-6.9,2.79-13.74,4.45-20.54,1.52-6.23,2.12-12.66,3.08-19,12.12,1,24.07,3,36.14,4.2q27.09,2.79,54.31,4,13.69.62,27.42.84c3.43.06,6.87.09,10.3.11s6.87,0,10.31,0h2.58l2.59,0,2.58,0H643c.85,0,1.7,0,2.54,0h4.84c.84,0,1.69,0,2.54,0h2.56l2.58,0,2.59,0h2.58c3.44,0,6.87,0,10.31,0s6.87,0,10.3-.11q13.71-.21,27.42-.84,27.21-1.23,54.31-4c12.07-1.25,24-3.24,36.14-4.2,1,6.37,1.56,12.8,3.08,19,1.66,6.8,3.26,13.64,4.45,20.54,3.34,19.29,4.23,38.66,4.74,58.2.53,20.22.6,40.53,1.46,60.76-10.92,18.71-36.6,20-55.75,22.26-24.31,2.88-49.21,3.51-73.36-1.06-11.85-2.24-26.06-5-30.25-18.08.57-13.91.9-27.82.86-41.74a47.45,47.45,0,0,0-.65-9.31s-2.25.19-2.46.21c-1.67.17-3.36.25-5,.28h-.49"/>
  </g>
  <g id="Buttocks_copy" data-name="Buttocks copy">
    <path class="cls-1" d="M647.66,905.41h-.49c-1.68,0-3.37-.11-5-.28-.21,0-2.46-.24-2.46-.21a47.45,47.45,0,0,0-.65,9.31c0,13.92.29,27.83.86,41.74C635.69,969,621.48,971.8,609.63,974c-24.15,4.57-49,3.94-73.36,1.06-19.15-2.27-44.83-3.55-55.75-22.26.86-20.23.93-40.54,1.46-60.76.51-19.54,1.4-38.91,4.74-58.2,1.19-6.9,2.79-13.74,4.45-20.54,1.52-6.23,2.12-12.66,3.08-19,12.12,1,24.07,3,36.14,4.2q27.09,2.79,54.31,4,13.69.62,27.42.84c3.43.06,6.87.09,10.3.11s6.87,0,10.31,0h2.58l2.59,0,2.58,0H643c.85,0,1.7,0,2.54,0h4.84c.84,0,1.69,0,2.54,0h2.56l2.58,0,2.59,0h2.58c3.44,0,6.87,0,10.31,0s6.87,0,10.3-.11q13.71-.21,27.42-.84,27.21-1.23,54.31-4c12.07-1.25,24-3.24,36.14-4.2,1,6.37,1.56,12.8,3.08,19,1.66,6.8,3.26,13.64,4.45,20.54,3.34,19.29,4.23,38.66,4.74,58.2.53,20.22.6,40.53,1.46,60.76-10.92,18.71-36.6,20-55.75,22.26-24.31,2.88-49.21,3.51-73.36-1.06-11.85-2.24-26.06-5-30.25-18.08.57-13.91.9-27.82.86-41.74a47.45,47.45,0,0,0-.65-9.31s-2.25.19-2.46.21c-1.67.17-3.36.25-5,.28h-.49"/>
  </g>
  <g id="BACK">
    <path class="cls-2" d="M695.81,279.2c0-.42,0-.83,0-1.24"/>
    <path class="cls-3" d="M866.17,408.76A78.86,78.86,0,0,0,853.8,375c-24.55-37-79.44-36.6-117.27-46.2A135.61,135.61,0,0,1,714,320.67c-3-1.38-6.21-2.59-9.1-4.26a17,17,0,0,1-7-7.3C696.1,305.35,696.13,301,696,297q-.16-6.87-.2-13.73c0-1.35,0-2.69,0-4"/>
    <path class="cls-3" d="M815.22,978.79c-1.28,4-3.54,3.35-7.28,3.93q-6.72,1-13.49,1.75c-16.13,1.71-32.49,2.08-48.7,2.52-30.41.84-60.83-.07-91.22-1.23,1.51-23.82,2.52-47.67,2.45-71.54a47.45,47.45,0,0,0-.65-9.31s-2.25.19-2.46.21c-1.67.17-3.36.25-5,.28h-.49"/>
    <path class="cls-3" d="M815.22,978.79a32.45,32.45,0,0,0,1-12c-1.6-24.83-1.54-49.84-2.2-74.73-.51-19.54-1.4-38.91-4.74-58.2-1.19-6.9-2.79-13.74-4.45-20.54-2.23-9.1-2.46-18.62-4.79-27.76a90.78,90.78,0,0,0-3.67-10.87c-2.83-7.15-6.12-14.18-7.86-21.71a47,47,0,0,1-.86-4.74c-1.4-10.89,1.36-22.36-2.23-32.74a69.42,69.42,0,0,0-4-8.65c-7.48-14.57-12.62-30.2-17.73-45.75-2.64-8-1-17,1.71-25,3.87-11.24,10.76-21.12,14.55-32.44,4.29-12.8,7.83-25.9,10.85-39.06"/>
    <path class="cls-3" d="M801.68,794.32c-12.09.95-24,2.95-36.07,4.19q-27.09,2.79-54.31,4-13.69.62-27.42.84c-3.43.06-6.87.09-10.3.11s-6.87,0-10.31,0h-2.58l-2.59,0-2.58,0H653c-.85,0-1.7,0-2.54,0h-.33"/>
    <g>
      <path class="cls-3" d="M345.6,886.89c0,.58,0,1.18,0,1.75.11,4,.47,8.4-1.12,12.19-.85,2-1.36,4-2.77,5.84a50.88,50.88,0,0,1-5.23,5.48c-4.54,4.31-9.25,8.53-13.37,13.1q-5.55,6.13-10.7,12.51a38.3,38.3,0,0,0-5.12,7.54c-1.48,3.16-2.18,6.89-.29,10,1.13,1.86,3.32,3.63,5.77,3.26s4.33-2.48,5.85-4l5.42-5.28c5-4.84,9.27-10,14.49-14.59,6.56-5.8,13.12-11.61,19.91-17.22a1.87,1.87,0,0,1,.59-.36c1-.3,1.58,1,1.51,1.87a18.4,18.4,0,0,1-2,7.1c-1.67,3.26-3.92,6.26-5.4,9.58-3.51,7.89-7.88,16-9.84,24.28l-2.23,9.46a26.2,26.2,0,0,0-1.06,8.72c.37,3.43,7,10.25,11.42,6.48a6.23,6.23,0,0,0,1.63-2.65c2-5,4.61-9.92,6.85-14.86A106.71,106.71,0,0,1,368,952a55.89,55.89,0,0,0,3.19-5c1.68-3.22,2.26-6.42,3.88-9.65l5-10c.36-.71,1.05-1.57,1.94-1.34s.9,1.16.8,1.89c-1.23,9.16-2.72,18.3-3.67,27.49l-1.7,16.45c-.31,3-.61,6.12.54,9a18.6,18.6,0,0,0,1.37,3.37,5.87,5.87,0,0,0,3.51,2.19,11.84,11.84,0,0,0,5.67.19c2.13-.65,3-2.73,3.49-4.58,1.09-4.34,1.24-8.8,1.78-13.21a150.88,150.88,0,0,1,3.71-18c1.36-5.46,2.75-10.91,3.87-16.41.54-2.66.61-5.57,1.41-8.17.43-1.39,2.27-3.42,4.07-1.73a4.18,4.18,0,0,1,1,1.9c2.84,8.79,5.16,17.71,7.17,26.66.73,3.3,1.22,6.64,2.13,9.91.63,2.29,1.44,6.76,4.31,7.91a5.66,5.66,0,0,0,2.29.31c2.05-.1,3.75-.08,4.87-1.81a5.83,5.83,0,0,0,.81-3.14c0-2.42-.94-4.75-1.32-7.14-.44-2.78-.91-5.56-1.33-8.34A97.58,97.58,0,0,1,425.5,934c.33-14.24,4.52-28.19,5.56-42.4.45-6.15,2.19-12.23,1.93-18.38a30.51,30.51,0,0,0-7.17-18c-1.16-1.41-1.05-3.5-.43-5.22"/>
      <path class="cls-3" d="M356,945.17a23.45,23.45,0,0,1,8,2.72"/>
      <path class="cls-3" d="M347.6,965.67a18.28,18.28,0,0,1,6.59,2.49"/>
      <path class="cls-3" d="M317.81,941.33a14.61,14.61,0,0,1,3.8,2.49"/>
      <path class="cls-3" d="M332.67,929.52,336,931"/>
      <path class="cls-3" d="M382.82,966.19a16,16,0,0,1,5.06.64"/>
      <path class="cls-3" d="M329.65,924.12a23.76,23.76,0,0,1,8.28,5.14"/>
      <path class="cls-3" d="M390.11,949.72a29.09,29.09,0,0,1-3.75-3.78,46.25,46.25,0,0,1,6.86,1.23"/>
      <path class="cls-3" d="M416.7,939.07l5.06.49"/>
      <path class="cls-3" d="M418.86,953.09a22.22,22.22,0,0,1,4.68.35"/>
      <path class="cls-3" d="M313.26,874.89a7.78,7.78,0,0,0-1.08-6.07"/>
    </g>
    <path class="cls-4" d="M822.12,685.56a20.37,20.37,0,0,0,7-16.95"/>
    <path class="cls-4" d="M832.69,667.57a23.5,23.5,0,0,0-18.39-19.31"/>
    <path class="cls-3" d="M794.91,547c2.2-9.49,2.46-19.57,3.89-29.23l3.84-26"/>
    <path class="cls-3" d="M790.75,564.6c1.35-5.87,2.8-11.73,4.16-17.61"/>
    <path class="cls-3" d="M802.65,488.55c4.91-55.44-46.68-101.15-44.56-155.31"/>
    <path class="cls-4" d="M733.6,182c1.07,5.21,3,9.18,4.7,14,2.07,5.88-.66,15.37-3.32,20.72l-5.45,11"/>
    <path class="cls-4" d="M738.18,195.06c1.87-5.4,4.23-10.49,2.44-16.36a5.14,5.14,0,0,0-1.31-2.53,11,11,0,0,0-3.39-2.12c-1.44-.52-3.33-.67-4.29.68-4.44,6.22-6,13.65-7.51,21"/>
    <path class="cls-2" d="M648.88,75.7c.67,0,1.33,0,2,0l.35,0c19.22.76,38.52,6.73,53.55,18.74s25.47,30.57,25.79,49.92l.43,27.37c0,1.22,0,2.32,0,3.53a1.08,1.08,0,0,1,0,.18"/>
    <path class="cls-3" d="M920.83,843.08a292,292,0,0,1-17.9-76.22c-3-31.63-4-64.32-16.17-94.14-5.24-12.85-16.79-24.58-18.42-38.06-2.55-21.09,1.83-43.29,2.95-64.56l4.13-77.92a285.58,285.58,0,0,0-1.09-42.88c-1.28-13.1-1.9-28.69-8.08-40.55"/>
    <path class="cls-3" d="M866.08,861.52a59.68,59.68,0,0,0-2.64-16.06c-7.24-22.07-13.7-41-24.06-62.1C830.27,764.8,821.7,746,814.67,726.5c-6.43-17.8-14.46-37-17.47-55.75a77.34,77.34,0,0,1-1.08-15.27c.57-15.22,2.31-29.75,2.34-44.92,0-19.74-2.78-39.3-4.11-59,0-.4,0-.7,0-1.1v-.66"/>
    <path class="cls-4" d="M822.12,685.56a20.37,20.37,0,0,0,7-16.95"/>
    <path class="cls-4" d="M832.69,667.57a23.5,23.5,0,0,0-18.39-19.31"/>
    <path class="cls-3" d="M790.75,564.6c1.35-5.87,2.8-11.73,4.16-17.61"/>
    <path class="cls-3" d="M665.49,986.17c-1.64,14.44,4.22,27.71,4.38,41.8.22,18.72-2.07,37.79-2.84,56.52q-2.25,55.29-2.52,110.63c-.11,24.27,9.24,44.39,9.3,68.07a401.42,401.42,0,0,1-2.08,46.65c-2.47,21.62-7.27,42.94-8.77,64.67-1.14,16.45-2.62,33.7.4,50,3.3,17.84,8,35.58,8.2,53.83.25,19.08.77,38.22.85,57.31.05,11.74.16,23.47.16,35.19v.67"/>
    <path class="cls-3" d="M674,1264.64a124,124,0,0,1,9.36,47.91"/>
    <path class="cls-3" d="M673.81,1264.14c.07.16.14.33.2.5"/>
    <path class="cls-5" d="M798,470.07a48.08,48.08,0,0,1,3.15,10.43c.36,1.92.69,3.84.94,5.78a30.07,30.07,0,0,1,.43,5.68"/>
    <path class="cls-3" d="M733.74,182.58c1.09,4.9,3,8.74,4.56,13.32,2.07,5.88-.66,15.37-3.32,20.72l-5.45,11"/>
    <path class="cls-2" d="M733.74,182.58c0-.21-.09-.42-.14-.63s0-.13-.05-.2a.36.36,0,0,1,0-.1"/>
    <path class="cls-3" d="M717.69,239.14a2.36,2.36,0,0,0,.33.7c1.74,2.51,6.26,1,8.17-.53,2.47-1.93,2.59-4.32,2.94-7.15a60.48,60.48,0,0,0,.41-7.24"/>
    <path class="cls-6" d="M717.61,238.73c0,.14,0,.27.08.41"/>
    <path class="cls-3" d="M738.18,195.06c1.87-5.4,4.23-10.49,2.44-16.36a5.14,5.14,0,0,0-1.31-2.53,11,11,0,0,0-3.39-2.12c-1.44-.52-3.33-.67-4.29.68-4.44,6.22-6,13.65-7.51,21-.11.55-.31,1.12-.46,1.67"/>
    <path class="cls-7" d="M718,239.26a3.53,3.53,0,0,1-.09-2.06c.13-.55.18-1.17.36-1.7"/>
    <path class="cls-7" d="M724,196.65a3.93,3.93,0,0,1-.06.69,14,14,0,0,1-.46,1.52"/>
    <line class="cls-3" x1="648.34" y1="905.41" x2="647.91" y2="905.41"/>
    <line class="cls-3" x1="650.09" y1="803.38" x2="647.88" y2="803.38"/>
    <line class="cls-3" x1="648.88" y1="75.7" x2="647.88" y2="75.7"/>
    <line class="cls-3" x1="648.34" y1="905.41" x2="647.91" y2="905.41"/>
    <path class="cls-2" d="M600.19,279.2c0-.42,0-.83,0-1.24"/>
    <path class="cls-3" d="M429.83,408.76A78.86,78.86,0,0,1,442.2,375c24.55-37,79.44-36.6,117.27-46.2A135.61,135.61,0,0,0,582,320.67c3-1.38,6.21-2.59,9.1-4.26a17,17,0,0,0,7-7.3c1.76-3.76,1.73-8.09,1.83-12.15q.16-6.87.2-13.73c0-1.35,0-2.69,0-4"/>
    <path class="cls-3" d="M480.78,978.79c1.28,4,3.54,3.35,7.28,3.93q6.72,1,13.49,1.75c16.13,1.71,32.49,2.08,48.7,2.52,30.41.84,60.83-.07,91.22-1.23C640,961.94,639,938.09,639,914.22a47.45,47.45,0,0,1,.65-9.31s2.25.19,2.46.21c1.67.17,3.36.25,5,.28h.49"/>
    <path class="cls-3" d="M480.78,978.79a32.45,32.45,0,0,1-1-12c1.6-24.83,1.54-49.84,2.2-74.73.51-19.54,1.4-38.91,4.74-58.2,1.19-6.9,2.79-13.74,4.45-20.54,2.23-9.1,2.46-18.62,4.79-27.76a90.78,90.78,0,0,1,3.67-10.87c2.83-7.15,6.12-14.18,7.86-21.71a47,47,0,0,0,.86-4.74c1.4-10.89-1.36-22.36,2.23-32.74a69.42,69.42,0,0,1,4.05-8.65c7.48-14.57,12.62-30.2,17.73-45.75,2.64-8,1-17-1.71-25-3.87-11.24-10.76-21.12-14.55-32.44-4.29-12.8-7.83-25.9-10.85-39.06"/>
    <path class="cls-3" d="M556.84,1578.52c8.55,2.58,17.88,2.48,26.73,2.37,7.7-.16,15.41-.18,23.11-.23,7.45,0,15,.26,22.34-1.38"/>
    <path class="cls-3" d="M494.32,794.32c12.09.95,24,2.95,36.07,4.19q27.09,2.79,54.31,4,13.69.62,27.42.84c3.43.06,6.87.09,10.3.11s6.87,0,10.31,0h2.58l2.59,0,2.58,0H643c.85,0,1.7,0,2.54,0h.33"/>
    <g>
      <path class="cls-3" d="M352.35,892.4c-3.48-2.35-5.91-6.11-9.87-7.79-3.14-1.34-6.86-1.26-10.36-.93a81.1,81.1,0,0,0-14.77,2.8c-7.55,2.19-16.07,1.07-23.32-1.77a16.58,16.58,0,0,1-3.41-1.74c-3-2.13-4.3-5.53-5-8.78A148.38,148.38,0,0,0,329,862.58c5-2.27,10.17-4.3,15-6.81s9.05-5.48,13.76-8c5.2-2.78,11.35-5,17.38-4.69"/>
      <path class="cls-3" d="M429.92,861.52A29.29,29.29,0,0,1,433,873.25c.26,6.15-1.48,12.23-1.93,18.38-1,14.21-5.23,28.16-5.56,42.4a97.58,97.58,0,0,0,1.37,16.7c.42,2.78.89,5.56,1.33,8.34.38,2.39,1.34,4.72,1.32,7.14a5.83,5.83,0,0,1-.81,3.14c-1.12,1.73-2.82,1.71-4.87,1.81a5.66,5.66,0,0,1-2.29-.31c-2.87-1.15-3.68-5.62-4.31-7.91-.91-3.27-1.4-6.61-2.13-9.91-2-8.95-4.33-17.87-7.17-26.66a4.18,4.18,0,0,0-1-1.9c-1.8-1.69-3.64.34-4.07,1.73-.8,2.6-.87,5.51-1.41,8.17-1.12,5.5-2.51,11-3.87,16.41a150.88,150.88,0,0,0-3.71,18c-.54,4.41-.69,8.87-1.78,13.21-.46,1.85-1.36,3.93-3.49,4.58a11.84,11.84,0,0,1-5.67-.19,5.87,5.87,0,0,1-3.51-2.19,18.6,18.6,0,0,1-1.37-3.37c-1.15-2.87-.85-6-.54-9l1.7-16.45c1-9.19,2.44-18.33,3.67-27.49.1-.73,0-1.68-.8-1.89s-1.58.63-1.94,1.34l-5,10c-1.62,3.23-2.2,6.43-3.88,9.65a55.89,55.89,0,0,1-3.19,5,106.71,106.71,0,0,0-8.09,15.15c-2.24,4.94-4.89,9.87-6.85,14.86a6.23,6.23,0,0,1-1.63,2.65c-4.46,3.77-11-3-11.42-6.48a26.2,26.2,0,0,1,1.06-8.72l2.23-9.46c2-8.26,6.33-16.39,9.84-24.28,1.48-3.32,3.73-6.32,5.4-9.58a18.4,18.4,0,0,0,2-7.1c.07-.89-.5-2.17-1.51-1.87a1.87,1.87,0,0,0-.59.36c-6.79,5.61-13.35,11.42-19.91,17.22-5.22,4.61-9.51,9.75-14.49,14.59l-5.42,5.28c-1.52,1.47-3.4,3.58-5.85,4s-4.64-1.4-5.77-3.26c-1.89-3.13-1.19-6.86.29-10a38.3,38.3,0,0,1,5.12-7.54q5.15-6.37,10.7-12.51c4.12-4.57,8.83-8.79,13.37-13.1a50.88,50.88,0,0,0,5.23-5.48c1.41-1.81,1.92-3.82,2.77-5.84,1.59-3.79,1.23-8.19,1.12-12.19,0-.57-.07-1.17,0-1.75"/>
    </g>
    <path class="cls-4" d="M473.88,685.56a20.37,20.37,0,0,1-7.05-16.95"/>
    <path class="cls-4" d="M463.31,667.57a23.5,23.5,0,0,1,18.39-19.31"/>
    <path class="cls-5" d="M493.21,491.71l0-.3a67,67,0,0,0-5.25-18.56,51.94,51.94,0,0,0-6.59-10.32c-1.75-2.25-5.67-5.63-5.66-8.71"/>
    <path class="cls-3" d="M501.09,547c-2.2-9.49-2.46-19.57-3.89-29.23l-3.84-26"/>
    <path class="cls-3" d="M505.25,564.6c-1.35-5.87-2.8-11.73-4.16-17.61"/>
    <path class="cls-3" d="M493.35,488.55C488.44,433.11,540,387.4,537.91,333.24"/>
    <path class="cls-4" d="M562.4,182c-1.07,5.21-3,9.18-4.7,14-2.07,5.88.66,15.37,3.32,20.72l5.45,11"/>
    <path class="cls-4" d="M557.82,195.06c-1.87-5.4-4.23-10.49-2.44-16.36a5.14,5.14,0,0,1,1.31-2.53,11,11,0,0,1,3.39-2.12c1.44-.52,3.33-.67,4.29.68,4.44,6.22,6,13.65,7.51,21"/>
    <path class="cls-2" d="M647.12,75.7c-.67,0-1.33,0-2,0l-.35,0c-19.22.76-38.52,6.73-53.55,18.74s-25.47,30.57-25.79,49.92L565,171.77c0,1.22,0,2.32,0,3.53a1.08,1.08,0,0,0,0,.18"/>
    <path class="cls-3" d="M375.17,843.08a292,292,0,0,0,17.9-76.22c3-31.63,4-64.32,16.17-94.14,5.24-12.85,16.79-24.58,18.42-38.06,2.55-21.09-1.83-43.29-3-64.56l-4.13-77.92a285.58,285.58,0,0,1,1.09-42.88c1.28-13.1,1.9-28.69,8.08-40.55"/>
    <path class="cls-3" d="M563.53,1571.72a14.47,14.47,0,0,1-.89-4.65,4.62,4.62,0,0,1,.18-1.53,5.72,5.72,0,0,1,3.35-3.12"/>
    <path class="cls-3" d="M429.92,861.52a59.68,59.68,0,0,1,2.64-16.06c7.24-22.07,13.7-41,24.06-62.1,9.11-18.56,17.68-37.41,24.71-56.86,6.43-17.8,14.46-37,17.47-55.75a77.34,77.34,0,0,0,1.08-15.27c-.57-15.22-2.31-29.75-2.34-44.92,0-19.74,2.78-39.3,4.11-59,0-.4,0-.7,0-1.1v-.66"/>
    <path class="cls-4" d="M473.88,685.56a20.37,20.37,0,0,1-7.05-16.95"/>
    <path class="cls-4" d="M463.31,667.57a23.5,23.5,0,0,1,18.39-19.31"/>
    <path class="cls-3" d="M505.25,564.6c-1.35-5.87-2.8-11.73-4.16-17.61"/>
    <path class="cls-3" d="M492.59,983.48A279.88,279.88,0,0,0,495,1013c1.65,11.16,2.51,22.19,4.52,33.3a340.27,340.27,0,0,0,8.21,33.47q7.37,25.62,16,50.84c5.5,16,14.83,34.72,13.74,51.81-1.14,17.92-.8,36,3.33,53.51,2.12,9,.48,20.18-.11,29.49-.9,14.18-6.77,28.59-11.21,42.08-4.79,14.58-10.41,30.46-11,45.84-.78,22,4.35,43.57,10.8,64.45,4.83,15.67,8.33,31.22,13.8,46.63,4.16,11.71,8.16,23.39,11.5,35.24,3.54,12.6,8.46,24.5,10.51,37.54.52,3.28.79,6.58,1.1,9.88a97.92,97.92,0,0,1,.14,14.93c-.1,1.7-.22,3.39-.33,5.08s-.09,3.1-.22,4.64"/>
    <path class="cls-3" d="M630.51,986.17c1.64,14.44-4.22,27.71-4.38,41.8-.22,18.72,2.07,37.79,2.84,56.52q2.25,55.29,2.52,110.63c.11,24.27-9.24,44.39-9.3,68.07a401.42,401.42,0,0,0,2.08,46.65c2.47,21.62,7.27,42.94,8.77,64.67,1.14,16.45,2.62,33.7-.4,50-3.3,17.84-8,35.58-8.2,53.83-.25,19.08-.77,38.22-.85,57.31-.05,11.74-.16,23.47-.16,35.19v.67"/>
    <path class="cls-3" d="M622,1264.64a124,124,0,0,0-9.36,47.91"/>
    <path class="cls-3" d="M622.19,1264.14c-.07.16-.14.33-.2.5"/>
    <path class="cls-5" d="M498,470.07a48.08,48.08,0,0,0-3.15,10.43c-.36,1.92-.69,3.84-.94,5.78a30.07,30.07,0,0,0-.43,5.68"/>
    <path class="cls-3" d="M562.26,182.58c-1.09,4.9-3,8.74-4.56,13.32-2.07,5.88.66,15.37,3.32,20.72l5.45,11"/>
    <path class="cls-2" d="M562.26,182.58c0-.21.09-.42.14-.63s0-.13.05-.2a.36.36,0,0,0,0-.1"/>
    <path class="cls-3" d="M578.31,239.14a2.36,2.36,0,0,1-.33.7c-1.74,2.51-6.26,1-8.17-.53-2.47-1.93-2.59-4.32-2.94-7.15a60.48,60.48,0,0,1-.41-7.24"/>
    <path class="cls-6" d="M578.39,238.73c0,.14,0,.27-.08.41"/>
    <path class="cls-3" d="M557.82,195.06c-1.87-5.4-4.23-10.49-2.44-16.36a5.14,5.14,0,0,1,1.31-2.53,11,11,0,0,1,3.39-2.12c1.44-.52,3.33-.67,4.29.68,4.44,6.22,6,13.65,7.51,21,.11.55.31,1.12.46,1.67"/>
    <path class="cls-7" d="M578,239.26a3.53,3.53,0,0,0,.09-2.06c-.13-.55-.18-1.17-.36-1.7"/>
    <path class="cls-7" d="M572,196.65a3.93,3.93,0,0,0,.06.69,14,14,0,0,0,.46,1.52"/>
    <line class="cls-3" x1="647.66" y1="905.41" x2="648.09" y2="905.41"/>
    <line class="cls-3" x1="645.91" y1="803.38" x2="648.12" y2="803.38"/>
    <line class="cls-3" x1="647.12" y1="75.7" x2="648.12" y2="75.7"/>
    <line class="cls-3" x1="647.66" y1="905.41" x2="648.09" y2="905.41"/>
    <path class="cls-3" d="M640.2,1628.83c1.77,9.11,2.17,18.28-.24,27.21-1.28,4.73-4.2,11.22-9.09,11.22H546.24c-5.85-1.67-11.8-3.44-17.12-6.41s-10-7.36-12.24-13c-2.51-6.5-1.38-14,1.5-20.3s7.38-11.8,11.82-17.17c6.39-7.72,13.53-16,19.92-23.73l3.48-4.2a23.56,23.56,0,0,0,3.24-4.22c.79-1.6.94-3.74,1.44-5.48a1.25,1.25,0,0,1,.3-.61,1.31,1.31,0,0,1,.81-.24c1.41-.08,2.8,0,4.19,0,21.27.53,42.53-.59,63.8-.24a3,3,0,0,1,1.49.28c1.61.95.75,4.7.66,6.18a74.07,74.07,0,0,0,0,8.56,60.84,60.84,0,0,0,3.19,16.8c2.9,8.24,5.79,16.78,7.46,25.38"/>
    <path class="cls-5" d="M348.5,906.2a7.87,7.87,0,0,0,4.49,7.54"/>
    <path class="cls-5" d="M353.77,902.12a11.16,11.16,0,0,1,7.7,5.36"/>
    <path class="cls-5" d="M368.19,919.13a6.36,6.36,0,0,0,7.83,5.42"/>
    <path class="cls-5" d="M370.68,910.84a5.91,5.91,0,0,1,7.28,2.67"/>
    <path class="cls-5" d="M388.49,923.08a5.28,5.28,0,0,0,5,4.2c2.41,0,4.5-1.64,6.12-3.43"/>
    <path class="cls-5" d="M387.63,915.89c.36-1.66,2.25-2.61,3.95-2.51a11,11,0,0,1,4.68,1.86"/>
    <path class="cls-5" d="M413,921.32a7.6,7.6,0,0,0,4.73,4.74,5.09,5.09,0,0,0,5.92-2.38"/>
    <path class="cls-5" d="M413.17,916.83a4.09,4.09,0,0,1,6.23.36"/>
    <path class="cls-3" d="M648,330.67c20.66.07,40.22,0,57.46-13.74"/>
    <path class="cls-3" d="M648,330.67c-20.66.07-40.22,0-57.46-13.74"/>
    <path class="cls-5" d="M572.61,197.45A102.81,102.81,0,0,0,578,236c2.4,11.53,5.32,21.49,12.69,31.14a113.55,113.55,0,0,0,9.14,10.45,3.8,3.8,0,0,1,.33.37,3.62,3.62,0,0,0,.41.38,7.73,7.73,0,0,1,3.23,7.39,12.13,12.13,0,0,0,5.46-3.93c-2.24,2.86,4.34,9.9,6.31,11.16-2.85-1.82,2.88-6.74,4.2-7.79,1.57,2.81,4.37,4.79,3.54,8.37,1.39-.89,3.47-1.7,4.63-2.94a15.09,15.09,0,0,0,3-5.41c-.19.53,2.12,4.42,1.16,6.73.37-.91,8-6,9.16-7.13a6.81,6.81,0,0,0,.56,1.22c.2.41.42.81.65,1.2a12.49,12.49,0,0,0,1.64,2.17,7.67,7.67,0,0,0,3.78,2.34"/>
    <path class="cls-5" d="M723.39,197.45A102.81,102.81,0,0,1,718,236c-2.4,11.53-5.32,21.49-12.69,31.14a113.55,113.55,0,0,1-9.14,10.45,3.8,3.8,0,0,0-.33.37,3.62,3.62,0,0,1-.41.38,7.73,7.73,0,0,0-3.23,7.39,12.13,12.13,0,0,1-5.46-3.93c2.24,2.86-4.34,9.9-6.31,11.16,2.85-1.82-2.88-6.74-4.2-7.79-1.57,2.81-4.37,4.79-3.54,8.37-1.39-.89-3.47-1.7-4.63-2.94a15.09,15.09,0,0,1-3-5.41c.19.53-2.12,4.42-1.16,6.73-.37-.91-8-6-9.16-7.13a6.81,6.81,0,0,1-.56,1.22c-.2.41-.42.81-.65,1.2a12.49,12.49,0,0,1-1.64,2.17,7.67,7.67,0,0,1-3.78,2.34"/>
    <path class="cls-3" d="M516.39,1633.92c10,10.65,31.78,8,44.85,7.86l59.37-.45c7.34-.06,15.83-.67,20.13-6.62l.26-.34"/>
    <path class="cls-3" d="M576.57,1581.19c7.89,7.76,11.73,19.19,11.22,30.25s-5,21.44-11.67,30.11"/>
    <path class="cls-3" d="M617.61,1581.19c-7.89,7.76-11.73,19.19-11.21,30.25s5,21.44,11.67,30.11"/>
    <path class="cls-3" d="M350.82,980.9c.89-1.87,1.78-4.12.93-5.63s-2.62-2.1-4.11-2.63c-2.49-.87-3.69,1.15-4.72,3.08-.87,1.62-1.81,4-.67,5.71a10,10,0,0,0,5.56,3.69,1.07,1.07,0,0,0,.5,0,1,1,0,0,0,.52-.38,7.83,7.83,0,0,0,1.1-2C350.16,982.25,350.49,981.6,350.82,980.9Z"/>
    <path class="cls-3" d="M380.29,979.13a3.25,3.25,0,0,1,.29-.88c1-1.93,3.65-1.37,5.48-1.35.93,0,2.05.14,2.45,1a2.27,2.27,0,0,1,.17.82,20.79,20.79,0,0,1-.19,6.54c-.21,1-.23,1-1.43,1.17a13.5,13.5,0,0,1-2.69-.15c-2.41-.25-4.21-1-4.11-3.69A23.36,23.36,0,0,1,380.29,979.13Z"/>
    <path class="cls-3" d="M428.19,968.78c-.36,1.79-2.71,1.94-4.19,1.94a3.12,3.12,0,0,1-1-.13c-1.75-.61-2.49-4.2-2.45-5.82.07-2.28,3.22-2.8,5.07-2.55,2.16.28,2.46,3.65,2.62,5.3A4.62,4.62,0,0,1,428.19,968.78Z"/>
    <path class="cls-3" d="M310.62,957.79a5.28,5.28,0,0,1-3.67-3.71,5.67,5.67,0,0,1-.28-1.71,3.46,3.46,0,0,1,.38-1.06,17.61,17.61,0,0,1,4.06-4.91c2.26-2.11,5.75.88,7,2.94s-1.24,4.35-2.47,5.68S312.56,958.26,310.62,957.79Z"/>
    <path class="cls-3" d="M299.55,872.18c.34,1,.84,1.84,1.24,2.78,2.1,4.94-6.3,6.18-9.41,6.28a6,6,0,0,1-3.14-.61"/>
    <path class="cls-3" d="M354.79,855.22c6.64-2.15,12.26-5.58,17.94-9.51,4.54-3.14,4.5-7.08,8.26-10.69,1.17-1.13,2.5-2.08,3.61-3.27,3.08-3.31,4-8,4.82-12.47"/>
    <g>
      <path class="cls-3" d="M950.4,886.89c0,.58,0,1.18,0,1.75-.11,4-.47,8.4,1.12,12.19.85,2,1.36,4,2.77,5.84a50.88,50.88,0,0,0,5.23,5.48c4.54,4.31,9.25,8.53,13.37,13.1q5.55,6.13,10.7,12.51a38.3,38.3,0,0,1,5.12,7.54c1.48,3.16,2.18,6.89.29,10-1.13,1.86-3.32,3.63-5.77,3.26s-4.33-2.48-5.85-4l-5.42-5.28c-5-4.84-9.27-10-14.49-14.59-6.56-5.8-13.12-11.61-19.91-17.22a1.87,1.87,0,0,0-.59-.36c-1-.3-1.58,1-1.51,1.87a18.4,18.4,0,0,0,2,7.1c1.67,3.26,3.92,6.26,5.4,9.58,3.51,7.89,7.88,16,9.84,24.28l2.23,9.46a26.2,26.2,0,0,1,1.06,8.72c-.37,3.43-7,10.25-11.42,6.48a6.23,6.23,0,0,1-1.63-2.65c-2-5-4.61-9.92-6.85-14.86A106.71,106.71,0,0,0,928,952a55.89,55.89,0,0,1-3.19-5c-1.68-3.22-2.26-6.42-3.88-9.65l-5-10c-.36-.71-1.05-1.57-1.94-1.34s-.9,1.16-.8,1.89c1.23,9.16,2.72,18.3,3.67,27.49l1.7,16.45c.31,3,.61,6.12-.54,9a18.6,18.6,0,0,1-1.37,3.37,5.87,5.87,0,0,1-3.51,2.19,11.84,11.84,0,0,1-5.67.19c-2.13-.65-3-2.73-3.49-4.58-1.09-4.34-1.24-8.8-1.78-13.21a150.88,150.88,0,0,0-3.71-18c-1.36-5.46-2.75-10.91-3.87-16.41-.54-2.66-.61-5.57-1.41-8.17-.43-1.39-2.27-3.42-4.07-1.73a4.18,4.18,0,0,0-1,1.9c-2.84,8.79-5.16,17.71-7.17,26.66-.73,3.3-1.22,6.64-2.13,9.91-.63,2.29-1.44,6.76-4.31,7.91a5.66,5.66,0,0,1-2.29.31c-2-.1-3.75-.08-4.87-1.81a5.83,5.83,0,0,1-.81-3.14c0-2.42.94-4.75,1.32-7.14.44-2.78.91-5.56,1.33-8.34A97.58,97.58,0,0,0,870.5,934c-.33-14.24-4.52-28.19-5.56-42.4-.45-6.15-2.19-12.23-1.93-18.38a30.51,30.51,0,0,1,7.17-18c1.16-1.41,1.05-3.5.43-5.22"/>
      <path class="cls-3" d="M940,945.17a23.45,23.45,0,0,0-8,2.72"/>
      <path class="cls-3" d="M948.4,965.67a18.28,18.28,0,0,0-6.59,2.49"/>
      <path class="cls-3" d="M978.19,941.33a14.61,14.61,0,0,0-3.8,2.49"/>
      <path class="cls-3" d="M963.33,929.52,960,931"/>
      <path class="cls-3" d="M913.18,966.19a16,16,0,0,0-5.06.64"/>
      <path class="cls-3" d="M966.35,924.12a23.76,23.76,0,0,0-8.28,5.14"/>
      <path class="cls-3" d="M905.89,949.72a29.09,29.09,0,0,0,3.75-3.78,46.25,46.25,0,0,0-6.86,1.23"/>
      <path class="cls-3" d="M879.3,939.07l-5.06.49"/>
      <path class="cls-3" d="M877.14,953.09a22.22,22.22,0,0,0-4.68.35"/>
      <path class="cls-3" d="M982.74,874.89a7.78,7.78,0,0,1,1.08-6.07"/>
    </g>
    <g>
      <path class="cls-3" d="M943.65,892.4c3.48-2.35,5.91-6.11,9.87-7.79,3.14-1.34,6.86-1.26,10.36-.93a81.1,81.1,0,0,1,14.77,2.8c7.55,2.19,16.07,1.07,23.32-1.77a16.58,16.58,0,0,0,3.41-1.74c3-2.13,4.3-5.53,5-8.78A148.38,148.38,0,0,1,967,862.58c-5-2.27-10.17-4.3-15-6.81s-9.05-5.48-13.76-8c-5.2-2.78-11.35-5-17.38-4.69"/>
      <path class="cls-3" d="M866.08,861.52A29.29,29.29,0,0,0,863,873.25c-.26,6.15,1.48,12.23,1.93,18.38,1,14.21,5.23,28.16,5.56,42.4a97.58,97.58,0,0,1-1.37,16.7c-.42,2.78-.89,5.56-1.33,8.34-.38,2.39-1.34,4.72-1.32,7.14a5.83,5.83,0,0,0,.81,3.14c1.12,1.73,2.82,1.71,4.87,1.81a5.66,5.66,0,0,0,2.29-.31c2.87-1.15,3.68-5.62,4.31-7.91.91-3.27,1.4-6.61,2.13-9.91,2-8.95,4.33-17.87,7.17-26.66a4.18,4.18,0,0,1,1-1.9c1.8-1.69,3.64.34,4.07,1.73.8,2.6.87,5.51,1.41,8.17,1.12,5.5,2.51,11,3.87,16.41a150.88,150.88,0,0,1,3.71,18c.54,4.41.69,8.87,1.78,13.21.46,1.85,1.36,3.93,3.49,4.58a11.84,11.84,0,0,0,5.67-.19,5.87,5.87,0,0,0,3.51-2.19,18.6,18.6,0,0,0,1.37-3.37c1.15-2.87.85-6,.54-9l-1.7-16.45c-.95-9.19-2.44-18.33-3.67-27.49-.1-.73,0-1.68.8-1.89s1.58.63,1.94,1.34l5,10c1.62,3.23,2.2,6.43,3.88,9.65a55.89,55.89,0,0,0,3.19,5,106.71,106.71,0,0,1,8.09,15.15C938.3,972.1,941,977,942.91,982a6.23,6.23,0,0,0,1.63,2.65c4.46,3.77,11.05-3,11.42-6.48a26.2,26.2,0,0,0-1.06-8.72L952.67,960c-2-8.26-6.33-16.39-9.84-24.28-1.48-3.32-3.73-6.32-5.4-9.58a18.4,18.4,0,0,1-2-7.1c-.07-.89.5-2.17,1.51-1.87a1.87,1.87,0,0,1,.59.36c6.79,5.61,13.35,11.42,19.91,17.22,5.22,4.61,9.51,9.75,14.49,14.59l5.42,5.28c1.52,1.47,3.4,3.58,5.85,4s4.64-1.4,5.77-3.26c1.89-3.13,1.19-6.86-.29-10a38.3,38.3,0,0,0-5.12-7.54q-5.14-6.37-10.7-12.51c-4.12-4.57-8.83-8.79-13.37-13.1a50.88,50.88,0,0,1-5.23-5.48c-1.41-1.81-1.92-3.82-2.77-5.84-1.59-3.79-1.23-8.19-1.12-12.19,0-.57.07-1.17,0-1.75"/>
    </g>
    <path class="cls-5" d="M947.5,906.2a7.87,7.87,0,0,1-4.49,7.54"/>
    <path class="cls-5" d="M942.23,902.12a11.16,11.16,0,0,0-7.7,5.36"/>
    <path class="cls-5" d="M927.81,919.13a6.36,6.36,0,0,1-7.83,5.42"/>
    <path class="cls-5" d="M925.32,910.84a5.91,5.91,0,0,0-7.28,2.67"/>
    <path class="cls-5" d="M907.51,923.08a5.28,5.28,0,0,1-5,4.2c-2.41,0-4.5-1.64-6.12-3.43"/>
    <path class="cls-5" d="M908.37,915.89c-.36-1.66-2.25-2.61-4-2.51a11,11,0,0,0-4.68,1.86"/>
    <path class="cls-5" d="M883,921.32a7.6,7.6,0,0,1-4.73,4.74,5.09,5.09,0,0,1-5.92-2.38"/>
    <path class="cls-5" d="M882.83,916.83a4.09,4.09,0,0,0-6.23.36"/>
    <path class="cls-3" d="M945.18,980.9c-.89-1.87-1.78-4.12-.93-5.63s2.62-2.1,4.11-2.63c2.49-.87,3.69,1.15,4.72,3.08.87,1.62,1.81,4,.67,5.71a10,10,0,0,1-5.56,3.69,1.07,1.07,0,0,1-.5,0,1,1,0,0,1-.52-.38,7.83,7.83,0,0,1-1.1-2C945.84,982.25,945.51,981.6,945.18,980.9Z"/>
    <path class="cls-3" d="M915.71,979.13a3.25,3.25,0,0,0-.29-.88c-1-1.93-3.65-1.37-5.48-1.35-.93,0-2.05.14-2.45,1a2.27,2.27,0,0,0-.17.82,20.79,20.79,0,0,0,.19,6.54c.21,1,.23,1,1.43,1.17a13.5,13.5,0,0,0,2.69-.15c2.41-.25,4.21-1,4.11-3.69A23.36,23.36,0,0,0,915.71,979.13Z"/>
    <path class="cls-3" d="M867.81,968.78c.36,1.79,2.71,1.94,4.19,1.94a3.12,3.12,0,0,0,1-.13c1.75-.61,2.49-4.2,2.45-5.82-.07-2.28-3.22-2.8-5.07-2.55-2.16.28-2.46,3.65-2.62,5.3A4.62,4.62,0,0,0,867.81,968.78Z"/>
    <path class="cls-3" d="M985.38,957.79a5.28,5.28,0,0,0,3.67-3.71,5.67,5.67,0,0,0,.28-1.71,3.46,3.46,0,0,0-.38-1.06,17.61,17.61,0,0,0-4.06-4.91c-2.26-2.11-5.75.88-7,2.94s1.24,4.35,2.47,5.68S983.44,958.26,985.38,957.79Z"/>
    <path class="cls-3" d="M996.45,872.18c-.34,1-.84,1.84-1.24,2.78-2.1,4.94,6.3,6.18,9.41,6.28a6,6,0,0,0,3.14-.61"/>
    <path class="cls-3" d="M941.21,855.22c-6.64-2.15-12.26-5.58-17.94-9.51-4.54-3.14-4.5-7.08-8.26-10.69-1.17-1.13-2.5-2.08-3.61-3.27-3.08-3.31-4-8-4.82-12.47"/>
    <path class="cls-3" d="M560.8,1244l50-.14-40.51,11.46"/>
    <path class="cls-3" d="M739.16,1578.52c-8.55,2.58-17.88,2.48-26.73,2.37-7.7-.16-15.41-.18-23.11-.23-7.45,0-15,.26-22.34-1.38"/>
    <path class="cls-3" d="M732.47,1571.72a14.47,14.47,0,0,0,.89-4.65,4.62,4.62,0,0,0-.18-1.53,5.72,5.72,0,0,0-3.35-3.12"/>
    <path class="cls-3" d="M655.8,1628.83c-1.77,9.11-2.17,18.28.24,27.21,1.28,4.73,4.2,11.22,9.09,11.22h84.63c5.85-1.67,11.8-3.44,17.12-6.41s10-7.36,12.24-13c2.51-6.5,1.38-14-1.5-20.3s-7.38-11.8-11.82-17.17c-6.39-7.72-13.53-16-19.92-23.73l-3.48-4.2a23.56,23.56,0,0,1-3.24-4.22c-.79-1.6-.94-3.74-1.44-5.48a1.25,1.25,0,0,0-.3-.61,1.31,1.31,0,0,0-.81-.24c-1.41-.08-2.8,0-4.19,0-21.27.53-42.53-.59-63.8-.24a3,3,0,0,0-1.49.28c-1.61.95-.75,4.7-.66,6.18a74.07,74.07,0,0,1,0,8.56,60.84,60.84,0,0,1-3.19,16.8c-2.9,8.24-5.79,16.78-7.46,25.38"/>
    <path class="cls-3" d="M779.61,1633.92c-10,10.65-31.78,8-44.85,7.86l-59.37-.45c-7.34-.06-15.83-.67-20.13-6.62l-.26-.34"/>
    <path class="cls-3" d="M719.43,1581.19c-7.89,7.76-11.73,19.19-11.22,30.25s5,21.44,11.67,30.11"/>
    <path class="cls-3" d="M678.39,1581.19c7.89,7.76,11.73,19.19,11.21,30.25s-5,21.44-11.67,30.11"/>
    <path class="cls-3" d="M735.2,1244l-50-.14,40.51,11.46"/>
    <path class="cls-3" d="M536.42,1168.6c.87,2.56,1.42,5.22,2.2,7.82,1.92,6.42,3.21,12.88,4.84,19.37,3,12.15,9.6,23.7,9.24,36.23"/>
    <path class="cls-3" d="M617.71,1231.86l4-14.33c4.06-14.39,7.72-29.08,9.54-43.9"/>
    <path class="cls-3" d="M803.41,983.48A279.88,279.88,0,0,1,801,1013c-1.65,11.16-2.51,22.19-4.52,33.3a340.27,340.27,0,0,1-8.21,33.47q-7.37,25.62-16,50.84c-5.5,16-14.83,34.72-13.74,51.81,1.14,17.92.8,36-3.33,53.51-2.12,9-.48,20.18.11,29.49.9,14.18,6.77,28.59,11.21,42.08,4.79,14.58,10.41,30.46,11,45.84.78,22-4.35,43.57-10.8,64.45-4.83,15.67-8.33,31.22-13.8,46.63-4.16,11.71-8.16,23.39-11.5,35.24-3.54,12.6-8.46,24.5-10.51,37.54-.52,3.28-.79,6.58-1.1,9.88a97.92,97.92,0,0,0-.14,14.93c.1,1.7.22,3.39.33,5.08s.09,3.1.22,4.64"/>
    <path class="cls-3" d="M759.58,1168.6c-.87,2.56-1.42,5.22-2.2,7.82-1.92,6.42-3.21,12.88-4.84,19.37-3,12.15-9.6,23.7-9.24,36.23"/>
    <path class="cls-3" d="M678.29,1231.86l-4-14.33c-4.06-14.39-7.72-29.08-9.54-43.9"/>
    <path class="cls-3" d="M426.76,639.11c.31-.8.72-1.56,1.06-2.35.44-1,.88-2,1.33-3,.91-2,1.86-3.94,2.88-5.86,1-1.77,2-3.52,3-5.23,5.09-8.39,9.92-16.5,8.72-26.7"/>
    <path class="cls-3" d="M505.75,339.22a102.18,102.18,0,0,1,23.06,2.6"/>
    <path class="cls-5" d="M802.79,491.71l0-.3a67,67,0,0,1,5.25-18.56,51.94,51.94,0,0,1,6.59-10.32c1.75-2.25,5.67-5.63,5.66-8.71"/>
    <path class="cls-3" d="M869.24,639.11c-.31-.8-.72-1.56-1.06-2.35-.44-1-.88-2-1.33-3-.91-2-1.86-3.94-2.88-5.86-1-1.77-2-3.52-3-5.23-5.09-8.39-9.92-16.5-8.72-26.7"/>
    <path class="cls-3" d="M790.25,339.22a102.18,102.18,0,0,0-23.06,2.6"/>
  </g>
</svg>
