<svg xmlns="http://www.w3.org/2000/svg" width="1296" height="1728" viewBox="0 0 1296 1728">
  <defs>
    <style>
      .cls-1 {
        fill: #fff5ad;
        stroke-width: 2px;
      }

      .cls-1, .cls-17, .cls-18, .cls-19, .cls-2, .cls-20, .cls-3, .cls-4, .cls-5, .cls-6, .cls-7, .cls-8 {
        stroke: #000;
      }

      .cls-1, .cls-10, .cls-12, .cls-13, .cls-14, .cls-19, .cls-2, .cls-3, .cls-4, .cls-5, .cls-6 {
        stroke-linecap: round;
      }

      .cls-1, .cls-10, .cls-12, .cls-13, .cls-14, .cls-17, .cls-18, .cls-2, .cls-20, .cls-3, .cls-4, .cls-5, .cls-6, .cls-7, .cls-8 {
        stroke-linejoin: round;
      }

      .cls-10, .cls-12, .cls-13, .cls-14, .cls-17, .cls-19, .cls-2, .cls-20, .cls-3, .cls-4, .cls-5, .cls-7, .cls-8 {
        fill: none;
      }

      .cls-19, .cls-2, .cls-8 {
        stroke-width: 0.75px;
      }

      .cls-10, .cls-12, .cls-13, .cls-14, .cls-18, .cls-20, .cls-3, .cls-6 {
        stroke-width: 0.25px;
      }

      .cls-17, .cls-4 {
        stroke-width: 0.5px;
      }

      .cls-9 {
        fill: #58595b;
      }

      .cls-10 {
        stroke: #808184;
      }

      .cls-11 {
        fill: #231f20;
      }

      .cls-12 {
        stroke: #231f20;
      }

      .cls-13 {
        stroke: #a6a8ab;
      }

      .cls-14 {
        stroke: #d0d2d3;
      }

      .cls-15 {
        fill: #d0d2d3;
      }

      .cls-16 {
        fill: #bbbdbf;
      }

      .cls-19 {
        stroke-miterlimit: 10;
      }
    </style>
  </defs>
  <g id="Fingers">
    <g id="Fingers-2" data-name="Fingers">
      <path class="cls-1" d="M344.53,900.83,360,917.38a.92.92,0,0,0-.91-.2,1.87,1.87,0,0,0-.59.36c-6.79,5.61-13.35,11.42-19.91,17.22-5.22,4.61-9.51,9.75-14.49,14.59l-5.42,5.28c-1.52,1.47-3.4,3.58-5.85,4s-4.64-1.4-5.77-3.26c-1.89-3.13-1.19-6.86.29-10a38.3,38.3,0,0,1,5.12-7.54q5.15-6.37,10.7-12.51c4.12-4.57,8.83-8.79,13.37-13.1a50.88,50.88,0,0,0,5.23-5.48c1.41-1.81,1.92-3.82,2.77-5.84"/>
      <path class="cls-1" d="M427,919.24l-21.67,4.6a2,2,0,0,1,1.65.63,4.18,4.18,0,0,1,1,1.9c2.84,8.79,5.16,17.71,7.17,26.66.73,3.3,1.22,6.64,2.13,9.91.63,2.29,1.44,6.76,4.31,7.91a5.66,5.66,0,0,0,2.29.31c2.05-.1,3.75-.08,4.87-1.81a5.83,5.83,0,0,0,.81-3.14c0-2.42-.94-4.75-1.32-7.14-.44-2.78-.91-5.56-1.33-8.34A97.58,97.58,0,0,1,425.5,934,116.62,116.62,0,0,1,427,919.24"/>
      <g>
        <path class="cls-1" d="M382.08,926c-.89-.23-1.58.63-1.94,1.34l-5,10c-1.62,3.23-2.2,6.43-3.88,9.65a55.89,55.89,0,0,1-3.19,5,106.71,106.71,0,0,0-8.09,15.15c-2.24,4.94-4.89,9.87-6.85,14.86a6.23,6.23,0,0,1-1.63,2.65c-4.46,3.77-11-3-11.42-6.48a26.2,26.2,0,0,1,1.06-8.72l2.23-9.46c2-8.26,6.33-16.39,9.84-24.28,1.48-3.32,3.73-6.32,5.4-9.58a18.4,18.4,0,0,0,2-7.1,2.16,2.16,0,0,0-.59-1.66L382.08,926"/>
        <path class="cls-1" d="M378.25,981.28c-.06-.17-.13-.34-.2-.51-1.15-2.87-.85-6-.54-9l1.7-16.45c1-9.19,2.44-18.33,3.67-27.49.1-.73,0-1.68-.8-1.89l23.2-2.11a3.45,3.45,0,0,0-2.42,2.36c-.8,2.6-.87,5.51-1.41,8.17-1.12,5.5-2.51,11-3.87,16.41a150.88,150.88,0,0,0-3.71,18c-.54,4.41-.69,8.87-1.78,13.21-.46,1.85-1.36,3.93-3.49,4.58a11.84,11.84,0,0,1-5.67-.19,5.87,5.87,0,0,1-3.51-2.19A12.19,12.19,0,0,1,378.25,981.28Z"/>
      </g>
      <path class="cls-1" d="M951.47,900.83,936,917.38a.92.92,0,0,1,.91-.2,1.87,1.87,0,0,1,.59.36c6.79,5.61,13.35,11.42,19.91,17.22,5.22,4.61,9.51,9.75,14.49,14.59l5.42,5.28c1.52,1.47,3.4,3.58,5.85,4s4.64-1.4,5.77-3.26c1.89-3.13,1.19-6.86-.29-10a38.3,38.3,0,0,0-5.12-7.54q-5.14-6.37-10.7-12.51c-4.12-4.57-8.83-8.79-13.37-13.1a50.88,50.88,0,0,1-5.23-5.48c-1.41-1.81-1.92-3.82-2.77-5.84"/>
      <path class="cls-1" d="M869.05,919.24l21.67,4.6a2,2,0,0,0-1.65.63,4.18,4.18,0,0,0-1,1.9c-2.84,8.79-5.16,17.71-7.17,26.66-.73,3.3-1.22,6.64-2.13,9.91-.63,2.29-1.44,6.76-4.31,7.91a5.66,5.66,0,0,1-2.29.31c-2-.1-3.75-.08-4.87-1.81a5.83,5.83,0,0,1-.81-3.14c0-2.42.94-4.75,1.32-7.14.44-2.78.91-5.56,1.33-8.34A97.58,97.58,0,0,0,870.5,934a116.62,116.62,0,0,0-1.45-14.79"/>
      <g>
        <path class="cls-1" d="M913.92,926c.89-.23,1.58.63,1.94,1.34l5,10c1.62,3.23,2.2,6.43,3.88,9.65a55.89,55.89,0,0,0,3.19,5,106.71,106.71,0,0,1,8.09,15.15C938.3,972.1,941,977,942.91,982a6.23,6.23,0,0,0,1.63,2.65c4.46,3.77,11.05-3,11.42-6.48a26.2,26.2,0,0,0-1.06-8.72L952.67,960c-2-8.26-6.33-16.39-9.84-24.28-1.48-3.32-3.73-6.32-5.4-9.58a18.4,18.4,0,0,1-2-7.1,2.16,2.16,0,0,1,.59-1.66L913.92,926"/>
        <path class="cls-1" d="M917.75,981.28c.06-.17.13-.34.2-.51,1.15-2.87.85-6,.54-9l-1.7-16.45c-.95-9.19-2.44-18.33-3.67-27.49-.1-.73,0-1.68.8-1.89l-23.2-2.11a3.45,3.45,0,0,1,2.42,2.36c.8,2.6.87,5.51,1.41,8.17,1.12,5.5,2.51,11,3.87,16.41a150.88,150.88,0,0,1,3.71,18c.54,4.41.69,8.87,1.78,13.21.46,1.85,1.36,3.93,3.49,4.58a11.84,11.84,0,0,0,5.67-.19,5.87,5.87,0,0,0,3.51-2.19A12.19,12.19,0,0,0,917.75,981.28Z"/>
      </g>
    </g>
  </g>
  <g id="Base_-line_color_change" data-name="Base -line color change">
    <path class="cls-2" d="M639.08,225.23a2.93,2.93,0,0,0-.58.06,6.7,6.7,0,0,0-1.47.22c-.48.13-.94.33-1.43.42a9.81,9.81,0,0,1,1.53-.17,11.6,11.6,0,0,1,2,.06,4.76,4.76,0,0,1,1.18.3,3.64,3.64,0,0,1,.71.36l.57.42a3.92,3.92,0,0,0,.56.33,2,2,0,0,0,.3.14"/>
    <path class="cls-3" d="M635.65,226.08a3.4,3.4,0,0,1,.92-.49,3.54,3.54,0,0,1,1-.14,5.91,5.91,0,0,1,1.8.38,7.87,7.87,0,0,1,.74.32c.29.14.58.32.87.48"/>
    <path class="cls-4" d="M636.24,226.89c-.56,0-.94-1-.69-1.61s1.66-.85,2.14-.84c1.33,0,2.53,1,3.67,2a6.38,6.38,0,0,0,4.38,1.63"/>
    <path class="cls-3" d="M635.32,196.6c0,1,0,1.91,0,2.86a32.84,32.84,0,0,1-2.45,13.68,24.23,24.23,0,0,0-1.82,5,7.26,7.26,0,0,0-.12,1"/>
    <path class="cls-5" d="M565.6,327c1.65,14,3.62,27.95,7.86,41.34,7.21,22.79,20.59,47.87,43.62,57.84,9.13,3.94,18.59,4.3,28.34,4.16"/>
    <path class="cls-6" d="M648,252.7a8.31,8.31,0,0,1-.09,1.93c-.12.49-.53.45-.95.45l-1.38,0a4.07,4.07,0,0,1-1.25-.18.91.91,0,0,1-.49-.37,1.32,1.32,0,0,1-.11-.65v-1.79a11.55,11.55,0,0,1-.1,1.32c-.06.33,0,1-.46,1a12.16,12.16,0,0,1-1.8-.16,1.51,1.51,0,0,1-.42-.1.93.93,0,0,1-.46-.63,3.94,3.94,0,0,1,0-1c0-.54.12-1.08.14-1.62a9.08,9.08,0,0,1-.2,1.65c-.06.31,0,.83-.28,1.05a.64.64,0,0,1-.47.1l-1.09,0a1.89,1.89,0,0,1-.67-.11c-.52-.22-.52-.91-.54-1.39s0-1.11,0-1.66a8.41,8.41,0,0,1-.07,1.33,1.72,1.72,0,0,1-.3.88,1.28,1.28,0,0,1-.64.45,1.62,1.62,0,0,1-1.65-.39c-.48-.54-.26-1.36-.24-2,0,.74-.17,1.92-1.1,2a2.64,2.64,0,0,1-.73-.15,3.22,3.22,0,0,1-.73-.22.18.18,0,0,0-.1,0,.11.11,0,0,0-.08,0,1.56,1.56,0,0,1-.48,0,.83.83,0,0,1-.4-.16.43.43,0,0,1-.09-.22A1.45,1.45,0,0,1,631,251a2.75,2.75,0,0,1-.42.59.93.93,0,0,1-1.05.24c-.21-.05-.57-.05-.72-.23s0-.07-.08-.08h-.07a1.48,1.48,0,0,1-1.17-.49.59.59,0,0,0,0,.67,1.25,1.25,0,0,0,.55.41,7.78,7.78,0,0,0,1.55.5l3.47.85,1.34.33a21.22,21.22,0,0,0,2.94.58,24.1,24.1,0,0,1,2.53.51c.47.09.94.16,1.41.22l2.19.31a8.55,8.55,0,0,1,3.38,1,1.46,1.46,0,0,0,.25.46,1.24,1.24,0,0,0,.23.17,1.71,1.71,0,0,1,.36.35.77.77,0,0,0,.06-.3c0-.66.16-1.36.14-2"/>
    <line class="cls-3" x1="639.71" y1="254.79" x2="643.45" y2="254.81"/>
    <path class="cls-7" d="M600.19,279.2c0-.42,0-.83,0-1.24"/>
    <path class="cls-5" d="M433.93,474.44c-4.38-33.85-11.91-69,8.27-99.45,24.55-37,79.44-36.6,117.27-46.2A135.61,135.61,0,0,0,582,320.67c3-1.38,6.21-2.59,9.1-4.26a17,17,0,0,0,7-7.3c1.76-3.76,1.73-8.09,1.83-12.15q.16-6.87.2-13.73c0-1.35,0-2.69,0-4"/>
    <path class="cls-5" d="M480.78,978.79c1.28,4,3.54,3.35,7.28,3.93q6.72,1,13.49,1.75c16.13,1.71,32.49,2.08,48.7,2.52,30.41.84,60.83-.07,91.22-1.23C640,961.94,639,938.09,639,914.22a47.45,47.45,0,0,1,.65-9.31s2.25.19,2.46.21c1.67.17,3.36.25,5,.28h.49"/>
    <path class="cls-5" d="M559.61,1227.13c1.52,3.22,5.14,4.82,8.55,5.83,10.24,3,21.82,3,31.06-2.34"/>
    <path class="cls-5" d="M480.78,978.79a32.45,32.45,0,0,1-1-12c1.6-24.83,1.54-49.84,2.2-74.73.51-19.54,1.4-38.91,4.74-58.2,1.19-6.9,2.79-13.74,4.45-20.54,2.23-9.1,2.46-18.62,4.79-27.76a90.78,90.78,0,0,1,3.67-10.87c2.83-7.15,6.12-14.18,7.86-21.71a47,47,0,0,0,.86-4.74c1.4-10.89-1.36-22.36,2.23-32.74a69.42,69.42,0,0,1,4.05-8.65c7.48-14.57,12.62-30.2,17.73-45.75,2.64-8,1-17-1.71-25-3.87-11.24-10.76-21.12-14.55-32.44-4.29-12.8-7.83-25.9-10.85-39.06"/>
    <path class="cls-5" d="M604.6,1614.58c12.38,2.63,25.28,5.52,35.18,13.31"/>
    <path class="cls-5" d="M516.17,1634.42l4.3-3.38c8.65-6.8,17.77-13.82,28.59-15.81"/>
    <path class="cls-2" d="M567.11,1582.76c11.67,6.7,25,10.94,35.7,18.93"/>
    <path class="cls-2" d="M558.16,1599.81a180.22,180.22,0,0,1,47.35-15.67"/>
    <path class="cls-2" d="M547.81,1615c17.25-7.84,38.19-4.53,55-13.26"/>
    <path class="cls-2" d="M557.76,1599.81c3.84,3.06,8.62,4.24,13.25,5.35l20.3,4.85a51.43,51.43,0,0,1,10,3.15,19.51,19.51,0,0,0,3.26,1.42"/>
    <path class="cls-5" d="M556.84,1578.52a35.13,35.13,0,0,0,9.92,1.67"/>
    <path class="cls-5" d="M494.32,794.32c12.09.95,24,2.95,36.07,4.19q27.09,2.79,54.31,4,13.69.62,27.42.84c3.43.06,6.87.09,10.3.11s6.87,0,10.31,0h2.58l2.59,0,2.58,0H643c.85,0,1.7,0,2.54,0h.33"/>
    <g>
      <path class="cls-5" d="M378.55,906.76a134.33,134.33,0,0,1,32.73-3.09"/>
      <path class="cls-5" d="M357.83,885.2c13.75-1.15,26.89-6.76,36-15.4"/>
      <path class="cls-5" d="M352.35,892.4c-3.48-2.35-5.91-6.11-9.87-7.79-3.14-1.34-6.86-1.26-10.36-.93a81.1,81.1,0,0,0-14.77,2.8c-7.55,2.19-16.07,1.07-23.32-1.77a16.58,16.58,0,0,1-3.41-1.74c-3-2.13-4.3-5.53-5-8.78A148.38,148.38,0,0,0,329,862.58c5-2.27,10.17-4.3,15-6.81s9.05-5.48,13.76-8c6.39-3.42,14.23-5.92,21.5-4.09"/>
      <path class="cls-5" d="M425.82,855.22a30.51,30.51,0,0,1,7.17,18c.26,6.15-1.48,12.23-1.93,18.38-1,14.21-5.23,28.16-5.56,42.4a97.58,97.58,0,0,0,1.37,16.7c.42,2.78.89,5.56,1.33,8.34.38,2.39,1.34,4.72,1.32,7.14a5.83,5.83,0,0,1-.81,3.14c-1.12,1.73-2.82,1.71-4.87,1.81a5.66,5.66,0,0,1-2.29-.31c-2.87-1.15-3.68-5.62-4.31-7.91-.91-3.27-1.4-6.61-2.13-9.91-2-8.95-4.33-17.87-7.17-26.66a4.18,4.18,0,0,0-1-1.9c-1.8-1.69-3.64.34-4.07,1.73-.8,2.6-.87,5.51-1.41,8.17-1.12,5.5-2.51,11-3.87,16.41a150.88,150.88,0,0,0-3.71,18c-.54,4.41-.69,8.87-1.78,13.21-.46,1.85-1.36,3.93-3.49,4.58a11.84,11.84,0,0,1-5.67-.19,5.87,5.87,0,0,1-3.51-2.19,18.6,18.6,0,0,1-1.37-3.37c-1.15-2.87-.85-6-.54-9l1.7-16.45c1-9.19,2.44-18.33,3.67-27.49.1-.73,0-1.68-.8-1.89s-1.58.63-1.94,1.34l-5,10c-1.62,3.23-2.2,6.43-3.88,9.65a55.89,55.89,0,0,1-3.19,5,106.71,106.71,0,0,0-8.09,15.15c-2.24,4.94-4.89,9.87-6.85,14.86a6.23,6.23,0,0,1-1.63,2.65c-4.46,3.77-11-3-11.42-6.48a26.2,26.2,0,0,1,1.06-8.72l2.23-9.46c2-8.26,6.33-16.39,9.84-24.28,1.48-3.32,3.73-6.32,5.4-9.58a18.4,18.4,0,0,0,2-7.1c.07-.89-.5-2.17-1.51-1.87a1.87,1.87,0,0,0-.59.36c-6.79,5.61-13.35,11.42-19.91,17.22-5.22,4.61-9.51,9.75-14.49,14.59l-5.42,5.28c-1.52,1.47-3.4,3.58-5.85,4s-4.64-1.4-5.77-3.26c-1.89-3.13-1.19-6.86.29-10a38.3,38.3,0,0,1,5.12-7.54q5.15-6.37,10.7-12.51c4.12-4.57,8.83-8.79,13.37-13.1a50.88,50.88,0,0,0,5.23-5.48c1.41-1.81,1.92-3.82,2.77-5.84,1.59-3.79,1.23-8.19,1.12-12.19,0-.57-.07-1.17,0-1.75"/>
      <path class="cls-5" d="M356,945.17a23.45,23.45,0,0,1,8,2.72"/>
      <path class="cls-5" d="M347.6,965.67a18.28,18.28,0,0,1,6.59,2.49"/>
      <path class="cls-5" d="M317.81,941.33a14.61,14.61,0,0,1,3.8,2.49"/>
      <path class="cls-5" d="M332.67,929.52,336,931"/>
      <path class="cls-5" d="M382.82,966.19a16,16,0,0,1,5.06.64"/>
      <path class="cls-5" d="M329.65,924.12a23.76,23.76,0,0,1,8.28,5.14"/>
      <path class="cls-5" d="M390.11,949.72a29.09,29.09,0,0,1-3.75-3.78,46.25,46.25,0,0,1,6.86,1.23"/>
      <path class="cls-5" d="M416.7,939.07l5.06.49"/>
      <path class="cls-5" d="M418.86,953.09a22.22,22.22,0,0,1,4.68.35"/>
      <path class="cls-5" d="M393.15,865.42a8,8,0,0,0,.58,3.86l4,12.44"/>
      <path class="cls-5" d="M314.09,882.34a7.81,7.81,0,0,0-1.08-6.07"/>
      <path class="cls-5" d="M338.45,877.47a77,77,0,0,1,3.24-12.17"/>
    </g>
    <path class="cls-2" d="M641,353.52a102.63,102.63,0,0,1,.86,10.75,2,2,0,0,0,.66,1.62,2.54,2.54,0,0,0,1.52.32h2.14"/>
    <path class="cls-2" d="M593.5,333.58c4.22-7.08,5.78-14.52,6-22.63l.56-16.88c.17-5.21.16-10.37.33-15.59"/>
    <path class="cls-2" d="M635.43,364.38a25.83,25.83,0,0,0-4-12.87"/>
    <path class="cls-4" d="M473.88,685.56a20.37,20.37,0,0,1-7.05-16.95"/>
    <path class="cls-4" d="M463.31,667.57a23.5,23.5,0,0,1,18.39-19.31"/>
    <path class="cls-4" d="M474.11,608.21a78.73,78.73,0,0,0,10.67-26.09c2.46-11.36,2.71-23,2.34-34.63-.33-10.48-.16-21-2.11-31.39a43.4,43.4,0,0,0-9.11-19.5c-5.12-6.23-14.17-13.08-22.51-13.73"/>
    <path class="cls-8" d="M605.41,283.5a9.13,9.13,0,0,1-.43-.89"/>
    <path class="cls-2" d="M622.82,315c-6.86-10.94-12-19.5-17.25-31.19a3,3,0,0,0-.16-.3"/>
    <path class="cls-5" d="M634.25,165.92c-5.86-4.3-12.58-6.36-19.3-7.33a44.93,44.93,0,0,0-15.43.26,32.08,32.08,0,0,0-10.9,4.42c-4.31,2.8-3.51,5.19-4.85,10.28.59-2.22,3.82-3.87,5.63-4.91a27.54,27.54,0,0,1,7.67-2.93,42,42,0,0,1,5.25-.74,47.5,47.5,0,0,1,18,1.58c3.06.94,6,2.29,9,3.13a6.67,6.67,0,0,0,4.16.13C634.83,169.3,636.79,165.81,634.25,165.92Z"/>
    <path class="cls-3" d="M625.85,180.43a20.68,20.68,0,0,0-9.94-6.24,23.54,23.54,0,0,0-11.73-.19,18.41,18.41,0,0,0-6.3,2.64,12.11,12.11,0,0,0-4.37,5.26,12.11,12.11,0,0,1,4.37-5.26,18.41,18.41,0,0,1,6.3-2.64,23.54,23.54,0,0,1,11.73.19,20.68,20.68,0,0,1,9.94,6.24"/>
    <g>
      <path class="cls-9" d="M620,181.7c0,4.2-4,7.61-9,7.61s-9-3.41-9-7.61a7.21,7.21,0,0,1,3.48-6,25.07,25.07,0,0,1,7.33-.32A29,29,0,0,1,617,176,7.1,7.1,0,0,1,620,181.7Z"/>
      <g>
        <path class="cls-4" d="M617,176a7.1,7.1,0,0,1,3,5.67c0,4.2-4,7.61-9,7.61s-9-3.41-9-7.61a7.21,7.21,0,0,1,3.48-6s0,0,.05,0"/>
        <path class="cls-4" d="M593.64,182.38a.19.19,0,0,1,0-.11c0-.86,6-4.43,6.68-4.77a17.57,17.57,0,0,1,5.29-1.82"/>
        <path class="cls-4" d="M605.56,175.68a25.07,25.07,0,0,1,7.33-.32A29,29,0,0,1,617,176"/>
        <path class="cls-4" d="M617,176a24.43,24.43,0,0,1,4.68,1.62,19.56,19.56,0,0,1,3.74,2.23,17.53,17.53,0,0,1,2.46,2,1.88,1.88,0,0,1,.59,1"/>
        <path class="cls-3" d="M594,182.71c6.83,6.58,19,12.46,27.56,5.71,1.23-1,2.22-2.33,3.67-3,1.18-.5,2.81-1.05,3.19-2.14"/>
        <path class="cls-4" d="M593.64,182.38c.12.1.23.23.35.33"/>
      </g>
    </g>
    <g>
      <path class="cls-10" d="M612.32,183a14.34,14.34,0,0,1,1.15,2.24"/>
      <path class="cls-10" d="M613.28,182.61a25.16,25.16,0,0,1,1.73,2"/>
      <path class="cls-10" d="M611.61,183.3l.52,2.43"/>
      <path class="cls-10" d="M612.9,182.88l1.35,2.14"/>
      <path class="cls-10" d="M610.63,183.47l-.2,2.16"/>
      <path class="cls-10" d="M613.55,182.58a6.66,6.66,0,0,1,1.82.88"/>
      <path class="cls-10" d="M610.18,183.21a13.22,13.22,0,0,1-1.31,2.08"/>
      <path class="cls-10" d="M610,178.52a12.4,12.4,0,0,0-.38-2.77"/>
      <path class="cls-10" d="M613.72,182.16h1.74"/>
      <path class="cls-10" d="M609.84,183.15c-1.25.68-1.91,2.1-3,3"/>
      <path class="cls-10" d="M610.51,177.91a8.14,8.14,0,0,0-.18-2.51"/>
      <path class="cls-10" d="M607.29,175.78a10.91,10.91,0,0,1,2,2.46,17.74,17.74,0,0,1-1.18-3"/>
      <path class="cls-10" d="M610.91,178.25a20.42,20.42,0,0,0,.5-2.59C611.15,176.7,611.16,177.22,610.91,178.25Z"/>
      <path class="cls-10" d="M609.14,175.21a13.39,13.39,0,0,0,.19,3"/>
      <path class="cls-10" d="M613.86,176c-.84,1-1.9,1.19-2.4,2.37a7.52,7.52,0,0,1,1.36-2.56"/>
      <path class="cls-10" d="M613.55,181.68l2.86-.31"/>
      <path class="cls-10" d="M608.56,179.06a9.84,9.84,0,0,0-2.36-3.25c-.15-.13.59.2.41.11.15.09.21.08.35.17"/>
      <path class="cls-10" d="M612.18,178.38a9.15,9.15,0,0,1,2.69-2.34"/>
      <path class="cls-10" d="M608.41,179.34a5.4,5.4,0,0,1-.93-.92L605.35,176"/>
      <path class="cls-10" d="M612.75,178.4a27.18,27.18,0,0,0,3.13-2.05"/>
      <path class="cls-10" d="M604.66,176.67a22.13,22.13,0,0,1,3.66,3.89"/>
      <path class="cls-10" d="M615.72,176.54c.35-.15,1.52.06,1.87-.09-1.25.73-2.52,1.44-3.8,2.12a1.49,1.49,0,0,1-.68.23"/>
      <path class="cls-10" d="M603.4,178.07c1,.22,1.6,1.05,2.4,1.6a4.71,4.71,0,0,0,2.9.69,5.23,5.23,0,0,1-2.21-.63,5.69,5.69,0,0,1-1-.95l-1.18-1.32a5.85,5.85,0,0,1,0-.6"/>
      <path class="cls-10" d="M613.21,179.51a5.5,5.5,0,0,0,2.36-1.1c.7-.49,1.38-1,2-1.55"/>
      <path class="cls-10" d="M603.45,179.32a8.46,8.46,0,0,0,4.73,1.27"/>
      <path class="cls-10" d="M613.61,180.05a9.18,9.18,0,0,1,3.23-1.87"/>
      <path class="cls-10" d="M603.5,180.67a7.54,7.54,0,0,0,1.21.42,10.58,10.58,0,0,0,3.55,0,25.43,25.43,0,0,0-3.17,1.6"/>
      <path class="cls-10" d="M613.31,180.06c1.11-.3,2.23-.56,3.36-.76"/>
      <path class="cls-10" d="M605.62,183.84a6.89,6.89,0,0,1,2.81-2.46"/>
      <path class="cls-10" d="M606.12,185.31a14.36,14.36,0,0,1,2.73-2.49"/>
      <path class="cls-10" d="M613.46,180.62a8.58,8.58,0,0,0,3-.49"/>
      <path class="cls-10" d="M606.17,184.15a6.12,6.12,0,0,1,2.72-2.1"/>
      <path class="cls-10" d="M603.75,182a4.16,4.16,0,0,0,1.36-.12l5.15-1.08"/>
      <path class="cls-10" d="M611.21,186.06v-2.6"/>
      <g>
        <path class="cls-11" d="M611.05,178.09a3,3,0,1,1-3,3A3,3,0,0,1,611.05,178.09Z"/>
        <path class="cls-12" d="M614,181.07a3,3,0,1,1-3-3A3,3,0,0,1,614,181.07Z"/>
      </g>
    </g>
    <path class="cls-13" d="M611.21,186.15v1.91"/>
    <path class="cls-13" d="M611.9,186.15l.6,1.39"/>
    <path class="cls-13" d="M613.81,185.1a4.33,4.33,0,0,1,1.39,1.83"/>
    <path class="cls-13" d="M616.92,185.55a19.66,19.66,0,0,0-1.45-1.58C616,184.66,616.42,184.86,616.92,185.55Z"/>
    <path class="cls-13" d="M613.2,185.55l.6,1.64"/>
    <path class="cls-13" d="M614.66,184.79a3.44,3.44,0,0,1,1.17,1.52"/>
    <path class="cls-13" d="M615.48,183.44l2.06,1.4"/>
    <path class="cls-13" d="M614.06,185.72a7.43,7.43,0,0,0,.38,1.38"/>
    <path class="cls-13" d="M612.85,186.41a2.44,2.44,0,0,0,.36,1.21"/>
    <path class="cls-13" d="M615.69,184.86a3,3,0,0,0,.64.85"/>
    <path class="cls-13" d="M616.26,183.33a7.18,7.18,0,0,1,1.53,1.27"/>
    <path class="cls-13" d="M610.6,186.58a.94.94,0,0,0-.26.61"/>
    <path class="cls-13" d="M618.64,183.84a7.09,7.09,0,0,0-1.7-.84,10,10,0,0,1-1.13-.58"/>
    <path class="cls-13" d="M616.49,181.3a10.11,10.11,0,0,1,2.62,1.28"/>
    <path class="cls-13" d="M616.67,179.58l1.65-.07"/>
    <path class="cls-13" d="M616.33,181.71l2.09,1.29"/>
    <path class="cls-13" d="M616.84,179.92a4.6,4.6,0,0,1,2.26.34"/>
    <path class="cls-13" d="M617.28,178.7h1"/>
    <path class="cls-13" d="M617.11,180.48a5.66,5.66,0,0,1,2.22.77"/>
    <path class="cls-13" d="M617.72,177.85l.34-.09"/>
    <path class="cls-13" d="M617,180.71l1.39.6"/>
    <path class="cls-14" d="M613.82,187l.19,1.21"/>
    <path class="cls-14" d="M612.51,187.54v1"/>
    <path class="cls-14" d="M614.68,186.41a2.61,2.61,0,0,1,.34,1.39"/>
    <path class="cls-14" d="M615.44,186.33a3,3,0,0,0,.47,1.11"/>
    <path class="cls-14" d="M617.45,184.32a2,2,0,0,1,1.12.53"/>
    <path class="cls-14" d="M618.84,182.61a.65.65,0,0,1,.7.24"/>
    <path class="cls-14" d="M616.15,186.06l.51,1"/>
    <path class="cls-14" d="M613.38,187.19v1"/>
    <path class="cls-14" d="M616.57,185.3l.89.84"/>
    <path class="cls-14" d="M617.53,183.05a10,10,0,0,1,1.5,1"/>
    <path class="cls-14" d="M618.91,181.32l.53.25"/>
    <path class="cls-14" d="M618.4,182.69a2.24,2.24,0,0,1,.7.6"/>
    <path class="cls-14" d="M617.43,184.86a2.63,2.63,0,0,0,.46.68"/>
    <path class="cls-14" d="M616.24,186l.43.26"/>
    <path class="cls-14" d="M618.25,181.36a6.11,6.11,0,0,1,1.19.9"/>
    <path class="cls-14" d="M618.84,179.8l.61.19"/>
    <path class="cls-14" d="M613.12,188.15v.34"/>
    <path class="cls-14" d="M618.49,178.7l.34.17"/>
    <path class="cls-14" d="M619.11,180.42l.26.44"/>
    <path class="cls-14" d="M618.94,179l.17.17"/>
    <path class="cls-14" d="M618.58,178.78l.61.43"/>
    <path class="cls-14" d="M613.3,188a.88.88,0,0,0,.06.62"/>
    <path class="cls-14" d="M617.8,185.37a.39.39,0,0,1,.42.26"/>
    <g>
      <path class="cls-3" d="M604.51,176.5a7.19,7.19,0,0,1,1.11-.84"/>
      <path class="cls-3" d="M604.13,176.88l.38-.38"/>
      <path class="cls-3" d="M617,176a7.16,7.16,0,0,1,3,5.67c0,4.2-4,7.62-9,7.62s-9-3.42-9-7.62a6.89,6.89,0,0,1,2.06-4.83"/>
      <path class="cls-4" d="M628.49,182.82c0-.82-2.42-2.47-3-2.94a21.1,21.1,0,0,0-3.73-2.22A25.23,25.23,0,0,0,617,176a30.41,30.41,0,0,0-4.15-.67,26.47,26.47,0,0,0-7.27.29,17.27,17.27,0,0,0-5.33,1.87c-.66.36-7.27,4.24-6.64,4.85"/>
      <path class="cls-3" d="M628.13,183.85a2.12,2.12,0,0,0,.34-.67"/>
      <path class="cls-3" d="M595.06,183.73c7,6.13,18.33,11.11,26.48,4.7,1.24-1,2.22-2.33,3.67-3a8.12,8.12,0,0,0,2.92-1.62"/>
      <path class="cls-3" d="M594.59,183.29l.47.44"/>
      <path class="cls-3" d="M594.09,182.82c.15.15.32.32.5.47"/>
    </g>
    <path class="cls-3" d="M628.68,182.71a2.2,2.2,0,0,1-.49,1.92,12.29,12.29,0,0,1-3.47,2.81c-1.44,1-2.76,2.15-4.21,3.12a13.21,13.21,0,0,1-4.65,1.84,18.34,18.34,0,0,1-8.68-.37l-.26-.07a26.86,26.86,0,0,1-11-6.44c-.86-.86-1.52-1.87-2.3-2.8"/>
    <g>
      <g>
        <path class="cls-15" d="M627.87,182.36a1.32,1.32,0,0,1,.27,1,1.54,1.54,0,0,1-.7.77,11.71,11.71,0,0,1-1.85.82s-.07,0-.09,0a3.09,3.09,0,0,0,.71-2.48c0-.54.19-1.05.11-1.56a.44.44,0,0,0,0-.15l0,0A16.76,16.76,0,0,1,627.87,182.36Z"/>
        <path class="cls-16" d="M626.32,181c.08.51-.15,1-.11,1.56a3.09,3.09,0,0,1-.71,2.48l0,0a4.16,4.16,0,0,0-.4.3,6.2,6.2,0,0,0-.59.43,6.76,6.76,0,0,0,.51-6c-.08-.23-.25-.34-.37-.57a7.7,7.7,0,0,0,.75.66h0l.9.91A.44.44,0,0,1,626.32,181Z"/>
        <path class="cls-16" d="M626.09,180.25a1.11,1.11,0,0,1,.21.6l-.9-.91C625.63,180,625.91,180,626.09,180.25Z"/>
        <path class="cls-16" d="M625.08,185.38a4.16,4.16,0,0,1,.4-.3A1.64,1.64,0,0,1,625.08,185.38Z"/>
      </g>
      <g>
        <path class="cls-3" d="M625.38,179.94a7.7,7.7,0,0,1-.75-.66c.12.23.29.34.37.57a6.76,6.76,0,0,1-.51,6,6.2,6.2,0,0,1,.59-.43,1.64,1.64,0,0,0,.4-.3"/>
        <path class="cls-3" d="M625.5,185a3.09,3.09,0,0,0,.71-2.48c0-.54.19-1.05.11-1.56a.44.44,0,0,0,0-.15,1.11,1.11,0,0,0-.21-.6c-.18-.21-.46-.21-.69-.31"/>
        <path class="cls-3" d="M625.38,179.94h0l.9.91,0,0a16.76,16.76,0,0,1,1.55,1.49,1.32,1.32,0,0,1,.27,1,1.54,1.54,0,0,1-.7.77,11.71,11.71,0,0,1-1.85.82s-.07,0-.09,0l0,0a4.16,4.16,0,0,0-.4.3"/>
      </g>
    </g>
    <path class="cls-3" d="M625.69,185a6.34,6.34,0,0,0,1.82-.86,2.49,2.49,0,0,0,.59-.53,1.07,1.07,0,0,0,.2-.75,2,2,0,0,1-.14-.64"/>
    <path class="cls-3" d="M627.78,181.83a1.71,1.71,0,0,1,.91.84.86.86,0,0,1,0,.65"/>
    <path class="cls-3" d="M596.31,188a2.21,2.21,0,0,1,1.21-.77"/>
    <path class="cls-3" d="M595.93,187.38a4,4,0,0,1,1.39-.44"/>
    <path class="cls-3" d="M597,188.44a2.39,2.39,0,0,1,1.41-.6"/>
    <path class="cls-3" d="M606.61,192.44a.37.37,0,0,1,.17-.32"/>
    <path class="cls-3" d="M607.62,192.84a.45.45,0,0,1,.13-.54"/>
    <path class="cls-3" d="M606,192.39a1.67,1.67,0,0,1,.39-.61"/>
    <path class="cls-3" d="M609.07,193.35l.2-.74"/>
    <path class="cls-3" d="M605.37,192.07a1.33,1.33,0,0,1,.29-.38"/>
    <path class="cls-3" d="M618.59,192.32l-.05-.62"/>
    <path class="cls-3" d="M608,193.22a3.23,3.23,0,0,0,0-.82"/>
    <path class="cls-3" d="M611.94,193.6A1.3,1.3,0,0,1,612,193"/>
    <path class="cls-3" d="M618.92,191.86a1,1,0,0,1-.13-.33"/>
    <path class="cls-3" d="M617.24,192.09a2.22,2.22,0,0,1,.29.55"/>
    <path class="cls-3" d="M616.27,192.4a.82.82,0,0,0,.29.78"/>
    <path class="cls-3" d="M612.75,192.86l.09.41"/>
    <path class="cls-3" d="M613.22,193.31v-.5"/>
    <path class="cls-3" d="M610.12,193.51l.08-.74"/>
    <path class="cls-3" d="M614.54,193.51v-.74"/>
    <path class="cls-3" d="M615.66,193.27a2.69,2.69,0,0,1,0-.75"/>
    <path class="cls-3" d="M613.82,193.47l0-.7"/>
    <path class="cls-3" d="M597.89,189.42a3,3,0,0,1,.82-1.37"/>
    <path class="cls-3" d="M604,191.94a4.24,4.24,0,0,0,.5-.62"/>
    <path class="cls-3" d="M603.26,191.53a2.14,2.14,0,0,0,.59-.53"/>
    <path class="cls-3" d="M599.25,189.79a2.27,2.27,0,0,1,.51-.94"/>
    <path class="cls-3" d="M600.37,190.71a1.45,1.45,0,0,1,.58-1.12"/>
    <path class="cls-3" d="M602.31,191a1.25,1.25,0,0,0,.42-.49"/>
    <path class="cls-3" d="M601.66,190.63l.38-.41"/>
    <path class="cls-3" d="M600.92,190.25a.87.87,0,0,1,.16-.62"/>
    <path class="cls-3" d="M619.49,191.41v-.25"/>
    <path class="cls-3" d="M599.8,189.84a2.88,2.88,0,0,1,.49-.67"/>
    <path class="cls-3" d="M611.07,192.85a1,1,0,0,0,.08.5"/>
    <path class="cls-3" d="M597.38,176.42a1.69,1.69,0,0,0,.77,1,5.22,5.22,0,0,0,1.2.55"/>
    <path class="cls-3" d="M596.8,178.06a3.65,3.65,0,0,0,1.22.71"/>
    <path class="cls-3" d="M595.38,178.86a3.1,3.1,0,0,0,2,.35,1.88,1.88,0,0,1-1.76-1.09"/>
    <path class="cls-3" d="M595.94,177.22a5.08,5.08,0,0,0,3,1.12"/>
    <path class="cls-3" d="M599.22,175.84a1.76,1.76,0,0,0,.91,1.4"/>
    <path class="cls-3" d="M599.05,176.84l.83.74"/>
    <path class="cls-3" d="M599.88,174.94a2.91,2.91,0,0,0,.21.82,1.73,1.73,0,0,0,1.45,1"/>
    <path class="cls-3" d="M600.44,174.86a2.4,2.4,0,0,0,1.33,1.74"/>
    <path class="cls-3" d="M602.92,172.88a4,4,0,0,0,2.91,2.78"/>
    <path class="cls-3" d="M602.23,173.47a9,9,0,0,0,1.08,1.65,1.4,1.4,0,0,0,.86.58"/>
    <path class="cls-3" d="M598.05,176.34a2.59,2.59,0,0,0,1.33,1.5"/>
    <path class="cls-3" d="M601.49,174.57a1.93,1.93,0,0,0,1.5,1.58"/>
    <path class="cls-3" d="M590,180c3.21-2.16,5.89-5,9.22-7,8.35-5,20-3.07,26.57,4l.21.23"/>
    <path class="cls-3" d="M629,179.22c.86,1,2.32,2.2,2.6,3.48A10.31,10.31,0,0,1,631,187a21.71,21.71,0,0,1-2.3,5.7c-2.06,3.56-5.2,7.33-9.25,8.65"/>
    <path class="cls-3" d="M602.47,259.89c5.27,8,6.55,17.77,7.15,27.38"/>
    <path class="cls-3" d="M572.89,195.74l-.16,9.15a10.21,10.21,0,0,0,.24,3c1.08,3.79,8.86,6.67,12.14,8.29a30.71,30.71,0,0,1,12.94,11.55"/>
    <path class="cls-3" d="M603.61,246.74a8.26,8.26,0,0,1-2.81-4.4c-.87-3.49-.38-7.05-1.33-10.57"/>
    <path class="cls-4" d="M640.39,226.05c-.28-.09-.57-.18-.85-.29l-.82-.32a3.9,3.9,0,0,0-.67-.18,3,3,0,0,0-1.77.25,2.67,2.67,0,0,1-.63.25,2.31,2.31,0,0,1,1.6-.88,3.31,3.31,0,0,1,1.71.39,8.78,8.78,0,0,1,.79.44c.14.07.27.15.4.23a3.72,3.72,0,0,1,.38.22l0,0c.21.18.43.34.65.5a5.47,5.47,0,0,0,.73.49,5.79,5.79,0,0,0,.71.34,1.93,1.93,0,0,0,.74.19"/>
    <path class="cls-3" d="M643.47,239.1a4.16,4.16,0,0,0,1.31,1.23,4.91,4.91,0,0,0,2.47.68"/>
    <path class="cls-4" d="M635.47,228.87a3.68,3.68,0,0,1-3.15-1.21,6.09,6.09,0,0,1-1.37-3,11.33,11.33,0,0,1,1.1-8.19l4.28-6.91"/>
    <path class="cls-3" d="M640,216.29a7.49,7.49,0,0,1,.83-3.78c2-3.93,2.34-9.44,2.17-13.75-.16-4.08.33-8.12.17-12.22a50.15,50.15,0,0,0-.57-6.48,33.08,33.08,0,0,0-1.76-6.26"/>
    <path class="cls-3" d="M639.85,217.53a5.08,5.08,0,0,0,1.37,3.6,5.57,5.57,0,0,0,2.74,1.34,9.82,9.82,0,0,0,1.94.25"/>
    <path class="cls-2" d="M493.21,491.71l0-.3c-.45-3.25-.82-6.5-1.3-9.75l-1.51-10.18"/>
    <path class="cls-5" d="M501.09,547c-2.2-9.49-2.46-19.57-3.89-29.23l-3.84-26"/>
    <path class="cls-5" d="M505.25,564.6c-1.35-5.87-2.8-11.73-4.16-17.61"/>
    <path class="cls-5" d="M377.25,837.52a159,159,0,0,0,27.28-70.9"/>
    <path class="cls-5" d="M493.35,488.55C488.44,433.11,540,387.4,537.91,333.24"/>
    <path class="cls-4" d="M558.08,180.15a19.81,19.81,0,0,1,2.83,1c2,1.28,4.21,2,5.45,4.63a19.45,19.45,0,0,1,1,5c.32,2.45.55,4.91.86,7.36.28,2.1-.5,4.18-.67,6.3"/>
    <path class="cls-4" d="M571.09,227.7a.85.85,0,0,0,.88.54,2.11,2.11,0,0,0,1.5-.74"/>
    <path class="cls-4" d="M572.94,222.75a6.55,6.55,0,0,0-.14-3.05c-1-2.95-3.07-4.88-4.19-7.66a16.17,16.17,0,0,1-.86-4.66,13.5,13.5,0,0,1,0-2.84,21.3,21.3,0,0,0,.81-5,39.67,39.67,0,0,0-.59-6.45c-.36-3.16-.57-7.11-2.6-9.18a18.36,18.36,0,0,0-7.37-4.28"/>
    <path class="cls-4" d="M562.4,182c-1.07,5.21-3,9.18-4.7,14-2.07,5.88.66,15.37,3.32,20.72l5.45,11"/>
    <path class="cls-4" d="M569.22,230a1.3,1.3,0,0,1,.29-1.23,1.55,1.55,0,0,0,.27-.24,1.48,1.48,0,0,0,.08-1.18"/>
    <path class="cls-4" d="M557.82,195.06c-1.87-5.4-4.23-10.49-2.44-16.36a5.14,5.14,0,0,1,1.31-2.53,11,11,0,0,1,3.39-2.12c1.44-.52,3.33-.67,4.29.68,4.44,6.22,6,13.65,7.51,21"/>
    <path class="cls-4" d="M572.7,221.74a12.79,12.79,0,0,1-7.28-10.16c-.18-1.26-.21-2.56-.39-3.82-.44-3.21-1.84-4.83-3.1-7.39-1.07-2.18-.8-5.17.08-7.55.83-2.22,2.55-4,4.43-4"/>
    <path class="cls-4" d="M560.8,202.3a34,34,0,0,0,5,17c.78,1.21,1.73,2,1.68,3.58"/>
    <path class="cls-4" d="M560.82,199.49c0,.93-.05,1.87,0,2.81"/>
    <path class="cls-7" d="M647.12,75.7c-.67,0-1.33,0-2,0l-.35,0c-19.22.76-38.52,6.73-53.55,18.74s-25.47,30.57-25.79,49.92L565,171.77c0,1.22,0,2.32,0,3.53a1.08,1.08,0,0,0,0,.18"/>
    <path class="cls-5" d="M619.62,253.86a8.71,8.71,0,0,1,3-6.54"/>
    <path class="cls-7" d="M645.87,252.46a15.65,15.65,0,0,0,2,.2"/>
    <path class="cls-5" d="M647.34,257.33a5.12,5.12,0,0,0-1-.79,9.82,9.82,0,0,0-3.14-1c-2.24-.38-4.52-.33-6.77-.59a45.41,45.41,0,0,1-15.32-4.49c1.51.72,5.58.3,7.42.25,2.85-.09,5.71-.57,8.58-.7a10.2,10.2,0,0,1,3.77.44c1.17.4,2.22,1.06,3.35,1.53a8.69,8.69,0,0,0,1.64.46"/>
    <path class="cls-5" d="M559.61,1227.13c1.52,3.22,5.14,4.82,8.55,5.83,10.24,3,21.82,3,31.06-2.34"/>
    <path class="cls-5" d="M375.17,843.08a292,292,0,0,0,17.9-76.22c3-31.63,4-64.32,16.17-94.14,5.24-12.85,16.79-24.58,18.42-38.06,2.55-21.09-1.83-43.29-3-64.56l-4.13-77.92a285.58,285.58,0,0,1,1.09-42.88c1.28-13.1,1.9-28.69,8.08-40.55"/>
    <path class="cls-5" d="M640.2,1628.83c-1.67-8.6-4.56-17.14-7.46-25.38a60.84,60.84,0,0,1-3.19-16.8,74.07,74.07,0,0,1,0-8.56c.09-1.48,1-5.23-.66-6.18a3,3,0,0,0-1.49-.28c-4.58-.07-9.17-.15-13.75.14"/>
    <path class="cls-5" d="M603,1601.92a43.27,43.27,0,0,0,2.18,12.61q-29.17-.52-58.36.74a4.11,4.11,0,0,0,.45-.84l.48-.86c.33-.57.67-1.14,1-1.7.69-1.13,1.42-2.23,2.18-3.31,1.51-2.18,3.11-4.29,4.71-6.4s3.18-4.22,4.66-6.4a53.61,53.61,0,0,0,4-6.72,34.87,34.87,0,0,0,2.72-7.39c.44-1.85-.34-3.29-1.19-4.9-1.59-3-3.13-6.25-3.17-9.68a4.62,4.62,0,0,1,.18-1.53c.58-1.87,3-3.21,4.79-3.58,7.15-1.47,14.33-1.59,21.58-1.44a153.78,153.78,0,0,1,18.2,1.2c2.89.4,6,.93,6.48,4.37a16.05,16.05,0,0,1-2.4,10.09c-1.71,2.68-4.28,4.84-5.64,7.7C603.61,1588.54,602.72,1595.39,603,1601.92Z"/>
    <path class="cls-5" d="M429.92,861.52a59.68,59.68,0,0,1,2.64-16.06c7.24-22.07,13.7-41,24.06-62.1,9.11-18.56,17.68-37.41,24.71-56.86,6.43-17.8,14.46-37,17.47-55.75a77.34,77.34,0,0,0,1.08-15.27c-.57-15.22-2.31-29.75-2.34-44.92,0-19.74,2.78-39.3,4.11-59,0-.4,0-.7,0-1.1v-.66"/>
    <path class="cls-2" d="M568.43,347.19q5.43.85,10.84,1.87c8.38,1.58,16.77,3.45,25.31,3.82s17.21-1.08,19,9.55"/>
    <path class="cls-2" d="M491.89,342.72a101.15,101.15,0,0,0,11.15,0q10.17-.2,20.35.15,7.1.25,14.17.77"/>
    <path class="cls-2" d="M641,353.52a102.63,102.63,0,0,1,.86,10.75,2,2,0,0,0,.66,1.62,2.54,2.54,0,0,0,1.52.32h2.14"/>
    <path class="cls-2" d="M635.43,364.38a25.83,25.83,0,0,0-4-12.87"/>
    <path class="cls-5" d="M426.59,640.8a150.4,150.4,0,0,1,34.86,5"/>
    <path class="cls-4" d="M473.88,685.56a20.37,20.37,0,0,1-7.05-16.95"/>
    <path class="cls-4" d="M463.31,667.57a23.5,23.5,0,0,1,18.39-19.31"/>
    <path class="cls-5" d="M634.25,165.92c-5.86-4.3-12.58-6.36-19.3-7.33a44.93,44.93,0,0,0-15.43.26,32.08,32.08,0,0,0-10.9,4.42c-4.31,2.8-3.51,5.19-4.85,10.28.59-2.22,3.82-3.87,5.63-4.91a27.54,27.54,0,0,1,7.67-2.93,42,42,0,0,1,5.25-.74,47.5,47.5,0,0,1,18,1.58c3.06.94,6,2.29,9,3.13a6.67,6.67,0,0,0,4.16.13C634.83,169.3,636.79,165.81,634.25,165.92Z"/>
    <g>
      <path class="cls-10" d="M612.32,183a14.34,14.34,0,0,1,1.15,2.24"/>
      <path class="cls-10" d="M613.28,182.61a25.16,25.16,0,0,1,1.73,2"/>
      <path class="cls-10" d="M611.61,183.3l.52,2.43"/>
      <path class="cls-10" d="M612.9,182.88l1.35,2.14"/>
      <path class="cls-10" d="M610.63,183.47l-.2,2.16"/>
      <path class="cls-10" d="M613.55,182.58a6.66,6.66,0,0,1,1.82.88"/>
      <path class="cls-10" d="M610.18,183.21a13.22,13.22,0,0,1-1.31,2.08"/>
      <path class="cls-10" d="M610,178.52a12.4,12.4,0,0,0-.38-2.77"/>
      <path class="cls-10" d="M613.72,182.16h1.74"/>
      <path class="cls-10" d="M609.84,183.15c-1.25.68-1.91,2.1-3,3"/>
      <path class="cls-10" d="M610.51,177.91a8.14,8.14,0,0,0-.18-2.51"/>
      <path class="cls-10" d="M607.29,175.78a10.91,10.91,0,0,1,2,2.46,17.74,17.74,0,0,1-1.18-3"/>
      <path class="cls-10" d="M610.91,178.25a20.42,20.42,0,0,0,.5-2.59C611.15,176.7,611.16,177.22,610.91,178.25Z"/>
      <path class="cls-10" d="M609.14,175.21a13.39,13.39,0,0,0,.19,3"/>
      <path class="cls-10" d="M613.86,176c-.84,1-1.9,1.19-2.4,2.37a7.52,7.52,0,0,1,1.36-2.56"/>
      <path class="cls-10" d="M613.55,181.68l2.86-.31"/>
      <path class="cls-10" d="M608.56,179.06a9.84,9.84,0,0,0-2.36-3.25c-.15-.13.59.2.41.11.15.09.21.08.35.17"/>
      <path class="cls-10" d="M612.18,178.38a9.15,9.15,0,0,1,2.69-2.34"/>
      <path class="cls-10" d="M608.41,179.34a5.4,5.4,0,0,1-.93-.92L605.35,176"/>
      <path class="cls-10" d="M612.75,178.4a27.18,27.18,0,0,0,3.13-2.05"/>
      <path class="cls-10" d="M604.66,176.67a22.13,22.13,0,0,1,3.66,3.89"/>
      <path class="cls-10" d="M615.72,176.54c.35-.15,1.52.06,1.87-.09-1.25.73-2.52,1.44-3.8,2.12a1.49,1.49,0,0,1-.68.23"/>
      <path class="cls-10" d="M603.4,178.07c1,.22,1.6,1.05,2.4,1.6a4.71,4.71,0,0,0,2.9.69,5.23,5.23,0,0,1-2.21-.63,5.69,5.69,0,0,1-1-.95l-1.18-1.32a5.85,5.85,0,0,1,0-.6"/>
      <path class="cls-10" d="M613.21,179.51a5.5,5.5,0,0,0,2.36-1.1c.7-.49,1.38-1,2-1.55"/>
      <path class="cls-10" d="M603.45,179.32a8.46,8.46,0,0,0,4.73,1.27"/>
      <path class="cls-10" d="M613.61,180.05a9.18,9.18,0,0,1,3.23-1.87"/>
      <path class="cls-10" d="M603.5,180.67a7.54,7.54,0,0,0,1.21.42,10.58,10.58,0,0,0,3.55,0,25.43,25.43,0,0,0-3.17,1.6"/>
      <path class="cls-10" d="M613.31,180.06c1.11-.3,2.23-.56,3.36-.76"/>
      <path class="cls-10" d="M605.62,183.84a6.89,6.89,0,0,1,2.81-2.46"/>
      <path class="cls-10" d="M606.12,185.31a14.36,14.36,0,0,1,2.73-2.49"/>
      <path class="cls-10" d="M613.46,180.62a8.58,8.58,0,0,0,3-.49"/>
      <path class="cls-10" d="M606.17,184.15a6.12,6.12,0,0,1,2.72-2.1"/>
      <path class="cls-10" d="M603.75,182a4.16,4.16,0,0,0,1.36-.12l5.15-1.08"/>
      <path class="cls-10" d="M611.21,186.06v-2.6"/>
      <g>
        <path class="cls-11" d="M611.05,178.09a3,3,0,1,1-3,3A3,3,0,0,1,611.05,178.09Z"/>
        <path class="cls-12" d="M614,181.07a3,3,0,1,1-3-3A3,3,0,0,1,614,181.07Z"/>
      </g>
    </g>
    <path class="cls-13" d="M611.21,186.15v1.91"/>
    <path class="cls-13" d="M611.9,186.15l.6,1.39"/>
    <path class="cls-13" d="M613.81,185.1a4.33,4.33,0,0,1,1.39,1.83"/>
    <path class="cls-13" d="M616.92,185.55a19.66,19.66,0,0,0-1.45-1.58C616,184.66,616.42,184.86,616.92,185.55Z"/>
    <path class="cls-13" d="M613.2,185.55l.6,1.64"/>
    <path class="cls-13" d="M614.66,184.79a3.44,3.44,0,0,1,1.17,1.52"/>
    <path class="cls-13" d="M615.48,183.44l2.06,1.4"/>
    <path class="cls-13" d="M614.06,185.72a7.43,7.43,0,0,0,.38,1.38"/>
    <path class="cls-13" d="M612.85,186.41a2.44,2.44,0,0,0,.36,1.21"/>
    <path class="cls-13" d="M615.69,184.86a3,3,0,0,0,.64.85"/>
    <path class="cls-13" d="M616.26,183.33a7.18,7.18,0,0,1,1.53,1.27"/>
    <path class="cls-13" d="M610.6,186.58a.94.94,0,0,0-.26.61"/>
    <path class="cls-13" d="M618.64,183.84a7.09,7.09,0,0,0-1.7-.84,10,10,0,0,1-1.13-.58"/>
    <path class="cls-13" d="M616.49,181.3a10.11,10.11,0,0,1,2.62,1.28"/>
    <path class="cls-13" d="M616.67,179.58l1.65-.07"/>
    <path class="cls-13" d="M616.33,181.71l2.09,1.29"/>
    <path class="cls-13" d="M616.84,179.92a4.6,4.6,0,0,1,2.26.34"/>
    <path class="cls-13" d="M617.28,178.7h1"/>
    <path class="cls-13" d="M617.11,180.48a5.66,5.66,0,0,1,2.22.77"/>
    <path class="cls-13" d="M617.72,177.85l.34-.09"/>
    <path class="cls-13" d="M617,180.71l1.39.6"/>
    <path class="cls-14" d="M613.82,187l.19,1.21"/>
    <path class="cls-14" d="M612.51,187.54v1"/>
    <path class="cls-14" d="M614.68,186.41a2.61,2.61,0,0,1,.34,1.39"/>
    <path class="cls-14" d="M615.44,186.33a3,3,0,0,0,.47,1.11"/>
    <path class="cls-14" d="M617.45,184.32a2,2,0,0,1,1.12.53"/>
    <path class="cls-14" d="M618.84,182.61a.65.65,0,0,1,.7.24"/>
    <path class="cls-14" d="M616.15,186.06l.51,1"/>
    <path class="cls-14" d="M613.38,187.19v1"/>
    <path class="cls-14" d="M616.57,185.3l.89.84"/>
    <path class="cls-14" d="M617.53,183.05a10,10,0,0,1,1.5,1"/>
    <path class="cls-14" d="M618.91,181.32l.53.25"/>
    <path class="cls-14" d="M618.4,182.69a2.24,2.24,0,0,1,.7.6"/>
    <path class="cls-14" d="M617.43,184.86a2.63,2.63,0,0,0,.46.68"/>
    <path class="cls-14" d="M616.24,186l.43.26"/>
    <path class="cls-14" d="M618.25,181.36a6.11,6.11,0,0,1,1.19.9"/>
    <path class="cls-14" d="M618.84,179.8l.61.19"/>
    <path class="cls-14" d="M613.12,188.15v.34"/>
    <path class="cls-14" d="M618.49,178.7l.34.17"/>
    <path class="cls-14" d="M619.11,180.42l.26.44"/>
    <path class="cls-14" d="M618.94,179l.17.17"/>
    <path class="cls-14" d="M618.58,178.78l.61.43"/>
    <path class="cls-14" d="M613.3,188a.88.88,0,0,0,.06.62"/>
    <path class="cls-14" d="M617.8,185.37a.39.39,0,0,1,.42.26"/>
    <g>
      <path class="cls-3" d="M604.51,176.5a7.19,7.19,0,0,1,1.11-.84"/>
      <path class="cls-3" d="M604.13,176.88l.38-.38"/>
      <path class="cls-3" d="M617,176a7.16,7.16,0,0,1,3,5.67c0,4.2-4,7.62-9,7.62s-9-3.42-9-7.62a6.89,6.89,0,0,1,2.06-4.83"/>
      <path class="cls-4" d="M628.49,182.82c0-.82-2.42-2.47-3-2.94a21.1,21.1,0,0,0-3.73-2.22A25.23,25.23,0,0,0,617,176a30.41,30.41,0,0,0-4.15-.67,26.47,26.47,0,0,0-7.27.29,17.27,17.27,0,0,0-5.33,1.87c-.66.36-7.27,4.24-6.64,4.85"/>
      <path class="cls-3" d="M628.13,183.85a2.12,2.12,0,0,0,.34-.67"/>
      <path class="cls-3" d="M595.06,183.73c7,6.13,18.33,11.11,26.48,4.7,1.24-1,2.22-2.33,3.67-3a8.12,8.12,0,0,0,2.92-1.62"/>
      <path class="cls-3" d="M594.59,183.29l.47.44"/>
      <path class="cls-3" d="M594.09,182.82c.15.15.32.32.5.47"/>
    </g>
    <path class="cls-3" d="M628.68,182.71a2.2,2.2,0,0,1-.49,1.92,12.29,12.29,0,0,1-3.47,2.81c-1.44,1-2.76,2.15-4.21,3.12a13.21,13.21,0,0,1-4.65,1.84,18.34,18.34,0,0,1-8.68-.37l-.26-.07a26.86,26.86,0,0,1-11-6.44c-.86-.86-1.52-1.87-2.3-2.8a1.11,1.11,0,0,1-.2-.49c0-.24.3-.47.45-.63"/>
    <g>
      <g>
        <path class="cls-15" d="M627.87,182.36a1.32,1.32,0,0,1,.27,1,1.54,1.54,0,0,1-.7.77,11.71,11.71,0,0,1-1.85.82s-.07,0-.09,0a3.09,3.09,0,0,0,.71-2.48c0-.54.19-1.05.11-1.56a.44.44,0,0,0,0-.15l0,0A16.76,16.76,0,0,1,627.87,182.36Z"/>
        <path class="cls-16" d="M626.32,181c.08.51-.15,1-.11,1.56a3.09,3.09,0,0,1-.71,2.48l0,0a4.16,4.16,0,0,0-.4.3,6.2,6.2,0,0,0-.59.43,6.76,6.76,0,0,0,.51-6c-.08-.23-.25-.34-.37-.57a7.7,7.7,0,0,0,.75.66h0l.9.91A.44.44,0,0,1,626.32,181Z"/>
        <path class="cls-16" d="M626.09,180.25a1.11,1.11,0,0,1,.21.6l-.9-.91C625.63,180,625.91,180,626.09,180.25Z"/>
        <path class="cls-16" d="M625.08,185.38a4.16,4.16,0,0,1,.4-.3A1.64,1.64,0,0,1,625.08,185.38Z"/>
      </g>
      <g>
        <path class="cls-3" d="M625.38,179.94a7.7,7.7,0,0,1-.75-.66c.12.23.29.34.37.57a6.76,6.76,0,0,1-.51,6,6.2,6.2,0,0,1,.59-.43,1.64,1.64,0,0,0,.4-.3"/>
        <path class="cls-3" d="M625.5,185a3.09,3.09,0,0,0,.71-2.48c0-.54.19-1.05.11-1.56a.44.44,0,0,0,0-.15,1.11,1.11,0,0,0-.21-.6c-.18-.21-.46-.21-.69-.31"/>
        <path class="cls-3" d="M625.38,179.94h0l.9.91,0,0a16.76,16.76,0,0,1,1.55,1.49,1.32,1.32,0,0,1,.27,1,1.54,1.54,0,0,1-.7.77,11.71,11.71,0,0,1-1.85.82s-.07,0-.09,0l0,0a4.16,4.16,0,0,0-.4.3"/>
      </g>
    </g>
    <path class="cls-3" d="M625.69,185a6.34,6.34,0,0,0,1.82-.86,2.49,2.49,0,0,0,.59-.53,1.07,1.07,0,0,0,.2-.75,2,2,0,0,1-.14-.64"/>
    <path class="cls-3" d="M628.17,182c.37.33.73.8.48,1.32"/>
    <path class="cls-3" d="M596.31,188a2.21,2.21,0,0,1,1.21-.77h.17l.14,0"/>
    <path class="cls-3" d="M595.93,187.38a4,4,0,0,1,1.39-.44h.12"/>
    <path class="cls-3" d="M597,188.44a2.39,2.39,0,0,1,1.41-.6l.11,0"/>
    <path class="cls-3" d="M606.61,192.44a.37.37,0,0,1,.17-.32s.11-.06.13-.09"/>
    <path class="cls-3" d="M607.62,192.84a.45.45,0,0,1,.13-.54"/>
    <path class="cls-3" d="M606,192.39a1.67,1.67,0,0,1,.39-.61"/>
    <path class="cls-3" d="M609.07,193.35l.2-.74"/>
    <path class="cls-3" d="M605.37,192.07a1.33,1.33,0,0,1,.29-.38"/>
    <path class="cls-3" d="M618.59,192.32l-.05-.62"/>
    <path class="cls-3" d="M608,193.22a3.23,3.23,0,0,0,0-.82"/>
    <path class="cls-3" d="M611.94,193.6A1.3,1.3,0,0,1,612,193c0-.06,0-.09,0-.15"/>
    <path class="cls-3" d="M618.92,191.86a1,1,0,0,1-.13-.33"/>
    <path class="cls-3" d="M617.24,192.09a2.22,2.22,0,0,1,.29.55"/>
    <path class="cls-3" d="M616.27,192.4a.82.82,0,0,0,.29.78"/>
    <path class="cls-3" d="M612.75,192.86l.09.41"/>
    <path class="cls-3" d="M613.22,193.31v-.5"/>
    <path class="cls-3" d="M610.12,193.51l.08-.74"/>
    <path class="cls-3" d="M614.54,193.51v-.74"/>
    <path class="cls-3" d="M615.66,193.27a2.69,2.69,0,0,1,0-.75"/>
    <path class="cls-3" d="M613.82,193.47l0-.7"/>
    <path class="cls-3" d="M597.89,189.42a3,3,0,0,1,.82-1.37"/>
    <path class="cls-3" d="M604,191.94a4.24,4.24,0,0,0,.5-.62l.1-.07"/>
    <path class="cls-3" d="M603.26,191.53a2.14,2.14,0,0,0,.59-.53"/>
    <path class="cls-3" d="M599.25,189.79a2.27,2.27,0,0,1,.51-.94s.06-.1.12-.12"/>
    <path class="cls-3" d="M600.37,190.71a1.45,1.45,0,0,1,.58-1.12"/>
    <path class="cls-3" d="M602.31,191a1.25,1.25,0,0,0,.42-.49c0-.06,0-.12.06-.18"/>
    <path class="cls-3" d="M601.66,190.63l.38-.41a1.21,1.21,0,0,1,.1-.14"/>
    <path class="cls-3" d="M600.92,190.25a.87.87,0,0,1,.16-.62"/>
    <path class="cls-3" d="M619.49,191.41v-.25"/>
    <path class="cls-3" d="M599.8,189.84a2.88,2.88,0,0,1,.49-.67s.07-.09.12-.11"/>
    <path class="cls-3" d="M611.07,192.85a1,1,0,0,0,.08.5"/>
    <path class="cls-3" d="M597.38,176.42a1.69,1.69,0,0,0,.77,1,5.22,5.22,0,0,0,1.2.55"/>
    <path class="cls-3" d="M596.8,178.06a3.65,3.65,0,0,0,1.22.71"/>
    <path class="cls-3" d="M595.38,178.86a3.1,3.1,0,0,0,2,.35,1.88,1.88,0,0,1-1.76-1.09"/>
    <path class="cls-3" d="M595.94,177.22a5.08,5.08,0,0,0,3,1.12"/>
    <path class="cls-3" d="M599.22,175.84a1.76,1.76,0,0,0,.91,1.4l.2.07"/>
    <path class="cls-3" d="M599.05,176.84l.83.74"/>
    <path class="cls-3" d="M599.88,174.94a2.91,2.91,0,0,0,.21.82,1.73,1.73,0,0,0,1.45,1"/>
    <path class="cls-3" d="M600.44,174.86a2.4,2.4,0,0,0,1.33,1.74"/>
    <path class="cls-3" d="M602.92,172.88c.34,1.2,1.48,2.63,2.84,2.64"/>
    <path class="cls-3" d="M602.23,173.47a9,9,0,0,0,1.08,1.65,1.4,1.4,0,0,0,.86.58l.33,0a.63.63,0,0,1,.19,0"/>
    <path class="cls-3" d="M598.05,176.34a2.59,2.59,0,0,0,1.33,1.5"/>
    <path class="cls-3" d="M601.49,174.57a1.93,1.93,0,0,0,1.5,1.58"/>
    <path class="cls-3" d="M590,180c3.21-2.16,5.89-5,9.22-7,8.35-5,20-3.07,26.57,4l.21.23"/>
    <path class="cls-3" d="M629,179.22c.86,1,2.32,2.2,2.6,3.48A10.31,10.31,0,0,1,631,187a21.71,21.71,0,0,1-2.3,5.7c-2.06,3.56-5.2,7.33-9.25,8.65"/>
    <path class="cls-3" d="M602.47,259.89c5.27,8,6.55,17.77,7.15,27.38"/>
    <path class="cls-3" d="M572.89,195.74l-.16,9.15a10.21,10.21,0,0,0,.24,3c1.08,3.79,8.86,6.67,12.14,8.29a30.71,30.71,0,0,1,12.94,11.55"/>
    <path class="cls-3" d="M603.61,246.74a8.26,8.26,0,0,1-2.81-4.4c-.87-3.49-.38-7.05-1.33-10.57"/>
    <path class="cls-4" d="M635.47,228.87a3.68,3.68,0,0,1-3.15-1.21,6.09,6.09,0,0,1-1.37-3,11.33,11.33,0,0,1,1.1-8.19l4.28-6.91"/>
    <path class="cls-3" d="M640,216.29a7.49,7.49,0,0,1,.83-3.78c2-3.93,2.34-9.44,2.17-13.75-.16-4.08.33-8.12.17-12.22a50.15,50.15,0,0,0-.57-6.48,33.08,33.08,0,0,0-1.76-6.26"/>
    <path class="cls-3" d="M639.85,217.53a5.08,5.08,0,0,0,1.37,3.6,5.57,5.57,0,0,0,2.74,1.34,9.82,9.82,0,0,0,1.94.25"/>
    <path class="cls-4" d="M636.33,272.42a24.89,24.89,0,0,1,10.47-2.34h.75"/>
    <path class="cls-5" d="M505.25,564.6c-1.35-5.87-2.8-11.73-4.16-17.61"/>
    <path class="cls-5" d="M492.59,983.48A279.88,279.88,0,0,0,495,1013c1.65,11.16,2.51,22.19,4.52,33.3a340.27,340.27,0,0,0,8.21,33.47q7.37,25.62,16,50.84c5.5,16,14.83,34.72,13.74,51.81-1.14,17.92-.8,36,3.33,53.51,2.12,9,.48,20.18-.11,29.49-.9,14.18-6.77,28.59-11.21,42.08-4.79,14.58-10.41,30.46-11,45.84-.78,22,4.35,43.57,10.8,64.45,4.83,15.67,8.33,31.22,13.8,46.63,4.16,11.71,8.16,23.39,11.5,35.24,3.54,12.6,8.46,24.5,10.51,37.54.52,3.28.79,6.58,1.1,9.88a97.92,97.92,0,0,1,.14,14.93"/>
    <path class="cls-5" d="M630.51,986.17c1.64,14.44-4.22,27.71-4.38,41.8-.22,18.72,2.07,37.79,2.84,56.52q2.25,55.29,2.52,110.63c.11,24.27-9.24,44.39-9.3,68.07a401.42,401.42,0,0,0,2.08,46.65c2.47,21.62,7.27,42.94,8.77,64.67,1.14,16.45,2.62,33.7-.4,50-3.3,17.84-8,35.58-8.2,53.83-.25,19.08-.77,38.22-.85,57.31-.05,11.74-.16,23.47-.16,35.19v.67"/>
    <path class="cls-5" d="M622,1264.64a124,124,0,0,0-9.36,47.91"/>
    <path class="cls-5" d="M622.19,1264.14c-.07.16-.14.33-.2.5"/>
    <path class="cls-2" d="M377.25,837.52a159,159,0,0,0,27.28-70.9"/>
    <path class="cls-2" d="M501.9,424.12c8.39-8.6,14.71-19.42,19.69-30.27l8.46-18.47"/>
    <path class="cls-2" d="M498,470.07a48.08,48.08,0,0,0-3.15,10.43c-.36,1.92-.69,3.84-.94,5.78a30.07,30.07,0,0,0-.43,5.68"/>
    <path class="cls-17" d="M567.65,203.86a2,2,0,0,0,0,1.13"/>
    <path class="cls-4" d="M558.5,180.32a10.15,10.15,0,0,1,2.41.88c2,1.28,4.21,2,5.45,4.63a19.45,19.45,0,0,1,1,5c.32,2.45.55,4.91.86,7.36.25,1.88-.35,3.74-.6,5.64"/>
    <path class="cls-17" d="M558.5,180.32a3.69,3.69,0,0,1-.42-.17.35.35,0,0,1,0-.38"/>
    <path class="cls-4" d="M571.09,227.7a.85.85,0,0,0,.88.54,2.11,2.11,0,0,0,1.5-.74"/>
    <path class="cls-4" d="M572.94,222.75a6.55,6.55,0,0,0-.14-3.05c-1-2.95-3.07-4.88-4.19-7.66a16.17,16.17,0,0,1-.86-4.66,13.5,13.5,0,0,1,0-2.84,21.3,21.3,0,0,0,.81-5,39.67,39.67,0,0,0-.59-6.45c-.36-3.16-.57-7.11-2.6-9.18a18.36,18.36,0,0,0-7.37-4.28"/>
    <path class="cls-5" d="M562.26,182.58c-1.09,4.9-3,8.74-4.56,13.32-2.07,5.88.66,15.37,3.32,20.72l5.45,11"/>
    <path class="cls-7" d="M562.26,182.58c0-.21.09-.42.14-.63s0-.13.05-.2a.36.36,0,0,0,0-.1"/>
    <path class="cls-4" d="M569.22,230a1.3,1.3,0,0,1,.29-1.23,1.55,1.55,0,0,0,.27-.24,1.48,1.48,0,0,0,.08-1.18"/>
    <path class="cls-5" d="M578.31,239.14a2.36,2.36,0,0,1-.33.7c-1.74,2.51-6.26,1-8.17-.53-2.47-1.93-2.59-4.32-2.94-7.15a60.48,60.48,0,0,1-.41-7.24"/>
    <path class="cls-8" d="M578.39,238.73c0,.14,0,.27-.08.41"/>
    <path class="cls-5" d="M557.82,195.06c-1.87-5.4-4.23-10.49-2.44-16.36a5.14,5.14,0,0,1,1.31-2.53,11,11,0,0,1,3.39-2.12c1.44-.52,3.33-.67,4.29.68,4.44,6.22,6,13.65,7.51,21,.11.55.31,1.12.46,1.67"/>
    <path class="cls-4" d="M566.44,188.83c-1.88,0-3.6,1.77-4.43,4-.88,2.38-1.15,5.37-.08,7.55,1.26,2.56,2.66,4.18,3.1,7.39.18,1.26.21,2.56.39,3.82a13.88,13.88,0,0,0,3,6.93,12.91,12.91,0,0,0,4.43,3.35"/>
    <path class="cls-4" d="M560.8,202.3a34,34,0,0,0,5,17c.78,1.21,1.73,2,1.68,3.58"/>
    <path class="cls-4" d="M560.82,199.49c0,.93-.05,1.87,0,2.81"/>
    <path class="cls-2" d="M644.77,117h-.17c-4.68-.06-9.36,0-14,0a81.88,81.88,0,0,1-11.62-.6c-1.52-.23-3-.54-4.55-.75a37.5,37.5,0,0,0-22.66,4.51A37.06,37.06,0,0,0,580,130.13a41.58,41.58,0,0,0-3.87,6.35c-1.27,2.35-2.67,4.78-2.7,7.53-.11,7.69-1.38,16.36.45,23.74,2,8.25.43,15.91-.72,24.19-2,14.48.23,30.53,4.8,44,2.4,11.53,5.32,21.49,12.69,31.14,5.62,7.38,12.39,13.78,19.14,20.14a96.34,96.34,0,0,0,9.75,8.42,48.87,48.87,0,0,0,27.09,9.13h1"/>
    <path class="cls-4" d="M646.91,266.64c-.5,0-1,0-1.5,0a29.09,29.09,0,0,1-9.95-2.07c-4.15-1.82-7.47-5-10.42-8.37l-.43-.45-.63-.64c-.24-.26-.49-.51-.73-.78s-.51-.56-.75-.86-.48-.58-.69-.88a7.86,7.86,0,0,1-.54-.87,3.19,3.19,0,0,1-.29-.78,1.27,1.27,0,0,1,0-.67,1.11,1.11,0,0,1,.69-.56,3.84,3.84,0,0,1,1.07-.15c3.3-.06,6.27-1.67,9.06-3.28a51.9,51.9,0,0,1,5.26-2.8c1.7-.72,3.95-1.52,5.82-1.14,1.55.32,2.85,1.33,4.36,1.73a1.63,1.63,0,0,0,.5.07"/>
    <path class="cls-5" d="M647.17,256.51a5.56,5.56,0,0,0-.81-.48,1.75,1.75,0,0,0-.32-.12,25.85,25.85,0,0,0-2.86-.81,22.93,22.93,0,0,0-4.82-.58,21.2,21.2,0,0,1-4.9-.46c-.48-.12-1-.27-1.43-.38a20.83,20.83,0,0,1-2.84-.63,16.63,16.63,0,0,0-2.06-.86c-.84-.21-1.69-.39-2.53-.59a8.52,8.52,0,0,1,1.59-.12,4.13,4.13,0,0,1,.75.19A58.78,58.78,0,0,0,637,254.2a33.23,33.23,0,0,1,3.72.64"/>
    <line class="cls-3" x1="644.05" y1="255.18" x2="647.65" y2="255.18"/>
    <path class="cls-3" d="M634.22,250.5a.6.6,0,0,1,.25.49,1.24,1.24,0,0,1,.09-.33.42.42,0,0,1,.25-.22,2.18,2.18,0,0,0-.57,0"/>
    <path class="cls-3" d="M637.13,250.37a.65.65,0,0,1,.24.5.91.91,0,0,1,.1-.33.35.35,0,0,1,.25-.22,1.89,1.89,0,0,0-.58,0"/>
    <path class="cls-3" d="M640.58,251.13a.7.7,0,0,0-.18-.41,1.13,1.13,0,0,1,.32,0,1.26,1.26,0,0,0-.16.33"/>
    <line class="cls-3" x1="644.1" y1="255.08" x2="647.65" y2="255.1"/>
    <path class="cls-18" d="M647.66,258.17a.47.47,0,0,0,.32.19c.09,0,0-.81-.05-.89a9.48,9.48,0,0,1,0-1.07c0,.22-.28.51-.44.66a3.78,3.78,0,0,1-.33.22c-.18.15-.15.21,0,.37s.24.25.37.36Z"/>
    <line class="cls-3" x1="648" y1="258.32" x2="648" y2="252.49"/>
    <path class="cls-3" d="M625.53,185.18a3,3,0,0,0,.62-.21"/>
    <path class="cls-3" d="M628.52,183.23a.8.8,0,0,0,.05-.34"/>
    <path class="cls-3" d="M625.81,180.08l.32.29"/>
    <g>
      <path class="cls-4" d="M617,176.06a7.07,7.07,0,0,1,3,5.67c0,4.2-4,7.6-9,7.6s-9-3.4-9-7.6a7.27,7.27,0,0,1,3.53-6.07"/>
      <path class="cls-3" d="M594,182.74c6.83,6.57,19,12.45,27.56,5.71,1.23-1,2.22-2.33,3.67-3,1.18-.51,2.81-1.05,3.19-2.15"/>
    </g>
    <path class="cls-17" d="M578,239.26a3.53,3.53,0,0,0,.09-2.06c-.13-.55-.18-1.17-.36-1.7"/>
    <path class="cls-17" d="M572,196.65a3.93,3.93,0,0,0,.06.69,14,14,0,0,0,.46,1.52"/>
    <line class="cls-19" x1="647.61" y1="304.82" x2="648.1" y2="304.82"/>
    <line class="cls-5" x1="647.66" y1="905.41" x2="648.09" y2="905.41"/>
    <line class="cls-5" x1="645.91" y1="803.38" x2="648.12" y2="803.38"/>
    <line class="cls-5" x1="645.42" y1="430.38" x2="648.11" y2="430.36"/>
    <line class="cls-5" x1="647.12" y1="75.7" x2="648.12" y2="75.7"/>
    <line class="cls-2" x1="644.77" y1="117.03" x2="648.12" y2="117.04"/>
    <line class="cls-4" x1="646.91" y1="266.64" x2="648.12" y2="266.64"/>
    <line class="cls-4" x1="647.55" y1="270.07" x2="648.12" y2="270.07"/>
    <line class="cls-20" x1="648" y1="252.49" x2="648" y2="252.17"/>
    <line class="cls-20" x1="647.84" y1="252.28" x2="648.15" y2="252.28"/>
    <line class="cls-4" x1="647.78" y1="244.1" x2="648.1" y2="244.11"/>
    <path class="cls-5" d="M607.93,1580.85a78.17,78.17,0,0,0,21.09-1.57"/>
    <path class="cls-2" d="M566.85,1581.84c13-.51,25.86-.49,38.86,2.1"/>
    <path class="cls-2" d="M426.82,639.87l23.8-13.19"/>
    <path class="cls-3" d="M643.58,238.13a9.4,9.4,0,0,0,2.51-7.12"/>
    <line class="cls-3" x1="647.25" y1="241.01" x2="648.12" y2="241.01"/>
    <line class="cls-4" x1="645.74" y1="228.05" x2="648.1" y2="228.05"/>
    <line class="cls-3" x1="648" y1="258.32" x2="648" y2="252.49"/>
    <line class="cls-5" x1="647.66" y1="905.41" x2="648.09" y2="905.41"/>
    <line class="cls-20" x1="648" y1="252.49" x2="648" y2="252.17"/>
    <line class="cls-20" x1="648.16" y1="252.28" x2="647.85" y2="252.28"/>
    <line class="cls-4" x1="648.22" y1="244.1" x2="647.9" y2="244.11"/>
    <path class="cls-3" d="M642,227.41a2.68,2.68,0,0,1,.33.18,2.11,2.11,0,0,0,1.21.2"/>
    <path class="cls-4" d="M636.24,226.89c-.56,0-.94-1-.69-1.61s1.66-.85,2.14-.84c1.33,0,2.53,1,3.67,2a6.38,6.38,0,0,0,4.38,1.63"/>
    <path class="cls-5" d="M640.2,1628.83c1.77,9.11,2.17,18.28-.24,27.21-1.28,4.73-4.2,11.22-9.09,11.22H546.24c-5.85-1.67-11.8-3.44-17.12-6.41s-10-7.36-12.24-13c-2.51-6.5-1.38-14,1.5-20.3s7.38-11.8,11.82-17.17c6.39-7.72,13.53-16,19.92-23.73l3.48-4.2a23.56,23.56,0,0,0,3.24-4.22c.79-1.6.94-3.74,1.44-5.48a1.25,1.25,0,0,1,.3-.61,1.31,1.31,0,0,1,.81-.24c1.41-.08,2.8,0,4.19,0"/>
    <path class="cls-2" d="M656.92,225.23a2.93,2.93,0,0,1,.58.06,6.7,6.7,0,0,1,1.47.22c.48.13.94.33,1.43.42a9.81,9.81,0,0,0-1.53-.17,11.6,11.6,0,0,0-2,.06,4.76,4.76,0,0,0-1.18.3,3.64,3.64,0,0,0-.71.36l-.57.42a3.92,3.92,0,0,1-.56.33,2,2,0,0,1-.3.14"/>
    <path class="cls-3" d="M660.35,226.08a3.4,3.4,0,0,0-.92-.49,3.54,3.54,0,0,0-1-.14,5.91,5.91,0,0,0-1.8.38,7.87,7.87,0,0,0-.74.32c-.29.14-.58.32-.87.48"/>
    <path class="cls-4" d="M659.76,226.89c.56,0,.94-1,.69-1.61s-1.66-.85-2.14-.84c-1.33,0-2.53,1-3.67,2a6.38,6.38,0,0,1-4.38,1.63"/>
    <path class="cls-3" d="M660.68,196.6c0,1,0,1.91,0,2.86a32.84,32.84,0,0,0,2.45,13.68,24.23,24.23,0,0,1,1.82,5,7.26,7.26,0,0,1,.12,1"/>
    <path class="cls-5" d="M730.4,327c-1.65,14-3.62,27.95-7.86,41.34-7.21,22.79-20.59,47.87-43.62,57.84-9.13,3.94-18.59,4.3-28.34,4.16"/>
    <path class="cls-6" d="M648,252.7a8.31,8.31,0,0,0,.09,1.93c.12.49.53.45.95.45l1.38,0a4.07,4.07,0,0,0,1.25-.18.91.91,0,0,0,.49-.37,1.32,1.32,0,0,0,.11-.65v-1.79a11.55,11.55,0,0,0,.1,1.32c.06.33,0,1,.46,1a12.16,12.16,0,0,0,1.8-.16,1.51,1.51,0,0,0,.42-.1.93.93,0,0,0,.46-.63,3.94,3.94,0,0,0,0-1c0-.54-.12-1.08-.14-1.62a9.08,9.08,0,0,0,.2,1.65c.06.31,0,.83.28,1.05a.64.64,0,0,0,.47.1l1.09,0a1.89,1.89,0,0,0,.67-.11c.52-.22.52-.91.54-1.39s0-1.11,0-1.66a8.41,8.41,0,0,0,.07,1.33,1.72,1.72,0,0,0,.3.88,1.28,1.28,0,0,0,.64.45,1.62,1.62,0,0,0,1.65-.39c.48-.54.26-1.36.24-2,0,.74.17,1.92,1.1,2a2.64,2.64,0,0,0,.73-.15,3.22,3.22,0,0,0,.73-.22.18.18,0,0,1,.1,0,.11.11,0,0,1,.08,0,1.56,1.56,0,0,0,.48,0,.83.83,0,0,0,.4-.16.43.43,0,0,0,.09-.22A1.45,1.45,0,0,0,665,251a2.75,2.75,0,0,0,.42.59.93.93,0,0,0,1.05.24c.21-.05.57-.05.72-.23s0-.07.08-.08h.07a1.48,1.48,0,0,0,1.17-.49.59.59,0,0,1,0,.67,1.25,1.25,0,0,1-.55.41,7.78,7.78,0,0,1-1.55.5l-3.47.85-1.34.33a21.22,21.22,0,0,1-2.94.58,24.1,24.1,0,0,0-2.53.51c-.47.09-.94.16-1.41.22l-2.19.31a8.55,8.55,0,0,0-3.38,1,1.46,1.46,0,0,1-.25.46,1.24,1.24,0,0,1-.23.17,1.71,1.71,0,0,0-.36.35.77.77,0,0,1-.06-.3c0-.66-.16-1.36-.14-2"/>
    <line class="cls-3" x1="656.29" y1="254.79" x2="652.55" y2="254.81"/>
    <path class="cls-7" d="M695.81,279.2c0-.42,0-.83,0-1.24"/>
    <path class="cls-5" d="M862.07,474.44c4.38-33.85,11.91-69-8.27-99.45-24.55-37-79.44-36.6-117.27-46.2A135.61,135.61,0,0,1,714,320.67c-3-1.38-6.21-2.59-9.1-4.26a17,17,0,0,1-7-7.3C696.1,305.35,696.13,301,696,297q-.16-6.87-.2-13.73c0-1.35,0-2.69,0-4"/>
    <path class="cls-5" d="M815.22,978.79c-1.28,4-3.54,3.35-7.28,3.93q-6.72,1-13.49,1.75c-16.13,1.71-32.49,2.08-48.7,2.52-30.41.84-60.83-.07-91.22-1.23,1.51-23.82,2.52-47.67,2.45-71.54a47.45,47.45,0,0,0-.65-9.31s-2.25.19-2.46.21c-1.67.17-3.36.25-5,.28h-.49"/>
    <path class="cls-5" d="M736.39,1227.13c-1.52,3.22-5.14,4.82-8.55,5.83-10.24,3-21.82,3-31.06-2.34"/>
    <path class="cls-5" d="M815.22,978.79a32.45,32.45,0,0,0,1-12c-1.6-24.83-1.54-49.84-2.2-74.73-.51-19.54-1.4-38.91-4.74-58.2-1.19-6.9-2.79-13.74-4.45-20.54-2.23-9.1-2.46-18.62-4.79-27.76a90.78,90.78,0,0,0-3.67-10.87c-2.83-7.15-6.12-14.18-7.86-21.71a47,47,0,0,1-.86-4.74c-1.4-10.89,1.36-22.36-2.23-32.74a69.42,69.42,0,0,0-4-8.65c-7.48-14.57-12.62-30.2-17.73-45.75-2.64-8-1-17,1.71-25,3.87-11.24,10.76-21.12,14.55-32.44,4.29-12.8,7.83-25.9,10.85-39.06"/>
    <path class="cls-5" d="M691.4,1614.58c-12.38,2.63-25.28,5.52-35.18,13.31"/>
    <path class="cls-5" d="M779.83,1634.42l-4.3-3.38c-8.65-6.8-17.77-13.82-28.59-15.81"/>
    <path class="cls-2" d="M728.89,1582.76c-11.67,6.7-25,10.94-35.7,18.93"/>
    <path class="cls-2" d="M737.84,1599.81a180.22,180.22,0,0,0-47.35-15.67"/>
    <path class="cls-2" d="M748.19,1615c-17.25-7.84-38.19-4.53-55-13.26"/>
    <path class="cls-2" d="M738.24,1599.81c-3.84,3.06-8.62,4.24-13.25,5.35l-20.3,4.85a51.43,51.43,0,0,0-10,3.15,19.51,19.51,0,0,1-3.26,1.42"/>
    <path class="cls-5" d="M739.16,1578.52a35.13,35.13,0,0,1-9.92,1.67"/>
    <path class="cls-5" d="M801.68,794.32c-12.09.95-24,2.95-36.07,4.19q-27.09,2.79-54.31,4-13.69.62-27.42.84c-3.43.06-6.87.09-10.3.11s-6.87,0-10.31,0h-2.58l-2.59,0-2.58,0H653c-.85,0-1.7,0-2.54,0h-.33"/>
    <g>
      <path class="cls-5" d="M917.45,906.76a134.33,134.33,0,0,0-32.73-3.09"/>
      <path class="cls-5" d="M938.17,885.2c-13.75-1.15-26.89-6.76-36-15.4"/>
      <path class="cls-5" d="M943.65,892.4c3.48-2.35,5.91-6.11,9.87-7.79,3.14-1.34,6.86-1.26,10.36-.93a81.1,81.1,0,0,1,14.77,2.8c7.55,2.19,16.07,1.07,23.32-1.77a16.58,16.58,0,0,0,3.41-1.74c3-2.13,4.3-5.53,5-8.78A148.38,148.38,0,0,1,967,862.58c-5-2.27-10.17-4.3-15-6.81s-9.05-5.48-13.76-8c-6.39-3.42-14.23-5.92-21.5-4.09"/>
      <path class="cls-5" d="M870.18,855.22a30.51,30.51,0,0,0-7.17,18c-.26,6.15,1.48,12.23,1.93,18.38,1,14.21,5.23,28.16,5.56,42.4a97.58,97.58,0,0,1-1.37,16.7c-.42,2.78-.89,5.56-1.33,8.34-.38,2.39-1.34,4.72-1.32,7.14a5.83,5.83,0,0,0,.81,3.14c1.12,1.73,2.82,1.71,4.87,1.81a5.66,5.66,0,0,0,2.29-.31c2.87-1.15,3.68-5.62,4.31-7.91.91-3.27,1.4-6.61,2.13-9.91,2-8.95,4.33-17.87,7.17-26.66a4.18,4.18,0,0,1,1-1.9c1.8-1.69,3.64.34,4.07,1.73.8,2.6.87,5.51,1.41,8.17,1.12,5.5,2.51,11,3.87,16.41a150.88,150.88,0,0,1,3.71,18c.54,4.41.69,8.87,1.78,13.21.46,1.85,1.36,3.93,3.49,4.58a11.84,11.84,0,0,0,5.67-.19,5.87,5.87,0,0,0,3.51-2.19,18.6,18.6,0,0,0,1.37-3.37c1.15-2.87.85-6,.54-9l-1.7-16.45c-.95-9.19-2.44-18.33-3.67-27.49-.1-.73,0-1.68.8-1.89s1.58.63,1.94,1.34l5,10c1.62,3.23,2.2,6.43,3.88,9.65a55.89,55.89,0,0,0,3.19,5,106.71,106.71,0,0,1,8.09,15.15C938.3,972.1,941,977,942.91,982a6.23,6.23,0,0,0,1.63,2.65c4.46,3.77,11.05-3,11.42-6.48a26.2,26.2,0,0,0-1.06-8.72L952.67,960c-2-8.26-6.33-16.39-9.84-24.28-1.48-3.32-3.73-6.32-5.4-9.58a18.4,18.4,0,0,1-2-7.1c-.07-.89.5-2.17,1.51-1.87a1.87,1.87,0,0,1,.59.36c6.79,5.61,13.35,11.42,19.91,17.22,5.22,4.61,9.51,9.75,14.49,14.59l5.42,5.28c1.52,1.47,3.4,3.58,5.85,4s4.64-1.4,5.77-3.26c1.89-3.13,1.19-6.86-.29-10a38.3,38.3,0,0,0-5.12-7.54q-5.14-6.37-10.7-12.51c-4.12-4.57-8.83-8.79-13.37-13.1a50.88,50.88,0,0,1-5.23-5.48c-1.41-1.81-1.92-3.82-2.77-5.84-1.59-3.79-1.23-8.19-1.12-12.19,0-.57.07-1.17,0-1.75"/>
      <path class="cls-5" d="M940,945.17a23.45,23.45,0,0,0-8,2.72"/>
      <path class="cls-5" d="M948.4,965.67a18.28,18.28,0,0,0-6.59,2.49"/>
      <path class="cls-5" d="M978.19,941.33a14.61,14.61,0,0,0-3.8,2.49"/>
      <path class="cls-5" d="M963.33,929.52,960,931"/>
      <path class="cls-5" d="M913.18,966.19a16,16,0,0,0-5.06.64"/>
      <path class="cls-5" d="M966.35,924.12a23.76,23.76,0,0,0-8.28,5.14"/>
      <path class="cls-5" d="M905.89,949.72a29.09,29.09,0,0,0,3.75-3.78,46.25,46.25,0,0,0-6.86,1.23"/>
      <path class="cls-5" d="M879.3,939.07l-5.06.49"/>
      <path class="cls-5" d="M877.14,953.09a22.22,22.22,0,0,0-4.68.35"/>
      <path class="cls-5" d="M902.85,865.42a8,8,0,0,1-.58,3.86l-4,12.44"/>
      <path class="cls-5" d="M981.91,882.34a7.81,7.81,0,0,1,1.08-6.07"/>
      <path class="cls-5" d="M957.55,877.47a77,77,0,0,0-3.24-12.17"/>
    </g>
    <path class="cls-2" d="M655,353.52a102.63,102.63,0,0,0-.86,10.75,2,2,0,0,1-.66,1.62,2.54,2.54,0,0,1-1.52.32h-2.14"/>
    <path class="cls-2" d="M702.5,333.58c-4.22-7.08-5.78-14.52-6-22.63l-.56-16.88c-.17-5.21-.16-10.37-.33-15.59"/>
    <path class="cls-2" d="M660.57,364.38a25.83,25.83,0,0,1,4-12.87"/>
    <path class="cls-4" d="M822.12,685.56a20.37,20.37,0,0,0,7-16.95"/>
    <path class="cls-4" d="M832.69,667.57a23.5,23.5,0,0,0-18.39-19.31"/>
    <path class="cls-4" d="M821.89,608.21a78.73,78.73,0,0,1-10.67-26.09c-2.46-11.36-2.71-23-2.34-34.63.33-10.48.16-21,2.11-31.39a43.4,43.4,0,0,1,9.11-19.5c5.12-6.23,14.17-13.08,22.51-13.73"/>
    <path class="cls-8" d="M690.59,283.5a9.13,9.13,0,0,0,.43-.89"/>
    <path class="cls-2" d="M673.18,315c6.86-10.94,12-19.5,17.25-31.19a3,3,0,0,1,.16-.3"/>
    <path class="cls-5" d="M661.75,165.92c5.86-4.3,12.58-6.36,19.3-7.33a44.93,44.93,0,0,1,15.43.26,32.08,32.08,0,0,1,10.9,4.42c4.31,2.8,3.51,5.19,4.85,10.28-.59-2.22-3.82-3.87-5.63-4.91a27.54,27.54,0,0,0-7.67-2.93,42,42,0,0,0-5.25-.74,47.5,47.5,0,0,0-18,1.58c-3.06.94-6,2.29-9,3.13a6.67,6.67,0,0,1-4.16.13C661.17,169.3,659.21,165.81,661.75,165.92Z"/>
    <path class="cls-3" d="M670.15,180.43a20.68,20.68,0,0,1,9.94-6.24,23.54,23.54,0,0,1,11.73-.19,18.41,18.41,0,0,1,6.3,2.64,12.11,12.11,0,0,1,4.37,5.26,12.11,12.11,0,0,0-4.37-5.26,18.41,18.41,0,0,0-6.3-2.64,23.54,23.54,0,0,0-11.73.19,20.68,20.68,0,0,0-9.94,6.24"/>
    <g>
      <path class="cls-9" d="M676,181.7c0,4.2,4,7.61,9,7.61s9-3.41,9-7.61a7.21,7.21,0,0,0-3.48-6,25.07,25.07,0,0,0-7.33-.32A29,29,0,0,0,679,176,7.1,7.1,0,0,0,676,181.7Z"/>
      <g>
        <path class="cls-4" d="M679,176a7.1,7.1,0,0,0-3,5.67c0,4.2,4,7.61,9,7.61s9-3.41,9-7.61a7.21,7.21,0,0,0-3.48-6s0,0-.05,0"/>
        <path class="cls-4" d="M702.36,182.38a.19.19,0,0,0,0-.11c0-.86-6-4.43-6.68-4.77a17.57,17.57,0,0,0-5.29-1.82"/>
        <path class="cls-4" d="M690.44,175.68a25.07,25.07,0,0,0-7.33-.32A29,29,0,0,0,679,176"/>
        <path class="cls-4" d="M679,176a24.43,24.43,0,0,0-4.68,1.62,19.56,19.56,0,0,0-3.74,2.23,17.53,17.53,0,0,0-2.46,2,1.88,1.88,0,0,0-.59,1"/>
        <path class="cls-3" d="M702,182.71c-6.83,6.58-19,12.46-27.56,5.71-1.23-1-2.22-2.33-3.67-3-1.18-.5-2.81-1.05-3.19-2.14"/>
        <path class="cls-4" d="M702.36,182.38c-.12.1-.23.23-.35.33"/>
      </g>
    </g>
    <g>
      <path class="cls-10" d="M683.68,183a14.34,14.34,0,0,0-1.15,2.24"/>
      <path class="cls-10" d="M682.72,182.61a25.16,25.16,0,0,0-1.73,2"/>
      <path class="cls-10" d="M684.39,183.3l-.52,2.43"/>
      <path class="cls-10" d="M683.1,182.88,681.75,185"/>
      <path class="cls-10" d="M685.37,183.47l.2,2.16"/>
      <path class="cls-10" d="M682.45,182.58a6.66,6.66,0,0,0-1.82.88"/>
      <path class="cls-10" d="M685.82,183.21a13.22,13.22,0,0,0,1.31,2.08"/>
      <path class="cls-10" d="M686,178.52a12.4,12.4,0,0,1,.38-2.77"/>
      <path class="cls-10" d="M682.28,182.16h-1.74"/>
      <path class="cls-10" d="M686.16,183.15c1.25.68,1.91,2.1,3,3"/>
      <path class="cls-10" d="M685.49,177.91a8.14,8.14,0,0,1,.18-2.51"/>
      <path class="cls-10" d="M688.71,175.78a10.91,10.91,0,0,0-2,2.46,17.74,17.74,0,0,0,1.18-3"/>
      <path class="cls-10" d="M685.09,178.25a20.42,20.42,0,0,1-.5-2.59C684.85,176.7,684.84,177.22,685.09,178.25Z"/>
      <path class="cls-10" d="M686.86,175.21a13.39,13.39,0,0,1-.19,3"/>
      <path class="cls-10" d="M682.14,176c.84,1,1.9,1.19,2.4,2.37a7.52,7.52,0,0,0-1.36-2.56"/>
      <path class="cls-10" d="M682.45,181.68l-2.86-.31"/>
      <path class="cls-10" d="M687.44,179.06a9.84,9.84,0,0,1,2.36-3.25c.15-.13-.59.2-.41.11-.15.09-.21.08-.35.17"/>
      <path class="cls-10" d="M683.82,178.38a9.15,9.15,0,0,0-2.69-2.34"/>
      <path class="cls-10" d="M687.59,179.34a5.4,5.4,0,0,0,.93-.92l2.13-2.42"/>
      <path class="cls-10" d="M683.25,178.4a27.18,27.18,0,0,1-3.13-2.05"/>
      <path class="cls-10" d="M691.34,176.67a22.13,22.13,0,0,0-3.66,3.89"/>
      <path class="cls-10" d="M680.28,176.54c-.35-.15-1.52.06-1.87-.09,1.25.73,2.52,1.44,3.8,2.12a1.49,1.49,0,0,0,.68.23"/>
      <path class="cls-10" d="M692.6,178.07c-1,.22-1.6,1.05-2.4,1.6a4.71,4.71,0,0,1-2.9.69,5.23,5.23,0,0,0,2.21-.63,5.69,5.69,0,0,0,1-.95l1.18-1.32a5.85,5.85,0,0,0,0-.6"/>
      <path class="cls-10" d="M682.79,179.51a5.5,5.5,0,0,1-2.36-1.1c-.7-.49-1.38-1-2-1.55"/>
      <path class="cls-10" d="M692.55,179.32a8.46,8.46,0,0,1-4.73,1.27"/>
      <path class="cls-10" d="M682.39,180.05a9.18,9.18,0,0,0-3.23-1.87"/>
      <path class="cls-10" d="M692.5,180.67a7.54,7.54,0,0,1-1.21.42,10.58,10.58,0,0,1-3.55,0,25.43,25.43,0,0,1,3.17,1.6"/>
      <path class="cls-10" d="M682.69,180.06c-1.11-.3-2.23-.56-3.36-.76"/>
      <path class="cls-10" d="M690.38,183.84a6.89,6.89,0,0,0-2.81-2.46"/>
      <path class="cls-10" d="M689.88,185.31a14.36,14.36,0,0,0-2.73-2.49"/>
      <path class="cls-10" d="M682.54,180.62a8.58,8.58,0,0,1-3-.49"/>
      <path class="cls-10" d="M689.83,184.15a6.12,6.12,0,0,0-2.72-2.1"/>
      <path class="cls-10" d="M692.25,182a4.16,4.16,0,0,1-1.36-.12l-5.15-1.08"/>
      <path class="cls-10" d="M684.79,186.06v-2.6"/>
      <g>
        <path class="cls-11" d="M685,178.09a3,3,0,1,0,3,3A3,3,0,0,0,685,178.09Z"/>
        <path class="cls-12" d="M682,181.07a3,3,0,1,0,3-3A3,3,0,0,0,682,181.07Z"/>
      </g>
    </g>
    <path class="cls-13" d="M684.79,186.15v1.91"/>
    <path class="cls-13" d="M684.1,186.15l-.6,1.39"/>
    <path class="cls-13" d="M682.19,185.1a4.33,4.33,0,0,0-1.39,1.83"/>
    <path class="cls-13" d="M679.08,185.55a19.66,19.66,0,0,1,1.45-1.58C680,184.66,679.58,184.86,679.08,185.55Z"/>
    <path class="cls-13" d="M682.8,185.55l-.6,1.64"/>
    <path class="cls-13" d="M681.34,184.79a3.44,3.44,0,0,0-1.17,1.52"/>
    <path class="cls-13" d="M680.52,183.44l-2.06,1.4"/>
    <path class="cls-13" d="M681.94,185.72a7.43,7.43,0,0,1-.38,1.38"/>
    <path class="cls-13" d="M683.15,186.41a2.44,2.44,0,0,1-.36,1.21"/>
    <path class="cls-13" d="M680.31,184.86a3,3,0,0,1-.64.85"/>
    <path class="cls-13" d="M679.74,183.33a7.18,7.18,0,0,0-1.53,1.27"/>
    <path class="cls-13" d="M685.4,186.58a.94.94,0,0,1,.26.61"/>
    <path class="cls-13" d="M677.36,183.84a7.09,7.09,0,0,1,1.7-.84,10,10,0,0,0,1.13-.58"/>
    <path class="cls-13" d="M679.51,181.3a10.11,10.11,0,0,0-2.62,1.28"/>
    <path class="cls-13" d="M679.33,179.58l-1.65-.07"/>
    <path class="cls-13" d="M679.67,181.71,677.58,183"/>
    <path class="cls-13" d="M679.16,179.92a4.6,4.6,0,0,0-2.26.34"/>
    <path class="cls-13" d="M678.72,178.7h-1"/>
    <path class="cls-13" d="M678.89,180.48a5.66,5.66,0,0,0-2.22.77"/>
    <path class="cls-13" d="M678.28,177.85l-.34-.09"/>
    <path class="cls-13" d="M679,180.71l-1.39.6"/>
    <path class="cls-14" d="M682.18,187l-.19,1.21"/>
    <path class="cls-14" d="M683.49,187.54v1"/>
    <path class="cls-14" d="M681.32,186.41a2.61,2.61,0,0,0-.34,1.39"/>
    <path class="cls-14" d="M680.56,186.33a3,3,0,0,1-.47,1.11"/>
    <path class="cls-14" d="M678.55,184.32a2,2,0,0,0-1.12.53"/>
    <path class="cls-14" d="M677.16,182.61a.65.65,0,0,0-.7.24"/>
    <path class="cls-14" d="M679.85,186.06l-.51,1"/>
    <path class="cls-14" d="M682.62,187.19v1"/>
    <path class="cls-14" d="M679.43,185.3l-.89.84"/>
    <path class="cls-14" d="M678.47,183.05a10,10,0,0,0-1.5,1"/>
    <path class="cls-14" d="M677.09,181.32l-.53.25"/>
    <path class="cls-14" d="M677.6,182.69a2.24,2.24,0,0,0-.7.6"/>
    <path class="cls-14" d="M678.57,184.86a2.63,2.63,0,0,1-.46.68"/>
    <path class="cls-14" d="M679.76,186l-.43.26"/>
    <path class="cls-14" d="M677.75,181.36a6.11,6.11,0,0,0-1.19.9"/>
    <path class="cls-14" d="M677.16,179.8l-.61.19"/>
    <path class="cls-14" d="M682.88,188.15v.34"/>
    <path class="cls-14" d="M677.51,178.7l-.34.17"/>
    <path class="cls-14" d="M676.89,180.42l-.26.44"/>
    <path class="cls-14" d="M677.06,179l-.17.17"/>
    <path class="cls-14" d="M677.42,178.78l-.61.43"/>
    <path class="cls-14" d="M682.7,188a.88.88,0,0,1-.06.62"/>
    <path class="cls-14" d="M678.2,185.37a.39.39,0,0,0-.42.26"/>
    <g>
      <path class="cls-3" d="M691.49,176.5a7.19,7.19,0,0,0-1.11-.84"/>
      <path class="cls-3" d="M691.87,176.88l-.38-.38"/>
      <path class="cls-3" d="M679,176a7.16,7.16,0,0,0-3,5.67c0,4.2,4,7.62,9,7.62s9-3.42,9-7.62a6.89,6.89,0,0,0-2.06-4.83"/>
      <path class="cls-4" d="M667.51,182.82c0-.82,2.42-2.47,3-2.94a21.1,21.1,0,0,1,3.73-2.22A25.23,25.23,0,0,1,679,176a30.41,30.41,0,0,1,4.15-.67,26.47,26.47,0,0,1,7.27.29,17.27,17.27,0,0,1,5.33,1.87c.66.36,7.27,4.24,6.64,4.85"/>
      <path class="cls-3" d="M667.87,183.85a2.12,2.12,0,0,1-.34-.67"/>
      <path class="cls-3" d="M700.94,183.73c-7,6.13-18.33,11.11-26.48,4.7-1.24-1-2.22-2.33-3.67-3a8.12,8.12,0,0,1-2.92-1.62"/>
      <path class="cls-3" d="M701.41,183.29l-.47.44"/>
      <path class="cls-3" d="M701.91,182.82c-.15.15-.32.32-.5.47"/>
    </g>
    <path class="cls-3" d="M667.32,182.71a2.2,2.2,0,0,0,.49,1.92,12.29,12.29,0,0,0,3.47,2.81c1.44,1,2.76,2.15,4.21,3.12a13.21,13.21,0,0,0,4.65,1.84,18.34,18.34,0,0,0,8.68-.37l.26-.07a26.86,26.86,0,0,0,11-6.44c.86-.86,1.52-1.87,2.3-2.8"/>
    <g>
      <g>
        <path class="cls-15" d="M668.13,182.36a1.32,1.32,0,0,0-.27,1,1.54,1.54,0,0,0,.7.77,11.71,11.71,0,0,0,1.85.82s.07,0,.09,0a3.09,3.09,0,0,1-.71-2.48c0-.54-.19-1.05-.11-1.56a.44.44,0,0,1,0-.15l0,0A16.76,16.76,0,0,0,668.13,182.36Z"/>
        <path class="cls-16" d="M669.68,181c-.08.51.15,1,.11,1.56a3.09,3.09,0,0,0,.71,2.48l0,0a4.16,4.16,0,0,1,.4.3,6.2,6.2,0,0,1,.59.43,6.76,6.76,0,0,1-.51-6c.08-.23.25-.34.37-.57a7.7,7.7,0,0,1-.75.66h0l-.9.91A.44.44,0,0,0,669.68,181Z"/>
        <path class="cls-16" d="M669.91,180.25a1.11,1.11,0,0,0-.21.6l.9-.91C670.37,180,670.09,180,669.91,180.25Z"/>
        <path class="cls-16" d="M670.92,185.38a4.16,4.16,0,0,0-.4-.3A1.64,1.64,0,0,0,670.92,185.38Z"/>
      </g>
      <g>
        <path class="cls-3" d="M670.62,179.94a7.7,7.7,0,0,0,.75-.66c-.12.23-.29.34-.37.57a6.76,6.76,0,0,0,.51,6,6.2,6.2,0,0,0-.59-.43,1.64,1.64,0,0,1-.4-.3"/>
        <path class="cls-3" d="M670.5,185a3.09,3.09,0,0,1-.71-2.48c0-.54-.19-1.05-.11-1.56a.44.44,0,0,1,0-.15,1.11,1.11,0,0,1,.21-.6c.18-.21.46-.21.69-.31"/>
        <path class="cls-3" d="M670.62,179.94h0l-.9.91,0,0a16.76,16.76,0,0,0-1.55,1.49,1.32,1.32,0,0,0-.27,1,1.54,1.54,0,0,0,.7.77,11.71,11.71,0,0,0,1.85.82s.07,0,.09,0l0,0a4.16,4.16,0,0,1,.4.3"/>
      </g>
    </g>
    <path class="cls-3" d="M670.31,185a6.34,6.34,0,0,1-1.82-.86,2.49,2.49,0,0,1-.59-.53,1.07,1.07,0,0,1-.2-.75,2,2,0,0,0,.14-.64"/>
    <path class="cls-3" d="M668.22,181.83a1.71,1.71,0,0,0-.91.84.86.86,0,0,0,0,.65"/>
    <path class="cls-3" d="M699.69,188a2.21,2.21,0,0,0-1.21-.77"/>
    <path class="cls-3" d="M700.07,187.38a4,4,0,0,0-1.39-.44"/>
    <path class="cls-3" d="M699,188.44a2.39,2.39,0,0,0-1.41-.6"/>
    <path class="cls-3" d="M689.39,192.44a.37.37,0,0,0-.17-.32"/>
    <path class="cls-3" d="M688.38,192.84a.45.45,0,0,0-.13-.54"/>
    <path class="cls-3" d="M690,192.39a1.67,1.67,0,0,0-.39-.61"/>
    <path class="cls-3" d="M686.93,193.35l-.2-.74"/>
    <path class="cls-3" d="M690.63,192.07a1.33,1.33,0,0,0-.29-.38"/>
    <path class="cls-3" d="M677.41,192.32l.05-.62"/>
    <path class="cls-3" d="M688,193.22a3.23,3.23,0,0,1,0-.82"/>
    <path class="cls-3" d="M684.06,193.6A1.3,1.3,0,0,0,684,193"/>
    <path class="cls-3" d="M677.08,191.86a1,1,0,0,0,.13-.33"/>
    <path class="cls-3" d="M678.76,192.09a2.22,2.22,0,0,0-.29.55"/>
    <path class="cls-3" d="M679.73,192.4a.82.82,0,0,1-.29.78"/>
    <path class="cls-3" d="M683.25,192.86l-.09.41"/>
    <path class="cls-3" d="M682.78,193.31v-.5"/>
    <path class="cls-3" d="M685.88,193.51l-.08-.74"/>
    <path class="cls-3" d="M681.46,193.51v-.74"/>
    <path class="cls-3" d="M680.34,193.27a2.69,2.69,0,0,0,0-.75"/>
    <path class="cls-3" d="M682.18,193.47l0-.7"/>
    <path class="cls-3" d="M698.11,189.42a3,3,0,0,0-.82-1.37"/>
    <path class="cls-3" d="M692,191.94a4.24,4.24,0,0,1-.5-.62"/>
    <path class="cls-3" d="M692.74,191.53a2.14,2.14,0,0,1-.59-.53"/>
    <path class="cls-3" d="M696.75,189.79a2.27,2.27,0,0,0-.51-.94"/>
    <path class="cls-3" d="M695.63,190.71a1.45,1.45,0,0,0-.58-1.12"/>
    <path class="cls-3" d="M693.69,191a1.25,1.25,0,0,1-.42-.49"/>
    <path class="cls-3" d="M694.34,190.63l-.38-.41"/>
    <path class="cls-3" d="M695.08,190.25a.87.87,0,0,0-.16-.62"/>
    <path class="cls-3" d="M676.51,191.41v-.25"/>
    <path class="cls-3" d="M696.2,189.84a2.88,2.88,0,0,0-.49-.67"/>
    <path class="cls-3" d="M684.93,192.85a1,1,0,0,1-.08.5"/>
    <path class="cls-3" d="M698.62,176.42a1.69,1.69,0,0,1-.77,1,5.22,5.22,0,0,1-1.2.55"/>
    <path class="cls-3" d="M699.2,178.06a3.65,3.65,0,0,1-1.22.71"/>
    <path class="cls-3" d="M700.62,178.86a3.1,3.1,0,0,1-2,.35,1.88,1.88,0,0,0,1.76-1.09"/>
    <path class="cls-3" d="M700.06,177.22a5.08,5.08,0,0,1-3,1.12"/>
    <path class="cls-3" d="M696.78,175.84a1.76,1.76,0,0,1-.91,1.4"/>
    <path class="cls-3" d="M697,176.84l-.83.74"/>
    <path class="cls-3" d="M696.12,174.94a2.91,2.91,0,0,1-.21.82,1.73,1.73,0,0,1-1.45,1"/>
    <path class="cls-3" d="M695.56,174.86a2.4,2.4,0,0,1-1.33,1.74"/>
    <path class="cls-3" d="M693.08,172.88a4,4,0,0,1-2.91,2.78"/>
    <path class="cls-3" d="M693.77,173.47a9,9,0,0,1-1.08,1.65,1.4,1.4,0,0,1-.86.58"/>
    <path class="cls-3" d="M698,176.34a2.59,2.59,0,0,1-1.33,1.5"/>
    <path class="cls-3" d="M694.51,174.57a1.93,1.93,0,0,1-1.5,1.58"/>
    <path class="cls-3" d="M706,180c-3.21-2.16-5.89-5-9.22-7-8.35-5-20-3.07-26.57,4l-.21.23"/>
    <path class="cls-3" d="M667,179.22c-.86,1-2.32,2.2-2.6,3.48A10.31,10.31,0,0,0,665,187a21.71,21.71,0,0,0,2.3,5.7c2.06,3.56,5.2,7.33,9.25,8.65"/>
    <path class="cls-3" d="M693.53,259.89c-5.27,8-6.55,17.77-7.15,27.38"/>
    <path class="cls-3" d="M723.11,195.74l.16,9.15a10.21,10.21,0,0,1-.24,3c-1.08,3.79-8.86,6.67-12.14,8.29A30.71,30.71,0,0,0,698,227.75"/>
    <path class="cls-3" d="M692.39,246.74a8.26,8.26,0,0,0,2.81-4.4c.87-3.49.38-7.05,1.33-10.57"/>
    <path class="cls-4" d="M655.61,226.05c.28-.09.57-.18.85-.29l.82-.32a3.9,3.9,0,0,1,.67-.18,3,3,0,0,1,1.77.25,2.67,2.67,0,0,0,.63.25,2.31,2.31,0,0,0-1.6-.88,3.31,3.31,0,0,0-1.71.39,8.78,8.78,0,0,0-.79.44c-.14.07-.27.15-.4.23a3.72,3.72,0,0,0-.38.22l0,0c-.21.18-.43.34-.65.5a5.47,5.47,0,0,1-.73.49,5.79,5.79,0,0,1-.71.34,1.93,1.93,0,0,1-.74.19"/>
    <path class="cls-3" d="M652.53,239.1a4.16,4.16,0,0,1-1.31,1.23,4.91,4.91,0,0,1-2.47.68"/>
    <path class="cls-4" d="M660.53,228.87a3.68,3.68,0,0,0,3.15-1.21,6.09,6.09,0,0,0,1.37-3,11.33,11.33,0,0,0-1.1-8.19l-4.28-6.91"/>
    <path class="cls-3" d="M656,216.29a7.49,7.49,0,0,0-.83-3.78c-2-3.93-2.34-9.44-2.17-13.75.16-4.08-.33-8.12-.17-12.22a50.15,50.15,0,0,1,.57-6.48,33.08,33.08,0,0,1,1.76-6.26"/>
    <path class="cls-3" d="M656.15,217.53a5.08,5.08,0,0,1-1.37,3.6,5.57,5.57,0,0,1-2.74,1.34,9.82,9.82,0,0,1-1.94.25"/>
    <path class="cls-2" d="M802.79,491.71l0-.3c.45-3.25.82-6.5,1.3-9.75l1.51-10.18"/>
    <path class="cls-5" d="M794.91,547c2.2-9.49,2.46-19.57,3.89-29.23l3.84-26"/>
    <path class="cls-5" d="M790.75,564.6c1.35-5.87,2.8-11.73,4.16-17.61"/>
    <path class="cls-5" d="M918.75,837.52a159,159,0,0,1-27.28-70.9"/>
    <path class="cls-5" d="M802.65,488.55c4.91-55.44-46.68-101.15-44.56-155.31"/>
    <path class="cls-4" d="M737.92,180.15a19.81,19.81,0,0,0-2.83,1c-2,1.28-4.21,2-5.45,4.63a19.45,19.45,0,0,0-1,5c-.32,2.45-.55,4.91-.86,7.36-.28,2.1.5,4.18.67,6.3"/>
    <path class="cls-4" d="M724.91,227.7a.85.85,0,0,1-.88.54,2.11,2.11,0,0,1-1.5-.74"/>
    <path class="cls-4" d="M723.06,222.75a6.55,6.55,0,0,1,.14-3.05c1-2.95,3.07-4.88,4.19-7.66a16.17,16.17,0,0,0,.86-4.66,13.5,13.5,0,0,0,0-2.84,21.3,21.3,0,0,1-.81-5,39.67,39.67,0,0,1,.59-6.45c.36-3.16.57-7.11,2.6-9.18a18.36,18.36,0,0,1,7.37-4.28"/>
    <path class="cls-4" d="M733.6,182c1.07,5.21,3,9.18,4.7,14,2.07,5.88-.66,15.37-3.32,20.72l-5.45,11"/>
    <path class="cls-4" d="M726.78,230a1.3,1.3,0,0,0-.29-1.23,1.55,1.55,0,0,1-.27-.24,1.48,1.48,0,0,1-.08-1.18"/>
    <path class="cls-4" d="M738.18,195.06c1.87-5.4,4.23-10.49,2.44-16.36a5.14,5.14,0,0,0-1.31-2.53,11,11,0,0,0-3.39-2.12c-1.44-.52-3.33-.67-4.29.68-4.44,6.22-6,13.65-7.51,21"/>
    <path class="cls-4" d="M723.3,221.74a12.79,12.79,0,0,0,7.28-10.16c.18-1.26.21-2.56.39-3.82.44-3.21,1.84-4.83,3.1-7.39,1.07-2.18.8-5.17-.08-7.55-.83-2.22-2.55-4-4.43-4"/>
    <path class="cls-4" d="M735.2,202.3a34,34,0,0,1-5,17c-.78,1.21-1.73,2-1.68,3.58"/>
    <path class="cls-4" d="M735.18,199.49c0,.93.05,1.87,0,2.81"/>
    <path class="cls-7" d="M648.88,75.7c.67,0,1.33,0,2,0l.35,0c19.22.76,38.52,6.73,53.55,18.74s25.47,30.57,25.79,49.92l.43,27.37c0,1.22,0,2.32,0,3.53a1.08,1.08,0,0,1,0,.18"/>
    <path class="cls-5" d="M676.38,253.86a8.71,8.71,0,0,0-3-6.54"/>
    <path class="cls-7" d="M650.13,252.46a15.65,15.65,0,0,1-2,.2"/>
    <path class="cls-5" d="M648.66,257.33a5.12,5.12,0,0,1,1-.79,9.82,9.82,0,0,1,3.14-1c2.24-.38,4.52-.33,6.77-.59a45.41,45.41,0,0,0,15.32-4.49c-1.51.72-5.58.3-7.42.25-2.85-.09-5.71-.57-8.58-.7a10.2,10.2,0,0,0-3.77.44c-1.17.4-2.22,1.06-3.35,1.53a8.69,8.69,0,0,1-1.64.46"/>
    <path class="cls-5" d="M736.39,1227.13c-1.52,3.22-5.14,4.82-8.55,5.83-10.24,3-21.82,3-31.06-2.34"/>
    <path class="cls-5" d="M920.83,843.08a292,292,0,0,1-17.9-76.22c-3-31.63-4-64.32-16.17-94.14-5.24-12.85-16.79-24.58-18.42-38.06-2.55-21.09,1.83-43.29,2.95-64.56l4.13-77.92a285.58,285.58,0,0,0-1.09-42.88c-1.28-13.1-1.9-28.69-8.08-40.55"/>
    <path class="cls-5" d="M655.8,1628.83c1.67-8.6,4.56-17.14,7.46-25.38a60.84,60.84,0,0,0,3.19-16.8,74.07,74.07,0,0,0,0-8.56c-.09-1.48-1-5.23.66-6.18a3,3,0,0,1,1.49-.28c4.58-.07,9.17-.15,13.75.14"/>
    <path class="cls-5" d="M693,1601.92a43.27,43.27,0,0,1-2.18,12.61q29.17-.52,58.36.74a4.11,4.11,0,0,1-.45-.84l-.48-.86c-.33-.57-.67-1.14-1-1.7-.69-1.13-1.42-2.23-2.18-3.31-1.51-2.18-3.11-4.29-4.71-6.4s-3.18-4.22-4.66-6.4a53.61,53.61,0,0,1-4-6.72,34.87,34.87,0,0,1-2.72-7.39c-.44-1.85.34-3.29,1.19-4.9,1.59-3,3.13-6.25,3.17-9.68a4.62,4.62,0,0,0-.18-1.53c-.58-1.87-3-3.21-4.79-3.58-7.15-1.47-14.33-1.59-21.58-1.44a153.78,153.78,0,0,0-18.2,1.2c-2.89.4-6,.93-6.48,4.37a16.05,16.05,0,0,0,2.4,10.09c1.71,2.68,4.28,4.84,5.64,7.7C692.39,1588.54,693.28,1595.39,693,1601.92Z"/>
    <path class="cls-5" d="M866.08,861.52a59.68,59.68,0,0,0-2.64-16.06c-7.24-22.07-13.7-41-24.06-62.1C830.27,764.8,821.7,746,814.67,726.5c-6.43-17.8-14.46-37-17.47-55.75a77.34,77.34,0,0,1-1.08-15.27c.57-15.22,2.31-29.75,2.34-44.92,0-19.74-2.78-39.3-4.11-59,0-.4,0-.7,0-1.1v-.66"/>
    <path class="cls-2" d="M727.57,347.19q-5.43.85-10.84,1.87c-8.38,1.58-16.77,3.45-25.31,3.82s-17.21-1.08-19,9.55"/>
    <path class="cls-2" d="M804.11,342.72a101.15,101.15,0,0,1-11.15,0q-10.17-.2-20.35.15-7.1.25-14.17.77"/>
    <path class="cls-2" d="M655,353.52a102.63,102.63,0,0,0-.86,10.75,2,2,0,0,1-.66,1.62,2.54,2.54,0,0,1-1.52.32h-2.14"/>
    <path class="cls-2" d="M660.57,364.38a25.83,25.83,0,0,1,4-12.87"/>
    <path class="cls-5" d="M869.41,640.8a150.4,150.4,0,0,0-34.86,5"/>
    <path class="cls-4" d="M822.12,685.56a20.37,20.37,0,0,0,7-16.95"/>
    <path class="cls-4" d="M832.69,667.57a23.5,23.5,0,0,0-18.39-19.31"/>
    <path class="cls-5" d="M661.75,165.92c5.86-4.3,12.58-6.36,19.3-7.33a44.93,44.93,0,0,1,15.43.26,32.08,32.08,0,0,1,10.9,4.42c4.31,2.8,3.51,5.19,4.85,10.28-.59-2.22-3.82-3.87-5.63-4.91a27.54,27.54,0,0,0-7.67-2.93,42,42,0,0,0-5.25-.74,47.5,47.5,0,0,0-18,1.58c-3.06.94-6,2.29-9,3.13a6.67,6.67,0,0,1-4.16.13C661.17,169.3,659.21,165.81,661.75,165.92Z"/>
    <g>
      <path class="cls-10" d="M683.68,183a14.34,14.34,0,0,0-1.15,2.24"/>
      <path class="cls-10" d="M682.72,182.61a25.16,25.16,0,0,0-1.73,2"/>
      <path class="cls-10" d="M684.39,183.3l-.52,2.43"/>
      <path class="cls-10" d="M683.1,182.88,681.75,185"/>
      <path class="cls-10" d="M685.37,183.47l.2,2.16"/>
      <path class="cls-10" d="M682.45,182.58a6.66,6.66,0,0,0-1.82.88"/>
      <path class="cls-10" d="M685.82,183.21a13.22,13.22,0,0,0,1.31,2.08"/>
      <path class="cls-10" d="M686,178.52a12.4,12.4,0,0,1,.38-2.77"/>
      <path class="cls-10" d="M682.28,182.16h-1.74"/>
      <path class="cls-10" d="M686.16,183.15c1.25.68,1.91,2.1,3,3"/>
      <path class="cls-10" d="M685.49,177.91a8.14,8.14,0,0,1,.18-2.51"/>
      <path class="cls-10" d="M688.71,175.78a10.91,10.91,0,0,0-2,2.46,17.74,17.74,0,0,0,1.18-3"/>
      <path class="cls-10" d="M685.09,178.25a20.42,20.42,0,0,1-.5-2.59C684.85,176.7,684.84,177.22,685.09,178.25Z"/>
      <path class="cls-10" d="M686.86,175.21a13.39,13.39,0,0,1-.19,3"/>
      <path class="cls-10" d="M682.14,176c.84,1,1.9,1.19,2.4,2.37a7.52,7.52,0,0,0-1.36-2.56"/>
      <path class="cls-10" d="M682.45,181.68l-2.86-.31"/>
      <path class="cls-10" d="M687.44,179.06a9.84,9.84,0,0,1,2.36-3.25c.15-.13-.59.2-.41.11-.15.09-.21.08-.35.17"/>
      <path class="cls-10" d="M683.82,178.38a9.15,9.15,0,0,0-2.69-2.34"/>
      <path class="cls-10" d="M687.59,179.34a5.4,5.4,0,0,0,.93-.92l2.13-2.42"/>
      <path class="cls-10" d="M683.25,178.4a27.18,27.18,0,0,1-3.13-2.05"/>
      <path class="cls-10" d="M691.34,176.67a22.13,22.13,0,0,0-3.66,3.89"/>
      <path class="cls-10" d="M680.28,176.54c-.35-.15-1.52.06-1.87-.09,1.25.73,2.52,1.44,3.8,2.12a1.49,1.49,0,0,0,.68.23"/>
      <path class="cls-10" d="M692.6,178.07c-1,.22-1.6,1.05-2.4,1.6a4.71,4.71,0,0,1-2.9.69,5.23,5.23,0,0,0,2.21-.63,5.69,5.69,0,0,0,1-.95l1.18-1.32a5.85,5.85,0,0,0,0-.6"/>
      <path class="cls-10" d="M682.79,179.51a5.5,5.5,0,0,1-2.36-1.1c-.7-.49-1.38-1-2-1.55"/>
      <path class="cls-10" d="M692.55,179.32a8.46,8.46,0,0,1-4.73,1.27"/>
      <path class="cls-10" d="M682.39,180.05a9.18,9.18,0,0,0-3.23-1.87"/>
      <path class="cls-10" d="M692.5,180.67a7.54,7.54,0,0,1-1.21.42,10.58,10.58,0,0,1-3.55,0,25.43,25.43,0,0,1,3.17,1.6"/>
      <path class="cls-10" d="M682.69,180.06c-1.11-.3-2.23-.56-3.36-.76"/>
      <path class="cls-10" d="M690.38,183.84a6.89,6.89,0,0,0-2.81-2.46"/>
      <path class="cls-10" d="M689.88,185.31a14.36,14.36,0,0,0-2.73-2.49"/>
      <path class="cls-10" d="M682.54,180.62a8.58,8.58,0,0,1-3-.49"/>
      <path class="cls-10" d="M689.83,184.15a6.12,6.12,0,0,0-2.72-2.1"/>
      <path class="cls-10" d="M692.25,182a4.16,4.16,0,0,1-1.36-.12l-5.15-1.08"/>
      <path class="cls-10" d="M684.79,186.06v-2.6"/>
      <g>
        <path class="cls-11" d="M685,178.09a3,3,0,1,0,3,3A3,3,0,0,0,685,178.09Z"/>
        <path class="cls-12" d="M682,181.07a3,3,0,1,0,3-3A3,3,0,0,0,682,181.07Z"/>
      </g>
    </g>
    <path class="cls-13" d="M684.79,186.15v1.91"/>
    <path class="cls-13" d="M684.1,186.15l-.6,1.39"/>
    <path class="cls-13" d="M682.19,185.1a4.33,4.33,0,0,0-1.39,1.83"/>
    <path class="cls-13" d="M679.08,185.55a19.66,19.66,0,0,1,1.45-1.58C680,184.66,679.58,184.86,679.08,185.55Z"/>
    <path class="cls-13" d="M682.8,185.55l-.6,1.64"/>
    <path class="cls-13" d="M681.34,184.79a3.44,3.44,0,0,0-1.17,1.52"/>
    <path class="cls-13" d="M680.52,183.44l-2.06,1.4"/>
    <path class="cls-13" d="M681.94,185.72a7.43,7.43,0,0,1-.38,1.38"/>
    <path class="cls-13" d="M683.15,186.41a2.44,2.44,0,0,1-.36,1.21"/>
    <path class="cls-13" d="M680.31,184.86a3,3,0,0,1-.64.85"/>
    <path class="cls-13" d="M679.74,183.33a7.18,7.18,0,0,0-1.53,1.27"/>
    <path class="cls-13" d="M685.4,186.58a.94.94,0,0,1,.26.61"/>
    <path class="cls-13" d="M677.36,183.84a7.09,7.09,0,0,1,1.7-.84,10,10,0,0,0,1.13-.58"/>
    <path class="cls-13" d="M679.51,181.3a10.11,10.11,0,0,0-2.62,1.28"/>
    <path class="cls-13" d="M679.33,179.58l-1.65-.07"/>
    <path class="cls-13" d="M679.67,181.71,677.58,183"/>
    <path class="cls-13" d="M679.16,179.92a4.6,4.6,0,0,0-2.26.34"/>
    <path class="cls-13" d="M678.72,178.7h-1"/>
    <path class="cls-13" d="M678.89,180.48a5.66,5.66,0,0,0-2.22.77"/>
    <path class="cls-13" d="M678.28,177.85l-.34-.09"/>
    <path class="cls-13" d="M679,180.71l-1.39.6"/>
    <path class="cls-14" d="M682.18,187l-.19,1.21"/>
    <path class="cls-14" d="M683.49,187.54v1"/>
    <path class="cls-14" d="M681.32,186.41a2.61,2.61,0,0,0-.34,1.39"/>
    <path class="cls-14" d="M680.56,186.33a3,3,0,0,1-.47,1.11"/>
    <path class="cls-14" d="M678.55,184.32a2,2,0,0,0-1.12.53"/>
    <path class="cls-14" d="M677.16,182.61a.65.65,0,0,0-.7.24"/>
    <path class="cls-14" d="M679.85,186.06l-.51,1"/>
    <path class="cls-14" d="M682.62,187.19v1"/>
    <path class="cls-14" d="M679.43,185.3l-.89.84"/>
    <path class="cls-14" d="M678.47,183.05a10,10,0,0,0-1.5,1"/>
    <path class="cls-14" d="M677.09,181.32l-.53.25"/>
    <path class="cls-14" d="M677.6,182.69a2.24,2.24,0,0,0-.7.6"/>
    <path class="cls-14" d="M678.57,184.86a2.63,2.63,0,0,1-.46.68"/>
    <path class="cls-14" d="M679.76,186l-.43.26"/>
    <path class="cls-14" d="M677.75,181.36a6.11,6.11,0,0,0-1.19.9"/>
    <path class="cls-14" d="M677.16,179.8l-.61.19"/>
    <path class="cls-14" d="M682.88,188.15v.34"/>
    <path class="cls-14" d="M677.51,178.7l-.34.17"/>
    <path class="cls-14" d="M676.89,180.42l-.26.44"/>
    <path class="cls-14" d="M677.06,179l-.17.17"/>
    <path class="cls-14" d="M677.42,178.78l-.61.43"/>
    <path class="cls-14" d="M682.7,188a.88.88,0,0,1-.06.62"/>
    <path class="cls-14" d="M678.2,185.37a.39.39,0,0,0-.42.26"/>
    <g>
      <path class="cls-3" d="M691.49,176.5a7.19,7.19,0,0,0-1.11-.84"/>
      <path class="cls-3" d="M691.87,176.88l-.38-.38"/>
      <path class="cls-3" d="M679,176a7.16,7.16,0,0,0-3,5.67c0,4.2,4,7.62,9,7.62s9-3.42,9-7.62a6.89,6.89,0,0,0-2.06-4.83"/>
      <path class="cls-4" d="M667.51,182.82c0-.82,2.42-2.47,3-2.94a21.1,21.1,0,0,1,3.73-2.22A25.23,25.23,0,0,1,679,176a30.41,30.41,0,0,1,4.15-.67,26.47,26.47,0,0,1,7.27.29,17.27,17.27,0,0,1,5.33,1.87c.66.36,7.27,4.24,6.64,4.85"/>
      <path class="cls-3" d="M667.87,183.85a2.12,2.12,0,0,1-.34-.67"/>
      <path class="cls-3" d="M700.94,183.73c-7,6.13-18.33,11.11-26.48,4.7-1.24-1-2.22-2.33-3.67-3a8.12,8.12,0,0,1-2.92-1.62"/>
      <path class="cls-3" d="M701.41,183.29l-.47.44"/>
      <path class="cls-3" d="M701.91,182.82c-.15.15-.32.32-.5.47"/>
    </g>
    <path class="cls-3" d="M667.32,182.71a2.2,2.2,0,0,0,.49,1.92,12.29,12.29,0,0,0,3.47,2.81c1.44,1,2.76,2.15,4.21,3.12a13.21,13.21,0,0,0,4.65,1.84,18.34,18.34,0,0,0,8.68-.37l.26-.07a26.86,26.86,0,0,0,11-6.44c.86-.86,1.52-1.87,2.3-2.8a1.11,1.11,0,0,0,.2-.49c0-.24-.3-.47-.45-.63"/>
    <g>
      <g>
        <path class="cls-15" d="M668.13,182.36a1.32,1.32,0,0,0-.27,1,1.54,1.54,0,0,0,.7.77,11.71,11.71,0,0,0,1.85.82s.07,0,.09,0a3.09,3.09,0,0,1-.71-2.48c0-.54-.19-1.05-.11-1.56a.44.44,0,0,1,0-.15l0,0A16.76,16.76,0,0,0,668.13,182.36Z"/>
        <path class="cls-16" d="M669.68,181c-.08.51.15,1,.11,1.56a3.09,3.09,0,0,0,.71,2.48l0,0a4.16,4.16,0,0,1,.4.3,6.2,6.2,0,0,1,.59.43,6.76,6.76,0,0,1-.51-6c.08-.23.25-.34.37-.57a7.7,7.7,0,0,1-.75.66h0l-.9.91A.44.44,0,0,0,669.68,181Z"/>
        <path class="cls-16" d="M669.91,180.25a1.11,1.11,0,0,0-.21.6l.9-.91C670.37,180,670.09,180,669.91,180.25Z"/>
        <path class="cls-16" d="M670.92,185.38a4.16,4.16,0,0,0-.4-.3A1.64,1.64,0,0,0,670.92,185.38Z"/>
      </g>
      <g>
        <path class="cls-3" d="M670.62,179.94a7.7,7.7,0,0,0,.75-.66c-.12.23-.29.34-.37.57a6.76,6.76,0,0,0,.51,6,6.2,6.2,0,0,0-.59-.43,1.64,1.64,0,0,1-.4-.3"/>
        <path class="cls-3" d="M670.5,185a3.09,3.09,0,0,1-.71-2.48c0-.54-.19-1.05-.11-1.56a.44.44,0,0,1,0-.15,1.11,1.11,0,0,1,.21-.6c.18-.21.46-.21.69-.31"/>
        <path class="cls-3" d="M670.62,179.94h0l-.9.91,0,0a16.76,16.76,0,0,0-1.55,1.49,1.32,1.32,0,0,0-.27,1,1.54,1.54,0,0,0,.7.77,11.71,11.71,0,0,0,1.85.82s.07,0,.09,0l0,0a4.16,4.16,0,0,1,.4.3"/>
      </g>
    </g>
    <path class="cls-3" d="M670.31,185a6.34,6.34,0,0,1-1.82-.86,2.49,2.49,0,0,1-.59-.53,1.07,1.07,0,0,1-.2-.75,2,2,0,0,0,.14-.64"/>
    <path class="cls-3" d="M667.83,182c-.37.33-.73.8-.48,1.32"/>
    <path class="cls-3" d="M699.69,188a2.21,2.21,0,0,0-1.21-.77h-.17l-.14,0"/>
    <path class="cls-3" d="M700.07,187.38a4,4,0,0,0-1.39-.44h-.12"/>
    <path class="cls-3" d="M699,188.44a2.39,2.39,0,0,0-1.41-.6l-.11,0"/>
    <path class="cls-3" d="M689.39,192.44a.37.37,0,0,0-.17-.32s-.11-.06-.13-.09"/>
    <path class="cls-3" d="M688.38,192.84a.45.45,0,0,0-.13-.54"/>
    <path class="cls-3" d="M690,192.39a1.67,1.67,0,0,0-.39-.61"/>
    <path class="cls-3" d="M686.93,193.35l-.2-.74"/>
    <path class="cls-3" d="M690.63,192.07a1.33,1.33,0,0,0-.29-.38"/>
    <path class="cls-3" d="M677.41,192.32l.05-.62"/>
    <path class="cls-3" d="M688,193.22a3.23,3.23,0,0,1,0-.82"/>
    <path class="cls-3" d="M684.06,193.6A1.3,1.3,0,0,0,684,193c0-.06,0-.09,0-.15"/>
    <path class="cls-3" d="M677.08,191.86a1,1,0,0,0,.13-.33"/>
    <path class="cls-3" d="M678.76,192.09a2.22,2.22,0,0,0-.29.55"/>
    <path class="cls-3" d="M679.73,192.4a.82.82,0,0,1-.29.78"/>
    <path class="cls-3" d="M683.25,192.86l-.09.41"/>
    <path class="cls-3" d="M682.78,193.31v-.5"/>
    <path class="cls-3" d="M685.88,193.51l-.08-.74"/>
    <path class="cls-3" d="M681.46,193.51v-.74"/>
    <path class="cls-3" d="M680.34,193.27a2.69,2.69,0,0,0,0-.75"/>
    <path class="cls-3" d="M682.18,193.47l0-.7"/>
    <path class="cls-3" d="M698.11,189.42a3,3,0,0,0-.82-1.37"/>
    <path class="cls-3" d="M692,191.94a4.24,4.24,0,0,1-.5-.62l-.1-.07"/>
    <path class="cls-3" d="M692.74,191.53a2.14,2.14,0,0,1-.59-.53"/>
    <path class="cls-3" d="M696.75,189.79a2.27,2.27,0,0,0-.51-.94s-.06-.1-.12-.12"/>
    <path class="cls-3" d="M695.63,190.71a1.45,1.45,0,0,0-.58-1.12"/>
    <path class="cls-3" d="M693.69,191a1.25,1.25,0,0,1-.42-.49c0-.06,0-.12-.06-.18"/>
    <path class="cls-3" d="M694.34,190.63l-.38-.41a1.21,1.21,0,0,0-.1-.14"/>
    <path class="cls-3" d="M695.08,190.25a.87.87,0,0,0-.16-.62"/>
    <path class="cls-3" d="M676.51,191.41v-.25"/>
    <path class="cls-3" d="M696.2,189.84a2.88,2.88,0,0,0-.49-.67s-.07-.09-.12-.11"/>
    <path class="cls-3" d="M684.93,192.85a1,1,0,0,1-.08.5"/>
    <path class="cls-3" d="M698.62,176.42a1.69,1.69,0,0,1-.77,1,5.22,5.22,0,0,1-1.2.55"/>
    <path class="cls-3" d="M699.2,178.06a3.65,3.65,0,0,1-1.22.71"/>
    <path class="cls-3" d="M700.62,178.86a3.1,3.1,0,0,1-2,.35,1.88,1.88,0,0,0,1.76-1.09"/>
    <path class="cls-3" d="M700.06,177.22a5.08,5.08,0,0,1-3,1.12"/>
    <path class="cls-3" d="M696.78,175.84a1.76,1.76,0,0,1-.91,1.4l-.2.07"/>
    <path class="cls-3" d="M697,176.84l-.83.74"/>
    <path class="cls-3" d="M696.12,174.94a2.91,2.91,0,0,1-.21.82,1.73,1.73,0,0,1-1.45,1"/>
    <path class="cls-3" d="M695.56,174.86a2.4,2.4,0,0,1-1.33,1.74"/>
    <path class="cls-3" d="M693.08,172.88c-.34,1.2-1.48,2.63-2.84,2.64"/>
    <path class="cls-3" d="M693.77,173.47a9,9,0,0,1-1.08,1.65,1.4,1.4,0,0,1-.86.58l-.33,0a.63.63,0,0,0-.19,0"/>
    <path class="cls-3" d="M698,176.34a2.59,2.59,0,0,1-1.33,1.5"/>
    <path class="cls-3" d="M694.51,174.57a1.93,1.93,0,0,1-1.5,1.58"/>
    <path class="cls-3" d="M706,180c-3.21-2.16-5.89-5-9.22-7-8.35-5-20-3.07-26.57,4l-.21.23"/>
    <path class="cls-3" d="M667,179.22c-.86,1-2.32,2.2-2.6,3.48A10.31,10.31,0,0,0,665,187a21.71,21.71,0,0,0,2.3,5.7c2.06,3.56,5.2,7.33,9.25,8.65"/>
    <path class="cls-3" d="M693.53,259.89c-5.27,8-6.55,17.77-7.15,27.38"/>
    <path class="cls-3" d="M723.11,195.74l.16,9.15a10.21,10.21,0,0,1-.24,3c-1.08,3.79-8.86,6.67-12.14,8.29A30.71,30.71,0,0,0,698,227.75"/>
    <path class="cls-3" d="M692.39,246.74a8.26,8.26,0,0,0,2.81-4.4c.87-3.49.38-7.05,1.33-10.57"/>
    <path class="cls-4" d="M660.53,228.87a3.68,3.68,0,0,0,3.15-1.21,6.09,6.09,0,0,0,1.37-3,11.33,11.33,0,0,0-1.1-8.19l-4.28-6.91"/>
    <path class="cls-3" d="M656,216.29a7.49,7.49,0,0,0-.83-3.78c-2-3.93-2.34-9.44-2.17-13.75.16-4.08-.33-8.12-.17-12.22a50.15,50.15,0,0,1,.57-6.48,33.08,33.08,0,0,1,1.76-6.26"/>
    <path class="cls-3" d="M656.15,217.53a5.08,5.08,0,0,1-1.37,3.6,5.57,5.57,0,0,1-2.74,1.34,9.82,9.82,0,0,1-1.94.25"/>
    <path class="cls-4" d="M659.67,272.42a24.89,24.89,0,0,0-10.47-2.34h-.75"/>
    <path class="cls-5" d="M790.75,564.6c1.35-5.87,2.8-11.73,4.16-17.61"/>
    <path class="cls-5" d="M803.41,983.48A279.88,279.88,0,0,1,801,1013c-1.65,11.16-2.51,22.19-4.52,33.3a340.27,340.27,0,0,1-8.21,33.47q-7.37,25.62-16,50.84c-5.5,16-14.83,34.72-13.74,51.81,1.14,17.92.8,36-3.33,53.51-2.12,9-.48,20.18.11,29.49.9,14.18,6.77,28.59,11.21,42.08,4.79,14.58,10.41,30.46,11,45.84.78,22-4.35,43.57-10.8,64.45-4.83,15.67-8.33,31.22-13.8,46.63-4.16,11.71-8.16,23.39-11.5,35.24-3.54,12.6-8.46,24.5-10.51,37.54-.52,3.28-.79,6.58-1.1,9.88a97.92,97.92,0,0,0-.14,14.93"/>
    <path class="cls-5" d="M665.49,986.17c-1.64,14.44,4.22,27.71,4.38,41.8.22,18.72-2.07,37.79-2.84,56.52q-2.25,55.29-2.52,110.63c-.11,24.27,9.24,44.39,9.3,68.07a401.42,401.42,0,0,1-2.08,46.65c-2.47,21.62-7.27,42.94-8.77,64.67-1.14,16.45-2.62,33.7.4,50,3.3,17.84,8,35.58,8.2,53.83.25,19.08.77,38.22.85,57.31.05,11.74.16,23.47.16,35.19v.67"/>
    <path class="cls-5" d="M674,1264.64a124,124,0,0,1,9.36,47.91"/>
    <path class="cls-5" d="M673.81,1264.14c.07.16.14.33.2.5"/>
    <path class="cls-2" d="M918.75,837.52a159,159,0,0,1-27.28-70.9"/>
    <path class="cls-2" d="M794.1,424.12c-8.39-8.6-14.71-19.42-19.69-30.27L766,375.38"/>
    <path class="cls-2" d="M798,470.07a48.08,48.08,0,0,1,3.15,10.43c.36,1.92.69,3.84.94,5.78a30.07,30.07,0,0,1,.43,5.68"/>
    <path class="cls-17" d="M728.35,203.86a2,2,0,0,1,0,1.13"/>
    <path class="cls-4" d="M737.5,180.32a10.15,10.15,0,0,0-2.41.88c-2,1.28-4.21,2-5.45,4.63a19.45,19.45,0,0,0-1,5c-.32,2.45-.55,4.91-.86,7.36-.25,1.88.35,3.74.6,5.64"/>
    <path class="cls-17" d="M737.5,180.32a3.69,3.69,0,0,0,.42-.17.35.35,0,0,0,0-.38"/>
    <path class="cls-4" d="M724.91,227.7a.85.85,0,0,1-.88.54,2.11,2.11,0,0,1-1.5-.74"/>
    <path class="cls-4" d="M723.06,222.75a6.55,6.55,0,0,1,.14-3.05c1-2.95,3.07-4.88,4.19-7.66a16.17,16.17,0,0,0,.86-4.66,13.5,13.5,0,0,0,0-2.84,21.3,21.3,0,0,1-.81-5,39.67,39.67,0,0,1,.59-6.45c.36-3.16.57-7.11,2.6-9.18a18.36,18.36,0,0,1,7.37-4.28"/>
    <path class="cls-5" d="M733.74,182.58c1.09,4.9,3,8.74,4.56,13.32,2.07,5.88-.66,15.37-3.32,20.72l-5.45,11"/>
    <path class="cls-7" d="M733.74,182.58c0-.21-.09-.42-.14-.63s0-.13-.05-.2a.36.36,0,0,1,0-.1"/>
    <path class="cls-4" d="M726.78,230a1.3,1.3,0,0,0-.29-1.23,1.55,1.55,0,0,1-.27-.24,1.48,1.48,0,0,1-.08-1.18"/>
    <path class="cls-5" d="M717.69,239.14a2.36,2.36,0,0,0,.33.7c1.74,2.51,6.26,1,8.17-.53,2.47-1.93,2.59-4.32,2.94-7.15a60.48,60.48,0,0,0,.41-7.24"/>
    <path class="cls-8" d="M717.61,238.73c0,.14,0,.27.08.41"/>
    <path class="cls-5" d="M738.18,195.06c1.87-5.4,4.23-10.49,2.44-16.36a5.14,5.14,0,0,0-1.31-2.53,11,11,0,0,0-3.39-2.12c-1.44-.52-3.33-.67-4.29.68-4.44,6.22-6,13.65-7.51,21-.11.55-.31,1.12-.46,1.67"/>
    <path class="cls-4" d="M729.56,188.83c1.88,0,3.6,1.77,4.43,4,.88,2.38,1.15,5.37.08,7.55-1.26,2.56-2.66,4.18-3.1,7.39-.18,1.26-.21,2.56-.39,3.82a13.88,13.88,0,0,1-3,6.93,12.91,12.91,0,0,1-4.43,3.35"/>
    <path class="cls-4" d="M735.2,202.3a34,34,0,0,1-5,17c-.78,1.21-1.73,2-1.68,3.58"/>
    <path class="cls-4" d="M735.18,199.49c0,.93.05,1.87,0,2.81"/>
    <path class="cls-2" d="M651.23,117h.17c4.68-.06,9.36,0,14,0a81.88,81.88,0,0,0,11.62-.6c1.52-.23,3-.54,4.55-.75a37.5,37.5,0,0,1,22.66,4.51A37.06,37.06,0,0,1,716,130.13a41.58,41.58,0,0,1,3.87,6.35c1.27,2.35,2.67,4.78,2.7,7.53.11,7.69,1.38,16.36-.45,23.74-2,8.25-.43,15.91.72,24.19,2,14.48-.23,30.53-4.8,44-2.4,11.53-5.32,21.49-12.69,31.14-5.62,7.38-12.39,13.78-19.14,20.14a96.34,96.34,0,0,1-9.75,8.42,48.87,48.87,0,0,1-27.09,9.13h-1"/>
    <path class="cls-4" d="M649.09,266.64c.5,0,1,0,1.5,0a29.09,29.09,0,0,0,9.95-2.07c4.15-1.82,7.47-5,10.42-8.37l.43-.45.63-.64c.24-.26.49-.51.73-.78s.51-.56.75-.86.48-.58.69-.88a7.86,7.86,0,0,0,.54-.87,3.19,3.19,0,0,0,.29-.78,1.27,1.27,0,0,0,0-.67,1.11,1.11,0,0,0-.69-.56,3.84,3.84,0,0,0-1.07-.15c-3.3-.06-6.27-1.67-9.06-3.28a51.9,51.9,0,0,0-5.26-2.8c-1.7-.72-3.95-1.52-5.82-1.14-1.55.32-2.85,1.33-4.36,1.73a1.63,1.63,0,0,1-.5.07"/>
    <path class="cls-5" d="M648.83,256.51a5.56,5.56,0,0,1,.81-.48,1.75,1.75,0,0,1,.32-.12,25.85,25.85,0,0,1,2.86-.81,22.93,22.93,0,0,1,4.82-.58,21.2,21.2,0,0,0,4.9-.46c.48-.12,1-.27,1.43-.38a20.83,20.83,0,0,0,2.84-.63,16.63,16.63,0,0,1,2.06-.86c.84-.21,1.69-.39,2.53-.59a8.52,8.52,0,0,0-1.59-.12,4.13,4.13,0,0,0-.75.19A58.78,58.78,0,0,1,659,254.2a33.23,33.23,0,0,0-3.72.64"/>
    <line class="cls-3" x1="651.95" y1="255.18" x2="648.35" y2="255.18"/>
    <path class="cls-3" d="M661.78,250.5a.6.6,0,0,0-.25.49,1.24,1.24,0,0,0-.09-.33.42.42,0,0,0-.25-.22,2.18,2.18,0,0,1,.57,0"/>
    <path class="cls-3" d="M658.87,250.37a.65.65,0,0,0-.24.5.91.91,0,0,0-.1-.33.35.35,0,0,0-.25-.22,1.89,1.89,0,0,1,.58,0"/>
    <path class="cls-3" d="M655.42,251.13a.7.7,0,0,1,.18-.41,1.13,1.13,0,0,0-.32,0,1.26,1.26,0,0,1,.16.33"/>
    <line class="cls-3" x1="651.9" y1="255.08" x2="648.35" y2="255.1"/>
    <path class="cls-18" d="M648.34,258.17a.47.47,0,0,1-.32.19c-.09,0,0-.81.05-.89a9.48,9.48,0,0,0,0-1.07c0,.22.28.51.44.66a3.78,3.78,0,0,0,.33.22c.18.15.15.21,0,.37s-.24.25-.37.36Z"/>
    <line class="cls-3" x1="648" y1="258.32" x2="648" y2="252.49"/>
    <path class="cls-3" d="M670.47,185.18a3,3,0,0,1-.62-.21"/>
    <path class="cls-3" d="M667.48,183.23a.8.8,0,0,1-.05-.34"/>
    <path class="cls-3" d="M670.19,180.08l-.32.29"/>
    <g>
      <path class="cls-4" d="M679,176.06a7.07,7.07,0,0,0-3,5.67c0,4.2,4,7.6,9,7.6s9-3.4,9-7.6a7.27,7.27,0,0,0-3.53-6.07"/>
      <path class="cls-3" d="M702,182.74c-6.83,6.57-19,12.45-27.56,5.71-1.23-1-2.22-2.33-3.67-3-1.18-.51-2.81-1.05-3.19-2.15"/>
    </g>
    <path class="cls-17" d="M718,239.26a3.53,3.53,0,0,1-.09-2.06c.13-.55.18-1.17.36-1.7"/>
    <path class="cls-17" d="M724,196.65a3.93,3.93,0,0,1-.06.69,14,14,0,0,1-.46,1.52"/>
    <line class="cls-19" x1="648.39" y1="304.82" x2="647.9" y2="304.82"/>
    <line class="cls-5" x1="648.34" y1="905.41" x2="647.91" y2="905.41"/>
    <line class="cls-5" x1="650.09" y1="803.38" x2="647.88" y2="803.38"/>
    <line class="cls-5" x1="650.58" y1="430.38" x2="647.89" y2="430.36"/>
    <line class="cls-5" x1="648.88" y1="75.7" x2="647.88" y2="75.7"/>
    <line class="cls-2" x1="651.23" y1="117.03" x2="647.88" y2="117.04"/>
    <line class="cls-4" x1="649.09" y1="266.64" x2="647.88" y2="266.64"/>
    <line class="cls-4" x1="648.45" y1="270.07" x2="647.88" y2="270.07"/>
    <line class="cls-20" x1="648" y1="252.49" x2="648" y2="252.17"/>
    <line class="cls-20" x1="648.16" y1="252.28" x2="647.85" y2="252.28"/>
    <line class="cls-4" x1="648.22" y1="244.1" x2="647.9" y2="244.11"/>
    <path class="cls-5" d="M688.07,1580.85a78.17,78.17,0,0,1-21.09-1.57"/>
    <path class="cls-2" d="M729.15,1581.84c-13-.51-25.86-.49-38.86,2.1"/>
    <path class="cls-2" d="M869.18,639.87l-23.8-13.19"/>
    <path class="cls-3" d="M652.42,238.13a9.4,9.4,0,0,1-2.51-7.12"/>
    <line class="cls-3" x1="648.75" y1="241.01" x2="647.88" y2="241.01"/>
    <line class="cls-4" x1="650.26" y1="228.05" x2="647.9" y2="228.05"/>
    <line class="cls-3" x1="648" y1="258.32" x2="648" y2="252.49"/>
    <line class="cls-5" x1="648.34" y1="905.41" x2="647.91" y2="905.41"/>
    <line class="cls-20" x1="648" y1="252.49" x2="648" y2="252.17"/>
    <line class="cls-20" x1="647.84" y1="252.28" x2="648.15" y2="252.28"/>
    <line class="cls-4" x1="647.78" y1="244.1" x2="648.1" y2="244.11"/>
    <path class="cls-3" d="M654,227.41a2.68,2.68,0,0,0-.33.18,2.11,2.11,0,0,1-1.21.2"/>
    <path class="cls-4" d="M659.76,226.89c.56,0,.94-1,.69-1.61s-1.66-.85-2.14-.84c-1.33,0-2.53,1-3.67,2a6.38,6.38,0,0,1-4.38,1.63"/>
    <path class="cls-5" d="M655.8,1628.83c-1.77,9.11-2.17,18.28.24,27.21,1.28,4.73,4.2,11.22,9.09,11.22h84.63c5.85-1.67,11.8-3.44,17.12-6.41s10-7.36,12.24-13c2.51-6.5,1.38-14-1.5-20.3s-7.38-11.8-11.82-17.17c-6.39-7.72-13.53-16-19.92-23.73l-3.48-4.2a23.56,23.56,0,0,1-3.24-4.22c-.79-1.6-.94-3.74-1.44-5.48a1.25,1.25,0,0,0-.3-.61,1.31,1.31,0,0,0-.81-.24c-1.41-.08-2.8,0-4.19,0"/>
  </g>
</svg>
