<svg id="Layer_1" data-name="Layer 1" xmlns="http://www.w3.org/2000/svg" width="1296" height="1728" viewBox="0 0 1296 1728">
  <defs>
    <style>
      .cls-1, .cls-2 {
        fill: #fff;
      }

      .cls-1, .cls-10, .cls-11, .cls-12, .cls-13, .cls-2, .cls-3, .cls-6, .cls-7, .cls-8, .cls-9 {
        stroke: #000;
        stroke-miterlimit: 10;
      }

      .cls-1 {
        stroke-width: 6px;
      }

      .cls-2 {
        stroke-width: 7px;
      }

      .cls-10, .cls-11, .cls-12, .cls-13, .cls-3, .cls-6, .cls-7, .cls-8, .cls-9 {
        fill: none;
      }

      .cls-3 {
        stroke-width: 3px;
      }

      .cls-4 {
        font-size: 36px;
        font-family: MyriadPro-Regular, Myriad Pro;
      }

      .cls-5 {
        letter-spacing: -0.01em;
      }

      .cls-7 {
        opacity: 0.5;
      }

      .cls-8 {
        opacity: 0.4;
      }

      .cls-9 {
        opacity: 0.3;
      }

      .cls-10 {
        opacity: 0.2;
      }

      .cls-11 {
        opacity: 0.1;
      }

      .cls-12 {
        opacity: 0.05;
      }

      .cls-13 {
        opacity: 0.06;
      }
    </style>
  </defs>
  <path class="cls-1" d="M1187.87,403.06c-37.59,0-68.07,39.92-68.07,89.17s30.48,89.17,68.07,89.17,68.06-39.93,68.06-89.17S1225.46,403.06,1187.87,403.06Z"/>
  <path class="cls-2" d="M117.05,70.22C79.46,70.22,49,110.14,49,159.39s30.47,89.16,68.06,89.16,68.07-39.92,68.07-89.16S154.64,70.22,117.05,70.22Z"/>
  <line class="cls-3" x1="385.12" y1="374" x2="386.59" y2="374"/>
  <path d="M116.57,148.29l-3.12,18.8a3.11,3.11,0,0,0,2.1,3.69,46.14,46.14,0,0,0,19.72,2.78,3.08,3.08,0,0,0,3-3,3,3,0,0,0-3-3A41.79,41.79,0,0,1,117.14,165l2.1,3.69,3.11-18.8a3.09,3.09,0,0,0-2.09-3.69,3,3,0,0,0-3.69,2.09Z"/>
  <path d="M99.83,200.64l39.68-1.93a3.06,3.06,0,0,0,3-3,3,3,0,0,0-3-3l-39.68,1.93a3,3,0,1,0,0,6Z"/>
  <text class="cls-4" transform="translate(16 47.25)">7 P<tspan class="cls-5" x="45.25" y="0">T</tspan><tspan x="62.93" y="0">S</tspan></text>
  <text class="cls-4" transform="translate(16 375.29)">6 P<tspan class="cls-5" x="45.25" y="0">T</tspan><tspan x="62.93" y="0">S</tspan></text>
  <ellipse class="cls-6" cx="119.75" cy="225.47" rx="15.52" ry="8.82"/>
  <path class="cls-2" d="M297.66,70.22c-37.59,0-68.07,39.92-68.07,89.17s30.48,89.16,68.07,89.16,68.06-39.92,68.06-89.16S335.25,70.22,297.66,70.22Z"/>
  <path d="M297.17,148.29l-3.11,18.8a3.11,3.11,0,0,0,2.09,3.69,46.17,46.17,0,0,0,19.72,2.78,3.08,3.08,0,0,0,3-3,3,3,0,0,0-3-3A41.75,41.75,0,0,1,297.75,165l2.09,3.69,3.12-18.8a3.09,3.09,0,0,0-2.1-3.69,3,3,0,0,0-3.69,2.09Z"/>
  <path d="M280.43,200.64l39.69-1.93a3,3,0,0,0,0-6l-39.69,1.93a3,3,0,0,0,0,6Z"/>
  <ellipse class="cls-7" cx="300.36" cy="225.47" rx="15.52" ry="8.82"/>
  <path class="cls-2" d="M478.26,70.73c-37.59,0-68.06,39.92-68.06,89.17s30.47,89.17,68.06,89.17,68.07-39.93,68.07-89.17S515.85,70.73,478.26,70.73Z"/>
  <path d="M477.78,148.81l-3.12,18.8a3.12,3.12,0,0,0,2.1,3.69,46.14,46.14,0,0,0,19.72,2.77,3.08,3.08,0,0,0,3-3,3,3,0,0,0-3-3,41.66,41.66,0,0,1-18.13-2.56l2.1,3.69,3.11-18.8a3.09,3.09,0,0,0-2.09-3.69c-1.44-.39-3.43.49-3.69,2.1Z"/>
  <path d="M461,201.15l39.68-1.93a3.06,3.06,0,0,0,3-3,3,3,0,0,0-3-3L461,195.15a3.06,3.06,0,0,0-3,3,3,3,0,0,0,3,3Z"/>
  <ellipse class="cls-8" cx="480.96" cy="225.98" rx="15.52" ry="8.82"/>
  <path class="cls-2" d="M658.87,71.24c-37.59,0-68.07,39.92-68.07,89.17s30.48,89.17,68.07,89.17,68.06-39.92,68.06-89.17S696.46,71.24,658.87,71.24Z"/>
  <path d="M658.38,149.32l-3.11,18.8a3.11,3.11,0,0,0,2.09,3.69,46,46,0,0,0,19.72,2.77,3.08,3.08,0,0,0,3-3,3,3,0,0,0-3-3A41.6,41.6,0,0,1,659,166l2.09,3.69,3.12-18.8a3.1,3.1,0,0,0-2.1-3.69,3,3,0,0,0-3.69,2.1Z"/>
  <path d="M641.65,201.66l39.68-1.92a3.07,3.07,0,0,0,3-3,3,3,0,0,0-3-3l-39.68,1.92a3.06,3.06,0,0,0-3,3,3,3,0,0,0,3,3Z"/>
  <ellipse class="cls-9" cx="661.57" cy="226.49" rx="15.52" ry="8.82"/>
  <path class="cls-2" d="M839.47,70.22c-37.59,0-68.06,39.92-68.06,89.17s30.47,89.16,68.06,89.16,68.07-39.92,68.07-89.16S877.07,70.22,839.47,70.22Z"/>
  <path d="M839,148.29l-3.12,18.8a3.11,3.11,0,0,0,2.1,3.69,46.17,46.17,0,0,0,19.72,2.78,3.08,3.08,0,0,0,3-3,3,3,0,0,0-3-3A41.81,41.81,0,0,1,839.56,165l2.1,3.69,3.11-18.8a3.08,3.08,0,0,0-2.09-3.69,3,3,0,0,0-3.69,2.09Z"/>
  <path d="M822.25,200.64l39.68-1.93a3.06,3.06,0,0,0,3-3,3,3,0,0,0-3-3l-39.68,1.93a3,3,0,0,0,0,6Z"/>
  <ellipse class="cls-10" cx="842.17" cy="225.47" rx="15.52" ry="8.82"/>
  <path class="cls-2" d="M1020.08,70.22c-37.59,0-68.07,39.92-68.07,89.17s30.48,89.16,68.07,89.16,68.07-39.92,68.07-89.16S1057.67,70.22,1020.08,70.22Z"/>
  <path d="M1019.59,148.29l-3.11,18.8a3.11,3.11,0,0,0,2.1,3.69,46.1,46.1,0,0,0,19.71,2.78,3.08,3.08,0,0,0,3-3,3,3,0,0,0-3-3,41.75,41.75,0,0,1-18.12-2.56l2.1,3.69,3.11-18.8a3.09,3.09,0,0,0-2.1-3.69,3,3,0,0,0-3.69,2.09Z"/>
  <path d="M1002.86,200.64l39.68-1.93a3.06,3.06,0,0,0,3-3,3,3,0,0,0-3-3l-39.68,1.93a3,3,0,0,0,0,6Z"/>
  <ellipse class="cls-11" cx="1022.78" cy="225.47" rx="15.52" ry="8.82"/>
  <path class="cls-2" d="M1200.68,71.24c-37.59,0-68.06,39.92-68.06,89.17s30.47,89.17,68.06,89.17,68.07-39.92,68.07-89.17S1238.28,71.24,1200.68,71.24Z"/>
  <path d="M1200.2,149.32l-3.11,18.8a3.11,3.11,0,0,0,2.09,3.69,46,46,0,0,0,19.72,2.77,3.08,3.08,0,0,0,3-3,3,3,0,0,0-3-3,41.6,41.6,0,0,1-18.12-2.56l2.09,3.69,3.11-18.8a3.08,3.08,0,0,0-2.09-3.69c-1.44-.39-3.43.49-3.69,2.1Z"/>
  <path d="M1183.46,201.66l39.69-1.92a3.08,3.08,0,0,0,3-3,3,3,0,0,0-3-3l-39.69,1.92a3,3,0,0,0,0,6Z"/>
  <ellipse class="cls-12" cx="1203.38" cy="226.49" rx="15.52" ry="8.82"/>
  <ellipse class="cls-13" cx="1102.72" cy="574.93" rx="15.52" ry="8.82"/>
  <path d="M88.26,282.46,85,300a1.53,1.53,0,0,0,1,1.84,1.5,1.5,0,0,0,1.84-1l3.29-17.59a1.54,1.54,0,0,0-1.05-1.84,1.51,1.51,0,0,0-1.84,1Z"/>
  <path d="M104.92,284.32c-3.23,2.27-3.65,6.8-1.63,10.06,2.37,3.81,7.39,4.58,11.42,3.38,4.68-1.4,8-5.18,11-8.83,1.46-1.78,3.06-4.36,1.16-6.46-1.49-1.63-4.28-1.76-6.33-1.87a25.3,25.3,0,0,0-15.39,4.21c-1.59,1.07-.09,3.67,1.52,2.59A22.38,22.38,0,0,1,117,283.66a21.61,21.61,0,0,1,5.45.14c.58.09,1.66.14,2.09.6s-.24,1.47-.58,1.92c-2.14,2.91-4.82,5.94-8,7.69-2.66,1.46-6.48,2-9,0-2-1.54-2.82-5.48-.5-7.12,1.57-1.11.07-3.71-1.51-2.59Z"/>
  <path d="M155.12,280.14c-4.78.17-10.13.44-14,3.7-3,2.58-4.75,7.28-2.92,11,1.94,4,6.69,4.61,10.56,3.51a19.32,19.32,0,0,0,5.6-2.65,16.34,16.34,0,0,0,5-4.95,7,7,0,0,0,.27-7,5.38,5.38,0,0,0-6-2.87,1.51,1.51,0,0,0,.8,2.9c1.25-.34,2.31.72,2.77,1.81a4.34,4.34,0,0,1-.81,4.26,16.32,16.32,0,0,1-8.22,5.55c-2.54.77-5.94.9-7.33-1.85-1.3-2.55.25-5.83,2.26-7.53,3.19-2.71,8-2.76,11.93-2.9,1.93-.06,1.94-3.06,0-3Z"/>
  <path d="M286.53,276.13l-27.63-2.25-6.72-.54a26.5,26.5,0,0,0-6.35-.26,6.23,6.23,0,0,0-5.1,5.48,17.82,17.82,0,0,0,1.74,9.7,1.45,1.45,0,0,0,1.29.74l11.45-.21,5.6-.11c1.46,0,3.19-.12,4.46.72,2,1.36,1,4.42-.47,5.77-2.35,2.13-6.14,1.82-9.05,1.58-1.93-.15-1.92,2.85,0,3,3.78.31,8.2.3,11.17-2.46,2.23-2.07,3.31-5.78,1.75-8.55-2-3.59-6.8-3.08-10.29-3l-14.62.27,1.3.74c-1.11-2.53-2.24-6.27-1-9,.64-1.43,2-1.83,3.43-1.8,2.57,0,5.15.39,7.71.6l31.36,2.55c1.92.15,1.91-2.85,0-3Z"/>
  <path d="M315.55,274.45c-6.17.77-12.82,1.81-16.77,7.17a10.3,10.3,0,0,0-2,8A10.51,10.51,0,0,0,301.2,296c5.46,3.91,12.37,2.61,18.36.86,2.88-.84,5.5-1.71,6.61-4.77a11.58,11.58,0,0,0-.49-8.11,15.93,15.93,0,0,0-14-9.9c-1.93-.06-1.93,2.94,0,3A12.8,12.8,0,0,1,322,283.29a11.06,11.06,0,0,1,1.7,6,5.13,5.13,0,0,1-.79,2.78c-.74,1.06-2,1.35-3.22,1.7-4.81,1.43-10.5,3.12-15.29.72-4-2-6.1-6.26-3.65-10.37,3-5.08,9.47-6,14.82-6.63,1.89-.24,1.92-3.24,0-3Z"/>
  <path d="M442.44,275.47l.38,8.93c0,1,1.28,2,2.25,1.3l16.15-12.13c3.29-2.46,10.08-7.15,6.62-12a1.52,1.52,0,0,0-2.8.76,87.28,87.28,0,0,0,4.53,35.41c.63,1.81,3.53,1,2.9-.8A84.93,84.93,0,0,1,468,262.29l-2.79.75c1.19,1.69-.38,3.56-1.58,4.78a55.52,55.52,0,0,1-6.35,5l-13.76,10.33,2.26,1.29-.38-8.93c-.08-1.92-3.08-1.93-3,0Z"/>
  <path d="M478.85,276.34c-1.11,7.78,6.66,13.84,14,13.31a17.6,17.6,0,0,0,15.35-13.11c1.56-6.59-1.84-12.94-7.65-16.12-5.48-3-12.42-3.07-17.38,1-6.59,5.38-7.35,15-7,22.85.1,1.92,3.1,1.93,3,0-.3-6-.06-12.71,3.42-17.85A11.78,11.78,0,0,1,496,261.77c4.72,1.34,9,5.19,9.55,10.28.6,6-3.79,11.75-9.24,13.8a11.32,11.32,0,0,1-9.66-.56c-2.84-1.6-5.39-4.69-4.9-8.15a1.56,1.56,0,0,0-1-1.85,1.51,1.51,0,0,0-1.85,1Z"/>
  <path d="M628.76,274.22c2.16-1.29,4.79-.43,6.5,1.24,2.09,2.05,2.3,5,1.33,7.66-2.41,6.67-10,8.82-16.1,10.55l.8,2.89c4.72-1.81,9.44-3.64,14.17-5.42,2.13-.8,4.13-1.32,5.52.87a10.77,10.77,0,0,1,1.46,4.76,16.59,16.59,0,0,1-9.77,16.59c-1.77.75-.24,3.34,1.52,2.59a19.31,19.31,0,0,0,11.08-14.78,17.23,17.23,0,0,0-1-9.42A7.53,7.53,0,0,0,641,288a7,7,0,0,0-5.68,0c-5,1.77-9.89,3.77-14.82,5.66-1.77.67-1.1,3.42.8,2.89,7.63-2.15,17.08-5.47,18.67-14.43a9.61,9.61,0,0,0-3.43-9.52,8.24,8.24,0,0,0-9.28-1,1.5,1.5,0,0,0,1.51,2.59Z"/>
  <path d="M667.3,278.86c2.73,10-2.94,20.41,1,30.29a13.57,13.57,0,0,0,8.53,8.28,16.25,16.25,0,0,0,11-.91,18.13,18.13,0,0,0,8.56-7.43A23.87,23.87,0,0,0,699,295a40.28,40.28,0,0,0-4.34-14.44c-2-4-4.83-7.85-8.66-10.32a12.82,12.82,0,0,0-13.06-.84c-3.94,2-6.65,6.09-5.74,10.59.38,1.89,3.28,1.09,2.89-.79-.65-3.23,1.79-5.94,4.51-7.28,3.31-1.64,6.85-1,9.89.91,3.29,2.11,5.63,5.49,7.4,8.91a37.1,37.1,0,0,1,4,12.42,22,22,0,0,1-1.8,12.65,15.07,15.07,0,0,1-7,6.72,13.46,13.46,0,0,1-9.11,1.13,10.42,10.42,0,0,1-7-6.64c-3.64-9.68,1.87-20.07-.83-29.94a1.5,1.5,0,0,0-2.89.79Z"/>
  <path d="M812.29,272.31c2-.39,3.33,2,3.56,3.65.36,2.55-1.6,4.79-3.33,6.41-3.93,3.67-9.23,6.64-9.6,12.62a1.51,1.51,0,0,0,1.9,1.45l36-13.62c1.79-.67,1-3.57-.8-2.89l-36,13.61,1.9,1.45c.2-3.31,3-5.74,5.38-7.69s4.89-3.83,6.4-6.55a8.2,8.2,0,0,0,.22-8,5.92,5.92,0,0,0-6.43-3.37c-1.89.37-1.09,3.26.8,2.89Z"/>
  <path d="M856.71,272.64c-2.12,5.66-4.1,12.74-1.38,18.54,3.14,6.69,11.59,7.45,17.65,4.62,5.82-2.71,10.11-8.91,9.64-15.45-.46-6.35-4.92-12.55-11.29-14a14.56,14.56,0,0,0-16.82,9.26c-.61,1.84,2.29,2.62,2.89.8,1.6-4.81,6.8-7.77,11.74-7.39,5.3.4,9.31,5.07,10.3,10.06,1.06,5.33-1.91,10.59-6.43,13.33s-11.78,3.23-14.74-2c-2.83-5-.52-12,1.33-16.91.68-1.81-2.22-2.59-2.89-.8Z"/>
  <path d="M1004.21,269.59v19.12a1.5,1.5,0,0,0,3,0V269.59a1.5,1.5,0,0,0-3,0Z"/>
  <path d="M1033.63,274.42a7.18,7.18,0,0,0-6,5.61,11,11,0,0,0,1.27,8.47,14.6,14.6,0,0,0,14.57,6.82c5.82-.95,9.66-6.24,10.34-11.84a12.61,12.61,0,0,0-7.59-13.46c-5.88-2.39-13.22-.54-16.83,4.78-1.08,1.6,1.51,3.1,2.59,1.51,2.41-3.54,7.19-4.95,11.26-4.07a9.41,9.41,0,0,1,7.66,8.84c.22,4.19-1.76,8.64-5.63,10.56s-9,.52-12-2.43a9.2,9.2,0,0,1-3-6.41c0-2,1-5.07,3.33-5.38a1.54,1.54,0,0,0,1.5-1.5,1.52,1.52,0,0,0-1.5-1.5Z"/>
  <path d="M1209.15,262.9a12.31,12.31,0,0,0-16.75,16.39,1.51,1.51,0,0,0,2.35.3c3.18-3.16,9-2,11.54,1.47,3.86,5.36-2.14,11.64-7,13.39-4,1.45-8.36,1.52-12.59,1.6-1.93,0-1.93,3,0,3,8.21-.15,18.23-.93,22.43-9.23a10.2,10.2,0,0,0,.06-9.82,11.24,11.24,0,0,0-7.16-5,10.05,10.05,0,0,0-9.39,2.43l2.36.3a9.32,9.32,0,0,1,12.64-12.28c1.73.85,3.25-1.73,1.52-2.59Z"/>
  <path class="cls-1" d="M104.24,402C66.64,402,36.17,442,36.17,491.2s30.47,89.17,68.07,89.17,68.06-39.92,68.06-89.17S141.83,402,104.24,402Z"/>
  <path d="M103.75,480.11l-3.11,18.8a3.11,3.11,0,0,0,2.09,3.69,46,46,0,0,0,19.72,2.77,3.08,3.08,0,0,0,3-3,3,3,0,0,0-3-3,41.59,41.59,0,0,1-18.12-2.55l2.09,3.69,3.11-18.8a3.08,3.08,0,0,0-2.09-3.69,3,3,0,0,0-3.69,2.09Z"/>
  <path d="M87,532.45l39.69-1.92a3.07,3.07,0,0,0,3-3,3,3,0,0,0-3-3L87,526.45a3.07,3.07,0,0,0-3,3,3,3,0,0,0,3,3Z"/>
  <ellipse class="cls-6" cx="106.93" cy="557.29" rx="15.52" ry="8.82"/>
  <path class="cls-1" d="M284.84,402c-37.59,0-68.07,39.93-68.07,89.17s30.48,89.17,68.07,89.17,68.07-39.92,68.07-89.17S322.43,402,284.84,402Z"/>
  <path d="M284.35,480.11l-3.11,18.8a3.11,3.11,0,0,0,2.1,3.69,45.94,45.94,0,0,0,19.71,2.77,3.07,3.07,0,0,0,3-3,3,3,0,0,0-3-3,41.61,41.61,0,0,1-18.12-2.55l2.1,3.69,3.11-18.8a3.09,3.09,0,0,0-2.09-3.69,3,3,0,0,0-3.7,2.09Z"/>
  <path d="M267.62,532.45l39.68-1.92a3.06,3.06,0,0,0,3-3,3,3,0,0,0-3-3l-39.68,1.92a3.07,3.07,0,0,0-3,3,3,3,0,0,0,3,3Z"/>
  <ellipse class="cls-7" cx="287.54" cy="557.29" rx="15.52" ry="8.82"/>
  <path class="cls-1" d="M465.45,402.55c-37.6,0-68.07,39.92-68.07,89.16s30.47,89.17,68.07,89.17,68.06-39.92,68.06-89.17S503,402.55,465.45,402.55Z"/>
  <path d="M465,480.62l-3.11,18.8a3.11,3.11,0,0,0,2.09,3.69,46,46,0,0,0,19.72,2.77,3,3,0,0,0,0-6,41.59,41.59,0,0,1-18.12-2.55l2.09,3.69,3.12-18.8a3.09,3.09,0,0,0-2.1-3.69,3,3,0,0,0-3.69,2.09Z"/>
  <path d="M448.22,533,487.91,531a3,3,0,1,0,0-6L448.22,527a3,3,0,0,0,0,6Z"/>
  <ellipse class="cls-8" cx="468.14" cy="557.8" rx="15.52" ry="8.82"/>
  <path class="cls-1" d="M646.05,403.06C608.46,403.06,578,443,578,492.23s30.47,89.17,68.06,89.17,68.07-39.93,68.07-89.17S683.64,403.06,646.05,403.06Z"/>
  <path d="M645.57,481.13l-3.12,18.81a3.12,3.12,0,0,0,2.1,3.69,46.29,46.29,0,0,0,19.72,2.77,3.08,3.08,0,0,0,3-3,3,3,0,0,0-3-3,41.64,41.64,0,0,1-18.13-2.56l2.1,3.69,3.11-18.8a3.09,3.09,0,0,0-2.09-3.69c-1.44-.39-3.43.49-3.69,2.09Z"/>
  <path d="M628.83,533.48l39.68-1.93a3.06,3.06,0,0,0,3-3,3,3,0,0,0-3-3l-39.68,1.93a3.06,3.06,0,0,0-3,3,3,3,0,0,0,3,3Z"/>
  <ellipse class="cls-9" cx="648.75" cy="558.31" rx="15.52" ry="8.82"/>
  <path class="cls-1" d="M826.66,402c-37.59,0-68.07,39.93-68.07,89.17s30.48,89.17,68.07,89.17,68.06-39.92,68.06-89.17S864.25,402,826.66,402Z"/>
  <path d="M826.17,480.11l-3.11,18.8a3.11,3.11,0,0,0,2.09,3.69,46,46,0,0,0,19.72,2.77,3.07,3.07,0,0,0,3-3,3,3,0,0,0-3-3,41.59,41.59,0,0,1-18.12-2.55l2.09,3.69,3.12-18.8a3.09,3.09,0,0,0-2.1-3.69,3,3,0,0,0-3.69,2.09Z"/>
  <path d="M809.43,532.45l39.69-1.92a3.06,3.06,0,0,0,3-3,3,3,0,0,0-3-3l-39.69,1.92a3.08,3.08,0,0,0-3,3,3,3,0,0,0,3,3Z"/>
  <ellipse class="cls-10" cx="829.36" cy="557.29" rx="15.52" ry="8.82"/>
  <path class="cls-1" d="M1007.26,402C969.67,402,939.2,442,939.2,491.2s30.47,89.17,68.06,89.17,68.07-39.92,68.07-89.17S1044.85,402,1007.26,402Z"/>
  <path d="M1006.78,480.11l-3.12,18.8a3.11,3.11,0,0,0,2.1,3.69,46,46,0,0,0,19.72,2.77,3.08,3.08,0,0,0,3-3,3,3,0,0,0-3-3,41.66,41.66,0,0,1-18.13-2.55l2.1,3.69,3.11-18.8a3.09,3.09,0,0,0-2.09-3.69,3,3,0,0,0-3.69,2.09Z"/>
  <path d="M990,532.45l39.68-1.92a3.06,3.06,0,0,0,3-3,3,3,0,0,0-3-3L990,526.45a3.07,3.07,0,0,0-3,3,3,3,0,0,0,3,3Z"/>
  <ellipse class="cls-11" cx="1009.96" cy="557.29" rx="15.52" ry="8.82"/>
  <path d="M1187.38,481.13l-3.11,18.81a3.11,3.11,0,0,0,2.09,3.69,46.31,46.31,0,0,0,19.72,2.77,3.08,3.08,0,0,0,3-3,3,3,0,0,0-3-3,41.6,41.6,0,0,1-18.12-2.56l2.09,3.69,3.12-18.8a3.09,3.09,0,0,0-2.1-3.69,3,3,0,0,0-3.69,2.09Z"/>
  <path d="M1170.65,533.48l39.68-1.93a3.06,3.06,0,0,0,3-3,3,3,0,0,0-3-3l-39.68,1.93a3.06,3.06,0,0,0-3,3,3,3,0,0,0,3,3Z"/>
  <path d="M75.44,614.27l-3.29,17.59a1.54,1.54,0,0,0,1,1.84,1.52,1.52,0,0,0,1.85-1.05l3.28-17.58a1.53,1.53,0,0,0-1-1.84,1.51,1.51,0,0,0-1.85,1Z"/>
  <path d="M92.1,616.14c-3.23,2.27-3.64,6.8-1.62,10.05,2.36,3.82,7.38,4.59,11.42,3.38,4.67-1.39,8-5.17,11-8.83,1.45-1.78,3-4.35,1.15-6.45-1.48-1.64-4.28-1.76-6.33-1.88a25.27,25.27,0,0,0-15.38,4.22c-1.6,1.07-.1,3.67,1.51,2.59a22.22,22.22,0,0,1,15.8-3.61c.58.1,1.66.15,2.1.6s-.25,1.47-.59,1.93c-2.13,2.91-4.81,5.94-8,7.68-2.66,1.46-6.48,2-9,0-2-1.54-2.82-5.48-.5-7.12,1.57-1.11.07-3.71-1.51-2.59Z"/>
  <path d="M142.31,612c-4.79.17-10.14.44-14,3.69-3,2.59-4.74,7.29-2.92,11.05,1.94,4,6.7,4.61,10.56,3.51a19.61,19.61,0,0,0,5.6-2.66,16.23,16.23,0,0,0,5.06-4.94,7,7,0,0,0,.26-7,5.37,5.37,0,0,0-6-2.86,1.5,1.5,0,0,0,.8,2.89c1.25-.34,2.32.73,2.78,1.81a4.36,4.36,0,0,1-.82,4.27,16.3,16.3,0,0,1-8.22,5.55c-2.53.77-5.93.89-7.33-1.85-1.3-2.55.25-5.84,2.26-7.54,3.2-2.7,8-2.75,11.94-2.89,1.92-.06,1.93-3.07,0-3Z"/>
  <path d="M273.71,607.94l-27.62-2.24-6.72-.55c-2.07-.16-4.29-.59-6.36-.25a6.21,6.21,0,0,0-5.09,5.47c-.52,3.3.42,6.7,1.73,9.7a1.46,1.46,0,0,0,1.3.75l11.44-.22,5.61-.1c1.45,0,3.18-.12,4.45.72,2,1.35,1,4.41-.47,5.77-2.35,2.12-6.14,1.82-9,1.58-1.93-.15-1.92,2.85,0,3,3.79.31,8.2.3,11.17-2.46,2.23-2.07,3.31-5.79,1.75-8.55-2-3.6-6.8-3.08-10.29-3l-14.61.27,1.29.74c-1.11-2.54-2.24-6.28-1-9,.64-1.42,2-1.82,3.43-1.8,2.57.05,5.16.4,7.71.61l31.36,2.54c1.92.16,1.91-2.84,0-3Z"/>
  <path d="M302.74,606.27c-6.18.77-12.83,1.81-16.78,7.17a10.32,10.32,0,0,0-2,7.95,10.55,10.55,0,0,0,4.43,6.46c5.45,3.9,12.36,2.6,18.35.86,2.88-.84,5.51-1.71,6.62-4.77a11.64,11.64,0,0,0-.5-8.11,15.91,15.91,0,0,0-14-9.9c-1.93-.06-1.92,2.94,0,3a12.78,12.78,0,0,1,10.33,6.18,10.94,10.94,0,0,1,1.71,6,5.16,5.16,0,0,1-.79,2.78c-.75,1.06-2.05,1.34-3.22,1.69-4.82,1.44-10.5,3.13-15.29.72-4-2-6.11-6.25-3.65-10.36,3-5.09,9.47-6,14.82-6.63,1.89-.24,1.91-3.24,0-3Z"/>
  <path d="M429.62,607.29l.38,8.93c0,1,1.29,2,2.26,1.29l16.15-12.12c3.28-2.47,10.07-7.15,6.61-12a1.52,1.52,0,0,0-2.8.75,87.31,87.31,0,0,0,4.54,35.42c.63,1.81,3.53,1,2.89-.8a85.17,85.17,0,0,1-4.43-34.62l-2.79.76c1.19,1.68-.37,3.56-1.58,4.78a56.66,56.66,0,0,1-6.35,5l-13.76,10.32,2.26,1.3-.38-8.93c-.08-1.93-3.08-1.94-3,0Z"/>
  <path d="M466,608.16c-1.1,7.78,6.66,13.84,14,13.31a17.6,17.6,0,0,0,15.34-13.12c1.56-6.58-1.84-12.93-7.65-16.11-5.48-3-12.41-3.07-17.38,1-6.59,5.38-7.35,15-6.94,22.85.1,1.92,3.1,1.93,3,0-.31-6-.07-12.71,3.41-17.86a11.77,11.77,0,0,1,13.36-4.62c4.72,1.34,9.05,5.18,9.56,10.28.59,6-3.8,11.74-9.25,13.8a11.32,11.32,0,0,1-9.66-.56c-2.84-1.61-5.39-4.69-4.89-8.15a1.57,1.57,0,0,0-1.05-1.85,1.52,1.52,0,0,0-1.85,1Z"/>
  <path d="M615.94,606c2.17-1.28,4.8-.42,6.5,1.25,2.09,2.05,2.3,5,1.34,7.66-2.42,6.66-10,8.82-16.11,10.54l.8,2.9c4.72-1.81,9.44-3.65,14.18-5.43,2.12-.8,4.12-1.31,5.51.88a10.91,10.91,0,0,1,1.47,4.76,16.58,16.58,0,0,1-9.78,16.58c-1.77.76-.24,3.34,1.52,2.59A19.33,19.33,0,0,0,632.46,633a17.22,17.22,0,0,0-1.06-9.42,7.53,7.53,0,0,0-3.23-3.78,7,7,0,0,0-5.68,0c-5,1.78-9.88,3.78-14.82,5.66-1.76.68-1.1,3.43.8,2.9,7.64-2.15,17.08-5.47,18.68-14.44a9.6,9.6,0,0,0-3.43-9.51,8.27,8.27,0,0,0-9.29-1,1.5,1.5,0,0,0,1.51,2.59Z"/>
  <path d="M654.48,610.68c2.73,10-2.94,20.41,1,30.29a13.55,13.55,0,0,0,8.53,8.27,16.19,16.19,0,0,0,11-.91,18.12,18.12,0,0,0,8.57-7.42,24,24,0,0,0,2.72-14.11,40.44,40.44,0,0,0-4.35-14.43c-2-4-4.82-7.86-8.65-10.32a12.84,12.84,0,0,0-13.07-.84c-3.93,2-6.65,6.09-5.74,10.59.39,1.89,3.28,1.09,2.9-.8-.66-3.22,1.79-5.93,4.5-7.27a9.8,9.8,0,0,1,9.89.91c3.29,2.11,5.63,5.49,7.41,8.9a37.61,37.61,0,0,1,4,12.43,22,22,0,0,1-1.81,12.65,15.17,15.17,0,0,1-7,6.72,13.44,13.44,0,0,1-9.11,1.13,10.42,10.42,0,0,1-7-6.64c-3.64-9.68,1.88-20.08-.82-30a1.51,1.51,0,0,0-2.9.8Z"/>
  <path d="M799.47,604.13c2-.39,3.34,2,3.57,3.64.35,2.56-1.6,4.8-3.33,6.41-3.94,3.68-9.24,6.64-9.61,12.63a1.5,1.5,0,0,0,1.9,1.44l36-13.61c1.79-.67,1-3.58-.8-2.89l-36,13.61,1.9,1.45c.2-3.31,3-5.75,5.38-7.7s4.89-3.83,6.4-6.54a8.25,8.25,0,0,0,.23-8,5.92,5.92,0,0,0-6.44-3.36c-1.89.36-1.09,3.26.8,2.89Z"/>
  <path d="M843.89,604.46c-2.11,5.66-4.1,12.74-1.37,18.54,3.13,6.68,11.58,7.44,17.64,4.62,5.82-2.71,10.11-8.92,9.64-15.45-.45-6.35-4.91-12.55-11.28-14a14.57,14.57,0,0,0-16.82,9.27c-.62,1.83,2.28,2.62,2.89.79,1.6-4.8,6.79-7.76,11.73-7.39,5.31.41,9.31,5.08,10.3,10.07,1.06,5.33-1.91,10.59-6.43,13.33s-11.78,3.23-14.73-2c-2.84-5-.53-11.95,1.33-16.91.67-1.81-2.23-2.6-2.9-.8Z"/>
  <path d="M991.39,601.41v19.11a1.5,1.5,0,0,0,3,0V601.41a1.5,1.5,0,0,0-3,0Z"/>
  <path d="M1020.81,606.24a7.21,7.21,0,0,0-6,5.61,11,11,0,0,0,1.27,8.47,14.6,14.6,0,0,0,14.57,6.82c5.82-.95,9.66-6.25,10.35-11.84a12.62,12.62,0,0,0-7.6-13.46c-5.88-2.39-13.22-.54-16.82,4.77-1.09,1.61,1.51,3.11,2.59,1.52,2.4-3.54,7.18-5,11.26-4.08a9.45,9.45,0,0,1,7.66,8.85c.22,4.19-1.76,8.64-5.63,10.55s-9,.53-12-2.42a9.21,9.21,0,0,1-3-6.41c0-2,.95-5.07,3.33-5.38a1.54,1.54,0,0,0,1.5-1.5,1.51,1.51,0,0,0-1.5-1.5Z"/>
  <path d="M1199.68,599.61c-5.11,1.94-7.66,7-9.13,11.92-1.7,5.71-2.79,12.71,1.15,17.77,3.11,4,9.06,6,13.24,2.4,3.37-2.9,4-8.4,1.83-12.18-3-5.16-9.92-6.51-15.24-4.75-1.82.61-1,3.5.8,2.9,3.66-1.22,8.14-.8,10.92,2.12a7.07,7.07,0,0,1,.37,9c-2.63,3.29-7.18,1.62-9.46-1.17-3.21-3.93-2.25-9.66-1-14.16,1.11-4.14,3-9.28,7.35-10.93,1.79-.68,1-3.58-.8-2.9Z"/>
  <ellipse class="cls-13" cx="1191.02" cy="557.29" rx="15.52" ry="8.82"/>
</svg>
