<svg id="SIDE" xmlns="http://www.w3.org/2000/svg" width="1296" height="1728" viewBox="0 0 1296 1728">
  <defs>
    <style>
      .cls-1, .cls-10, .cls-12, .cls-13, .cls-14, .cls-16, .cls-2, .cls-3, .cls-4, .cls-5, .cls-6, .cls-8 {
        fill: none;
      }

      .cls-1, .cls-10, .cls-2, .cls-3, .cls-4, .cls-5, .cls-6, .cls-7, .cls-8, .cls-9 {
        stroke: #000;
      }

      .cls-1, .cls-12, .cls-13, .cls-14, .cls-16, .cls-3, .cls-4, .cls-5, .cls-7 {
        stroke-linecap: round;
      }

      .cls-1, .cls-10, .cls-12, .cls-13, .cls-14, .cls-16, .cls-3, .cls-4, .cls-5, .cls-7, .cls-8, .cls-9 {
        stroke-linejoin: round;
      }

      .cls-2, .cls-6 {
        stroke-miterlimit: 10;
      }

      .cls-3 {
        stroke-width: 0.5px;
      }

      .cls-10, .cls-12, .cls-13, .cls-14, .cls-16, .cls-4, .cls-6, .cls-7, .cls-9 {
        stroke-width: 0.25px;
      }

      .cls-5 {
        stroke-width: 0.75px;
      }

      .cls-11 {
        fill: #58595b;
      }

      .cls-12 {
        stroke: #808184;
      }

      .cls-13 {
        stroke: #a6a8ab;
      }

      .cls-14 {
        stroke: #d0d2d3;
      }

      .cls-15 {
        fill: #231f20;
      }

      .cls-16 {
        stroke: #231f20;
      }
    </style>
  </defs>
  <path class="cls-1" d="M638.68,592.94c-.85,7.2,6,23,9.24,28.29,1.1,1.82,2.16,3.67,3.16,5.55.12.23.21.5.32.76"/>
  <path class="cls-2" d="M746.14,801.62c1.5-28.67,6.1-57,10-85.4,3.4-25.09,1.28-46.11,1-70.85-.71-56.64-.2-113.23-2.6-169.84s-28.31-99.61-72.18-135.75c-3.42-2.81-6.61-6.2-7.93-10.43-2.74-8.75,2.87-19,6.71-26.6"/>
  <path class="cls-2" d="M622.41,1546.2c-1.45-14.42,1.26-37.1,1.63-44.21,1-20.46,5.18-40.22,7.67-60.46,4.62-37.56,10-75.28,15.95-112.94,3.74-23.88,8.94-45.51,21.59-66.32,13.89-22.83,14.07-46,18.5-71.33,4.41-25.14,14.68-49.83,21.07-74.67a927,927,0,0,0,18.94-95.18,152.54,152.54,0,0,0,1.42-17.48c.17-5.25.12-10.53.39-15.78"/>
  <path class="cls-2" d="M555.74,1572.65a355.12,355.12,0,0,1-5,43.22c-2.43,13.54-3.76,30.9,8.25,37.63,4.9,2.74,10.81,2.75,16.42,2.68l87.45-1,31.52-.36a182.65,182.65,0,0,0,35.48-3.72c10.07-2.1,15.88-4.77,15.38-16-.58-13.24-6.66-27.25-18.65-32.9a52.84,52.84,0,0,0-11-3.33c-7.61-1.72-15.22-2.82-22.59-5.39-17.35-6-34.74-13-50.18-23"/>
  <path class="cls-2" d="M557.79,983.53c0,.44.05.91.06,1.34.12,3.49.26,7.16.5,11.11q4.53,75,9,150c1.86,31,0,60.3.38,91.37.56,41.43-23.9,78.65-24,120.2,0,8.77.21,17.55.61,26.31s1,17.33,1.62,26,1.45,17.17,2.27,25.75,1.69,17.06,2.54,25.6,1.68,17,2.43,25.53,1.42,17,2,25.56.91,17.11,1.09,25.68q.13,6.66.1,13.34c0,5.57-.34,11.15-.53,16.72a25.39,25.39,0,0,0,0,5.23"/>
  <path class="cls-1" d="M534,800.18a7.71,7.71,0,0,0-.95,3.36c-.16,1.24-.33,2.48-.51,3.71-.34,2.48-.7,5-1.06,7.42-.87,6-1.75,12.05-2.43,18.1s-1.17,12.11-1.27,18.2a216.45,216.45,0,0,0,5.46,52.23,117.61,117.61,0,0,0,10.05,27.44c2.19,4.24,6.15,8.56,7.76,13C555.89,956.68,542,983.24,564,985c7.85.61,15.69,1.25,23.55,1.73q23.05,1.39,46.14,1.64c16.69.18,33.48-.11,50.07.47"/>
  <path class="cls-1" d="M746.14,801.62q-18.09,1.53-36.22,2.35a332,332,0,0,1-33.39.22"/>
  <path class="cls-3" d="M594.8,680a21.57,21.57,0,0,0,7.48-18"/>
  <path class="cls-3" d="M606,660.94a24.89,24.89,0,0,0-19.5-20.47"/>
  <path class="cls-1" d="M534.08,800.17q25.83,2.63,51.77,3.8c12,.54,24,1.1,36,1.1.91,0,1.83,0,2.73-.06.73,0,1.43,0,2.16,0"/>
  <path class="cls-1" d="M617.69,1565.54q-5.54,0-11.07-.06c-9-.09-18-.24-27-.33-3.92,0-7.84,0-11.76.07-2.16,0-4.31,0-6.46-.11-1.72,0-3.43-.2-5.15-.31"/>
  <path class="cls-1" d="M667.76,1632.81c-7.07-.12-14.13-.19-21.17-.1-26.71.32-53.41.93-80.12.76-5.8,0-12.21-.32-17.32-2.27"/>
  <path class="cls-2" d="M600.05,296.74c-.37,6-1,12.36-3.81,17.81s-7.34,9.7-9.63,15.68"/>
  <path class="cls-1" d="M748.13,434.83a23,23,0,0,1-10.53-8.94c-6.56-10-9.06-21.32-16.36-31.28-20.36-27.77-47.66-57.44-83.59-62.51-16.2-2.28-31-2.14-47.12-1.55a10,10,0,0,1-5.27-.87,5.3,5.3,0,0,0-3.78-.86,1,1,0,0,0-.52.12,1.13,1.13,0,0,0-.35.48c-2.73,5.93-7.31,11-11.63,15.83-6.76,7.57-14.16,14.74-19.18,23.67-22.53,40.05-25,72-21.56,117.53,2.29,30.15,9.92,59.7,19.18,88.39,12.08,37.43,16.48,83.31,13.5,122.36-2.81,36.77-20.23,68-26.84,103"/>
  <path class="cls-1" d="M556.1,1564.74a29.72,29.72,0,0,1,.16-4.81,2.39,2.39,0,0,1,1.27-2.18c1.6-1,4-.54,5.74-.39,4.12.34,8.24.71,12.38.74,9.93.09,19.86.17,29.8.17,2.19,0,4.37,0,6.56,0"/>
  <path class="cls-1" d="M643.48,1571.29c-2.87-3.17-7-7.54-6.83-12.13.08-3.09,2.64-6.29.92-9.29-1.33-2.31-4.35-3.06-6.81-3.25a64,64,0,0,0-10.17-.32c-3.25.24-14.53.24-13.16,5.73a8.59,8.59,0,0,0,2.27,3.52c7.79,8.63,13.56,18.85,21.76,27.29a47.35,47.35,0,0,0,9.57,8,50.4,50.4,0,0,0,10.22,4.27c4.14,1.35,8.22,2.9,12.41,4.11,3.48,1,7.7,3.61,10.9,1.35l.52-.4"/>
  <path class="cls-1" d="M667.76,1632.78c1.36-2.78,1-5.49,1.16-8.39.38-5.58,1.15-13.74,3.45-18.85a50.67,50.67,0,0,1,10.54-15.36"/>
  <path class="cls-1" d="M638.47,1565.31c-3,.37-6.05.56-9.07,1.07q-2.34.4-4.65.9c-1.45.31-2.9.8-4.36,1,7.18-1.14,16.16,1.23,23.07,3.07-2.39,5.49-3.07,11.51-5.66,16.85,7.6-1.91,15.35-6.26,23-7.16a173.9,173.9,0,0,1,11.58,20.3"/>
  <path class="cls-1" d="M722.9,180.89a9.59,9.59,0,0,0-.67-5.67c-.71-1.94-3.06-1.67-4.82-1.92-4.3-.59-8.51-.72-12.82-1a52.23,52.23,0,0,0-19.33,2c-6.46,2.07-8,5.41-10,10.53,3.13-2.82,7.55-4.55,12.08-5.4a65.52,65.52,0,0,1,13.87-.78c5.62.16,11.55.61,16.14,3.3,1.51.87,3.69,2,4.86.79a2.57,2.57,0,0,0,.59-1.34C722.84,181.19,722.85,181,722.9,180.89Z"/>
  <path class="cls-1" d="M645.34,290.56c-2.78,1.65-6.73,7.2-6.78,8.45a7.86,7.86,0,0,0-2.71-6.18l-5.6,4.89a16.56,16.56,0,0,0-2.07,2c-1.13,1.4-2,3.34-3.84,3.57,1.31-3.63.14-6.84-1.06-10.21-2.35,1.42-1.89,4.26-3.26,6.35-2.48,3.8-6.72,4.58-10.91,4.14,3.69-1.3,6.11-5.71,4.5-9.45a8.56,8.56,0,0,0-6.51,5.68c.63-1.94-3.44-4.2-4.79-4.09-1,.08-5.49,3.26-6.24,4.05,1.35-1.42,1.87-5.58-.28-6.72s-5,2.09-6.7,3a10.23,10.23,0,0,0-2.25-7.57,4,4,0,0,0-1.53-1.46,1.48,1.48,0,0,0-1.65.29,9.23,9.23,0,0,1-.46-3.11c-.32-14,1.79-28.4-5.23-41-4.1-7.38-7.87-14.93-9.81-23.2-7.41-31.51-11.29-67.85,8.76-95.36,14.84-20.36,37.25-34.36,62.7-35.83,25.12-1.45,55.56,6.62,75,22.76,5.92,4.9,11.58,11.54,13.56,19.15.84,3.25,1.67,7.9,1,11.24-.49,2.49-12.94,1.12-14.94.9-5.42-.58-10.76-1.72-16.09-2.81-7.56-1.56-14.47-3.49-22.35-2.83-8.65.73-18.56,3.08-23.87,10.59-1.42,2-3.74,4.9-4.71,7.68"/>
  <path class="cls-1" d="M647.29,155.48a160.24,160.24,0,0,1,.84,18.87c0,4.13,1.71,8.08,2.18,12.15a28.63,28.63,0,0,1-1.69,12.73c-.79,2.29-1.89,4.44-2.74,6.7a10.17,10.17,0,0,1-1.87,3.35c-1,.85-1.07.18-1.52-1-.74-1.93-.94-4-1.63-6s-1.18-4.39-2.31-6.21c-3.68-5.93-11.7-4.58-16.91-1.7-16.95,9.34-8.11,32.69-4.61,46.81A26.37,26.37,0,0,0,619.4,248c2.7,4.74,8.82,6.68,13.26,2.63-.06,4.84.31,10,.74,14.89.55,6.37,1.2,13,4.75,18.35,4.68,7,13.28,10.07,21.29,12.71,11.23,3.69,21.24,7.05,33,8,8.39.66,19.44,2,26-4.68,3.84-3.9,4.66-9.76,5.29-15.19.19-1.65.15-3.93.86-5.44s1.56-2.57,1.66-4.49a48.7,48.7,0,0,1,.48-7,16.16,16.16,0,0,1,.61-3.2c.36-.8,1.06-1.34,1.34-2.26a9.62,9.62,0,0,0,.3-2.45c.08-2-.36-4-.2-6a51.05,51.05,0,0,0,.13-7.21c-.25-4.48-2.21-7.81,3.94-6.85,7,1.1,14.16-2,12.19-9.2-.84-3.07-4.83-6.92-6.15-10.28-1.39-3.53-2.26-7.27-3.33-10.9-1.16-3.93-3.17-7.55-4.6-11.37-.73-2-1-4-1.66-5.93-1.08-3.29-2.57-4.39-1.57-8.11a27.28,27.28,0,0,0,1.07-8.42c-.2-2.86-1.78-5.42-1.88-8.41-.25-7.92.21-15.87.21-23.78"/>
  <path class="cls-4" d="M678,260.68a8.93,8.93,0,0,1-3-4.74c-.94-3.77-.41-7.6-1.44-11.39"/>
  <path class="cls-4" d="M676.74,274.86c5.51,8.42,7,18.56,7.64,28.63"/>
  <path class="cls-4" d="M644.81,208.08l-.14,7.48a11.1,11.1,0,0,0,.27,3.26c1.16,4.09,9.55,7.19,13.08,8.94a33.1,33.1,0,0,1,14,12.45"/>
  <path class="cls-4" d="M678,260.68a8.93,8.93,0,0,1-3-4.74c-.94-3.77-.41-7.6-1.44-11.39"/>
  <path class="cls-1" d="M709.5,988.57c9.25-.6,18.52-.75,27.77-1.39,1.78-.12,3.86-.43,4.72-2a5.38,5.38,0,0,0,.45-2.56q.43-33-.84-66c-.06-3.9-.14-9.88-.14-9.88,0-.28,0-.57,0-.86,0-3.35-.05-6.71,0-10.06s.06-6.72.13-10.08.16-6.72.27-10.08.24-6.73.39-10.09.32-6.72.49-10.08.37-6.72.57-10.08.41-6.72.63-10.08.43-6.71.65-10.06.45-6.7.67-10c.12-1.67.23-3.35.34-5,.05-.84.11-1.67.16-2.51s.17-1.57.26-2.36c.13-1.2.22-2.41.27-3.61"/>
  <path class="cls-5" d="M617.84,242.9a19.29,19.29,0,0,1,.68-3.91"/>
  <path class="cls-5" d="M630.51,218a5.74,5.74,0,0,0,7.47.46c.39-6.26.3-11.84-3.29-17.16a10.08,10.08,0,0,0-3.77-3.84,9.06,9.06,0,0,0-5.46-.22c-7.21,1.36-9.69,12.26-9.66,18.31a49.85,49.85,0,0,0,4.78,21.5"/>
  <path class="cls-3" d="M633.16,199.58c.94,1.82.74,5.21.18,7.17a5.67,5.67,0,0,1-4.47,4.28c-.8.13-1.61.1-2.39.29a5.7,5.7,0,0,0-3.83,3.91c-1.17,3.64-.37,7.55.66,11.12s1.23,7.5,1.65,11.29c1.74.1,3,1.65,4,3.06.6.84,2.68-2.26,2.81-2.66.48-1.48-.09-3-.32-4.36.87.32,1.68.1,1.91-.84a10.36,10.36,0,0,0,.42-3c-.15-2.79-2.41-4.95-4.51-6.81"/>
  <path class="cls-5" d="M633.15,242.51l2.49-5.15a14.13,14.13,0,0,0,1.79-5.63c0-.76-.09-1.54,0-2.3a4.75,4.75,0,0,1,1.53-3"/>
  <path class="cls-1" d="M734.92,239.84c-1.5,0-2.77-1-4-1.77a22.94,22.94,0,0,0-3.46-1.85,7.78,7.78,0,0,0-2.87-.75,2.81,2.81,0,0,0-3.09,2.29"/>
  <path class="cls-6" d="M708.24,283c5.14-2,10.6-1.22,16-1.1"/>
  <path class="cls-4" d="M723.24,249a10.36,10.36,0,0,0,2.65-6.64"/>
  <path class="cls-6" d="M724.89,250.36c1.31.95,2.7.91,4.23,1h-.24"/>
  <path class="cls-3" d="M719.46,221.78c-.76,2.07-2.61,3.59-3.37,5.66-.85,2.26-1.69,3.87-1.52,6.34.08,1.07.49,2.39,1.56,2.52"/>
  <path class="cls-7" d="M725.63,264.21a8.52,8.52,0,0,1-.1,2.08c-.13.54-.57.48-1,.48s-1,0-1.48,0a4.47,4.47,0,0,1-1.36-.19,1,1,0,0,1-.52-.4,1.39,1.39,0,0,1-.12-.7v-1.93a9.49,9.49,0,0,1-.12,1.42c-.06.36,0,1.06-.49,1.07a14,14,0,0,1-1.93-.17,1.82,1.82,0,0,1-.46-.11,1,1,0,0,1-.5-.67,4.66,4.66,0,0,1,0-1.12c0-.58.13-1.16.14-1.74a8.92,8.92,0,0,1-.21,1.78c-.07.32,0,.88-.3,1.13a.8.8,0,0,1-.51.11l-1.18-.05a1.89,1.89,0,0,1-.71-.12c-.57-.24-.57-1-.59-1.5s0-1.19,0-1.78a8.57,8.57,0,0,1-.07,1.43,1.89,1.89,0,0,1-.32.95,1.45,1.45,0,0,1-.69.48,1.72,1.72,0,0,1-1.78-.42c-.52-.58-.29-1.46-.27-2.15,0,.79-.18,2.06-1.18,2.1a3.38,3.38,0,0,1-.78-.16,3.45,3.45,0,0,1-.79-.24l-.11-.05h-.08a1.51,1.51,0,0,1-.52,0,1,1,0,0,1-.44-.18.5.5,0,0,1-.09-.24,1.63,1.63,0,0,1,.25-.94,3.25,3.25,0,0,1-.46.64,1,1,0,0,1-1.13.26c-.23-.06-.61-.05-.77-.25,0,0-.05-.07-.09-.09h-.08a1.57,1.57,0,0,1-1.26-.53.65.65,0,0,0,0,.73,1.46,1.46,0,0,0,.59.45,8.87,8.87,0,0,0,1.68.53l3.73.92,1.45.36a24.65,24.65,0,0,0,3.17.62,25.82,25.82,0,0,1,2.73.54c.5.11,1,.18,1.51.25l2.36.33a9.14,9.14,0,0,1,3.65,1,1.42,1.42,0,0,0,.27.5l.25.19a2,2,0,0,1,.39.37,1.13,1.13,0,0,0,.06-.32c0-.71.17-1.47.15-2.18"/>
  <line class="cls-4" x1="716.71" y1="266.46" x2="720.73" y2="266.49"/>
  <path class="cls-1" d="M695.05,265.46a9.35,9.35,0,0,1,3.2-7"/>
  <path class="cls-8" d="M723.35,264a28.63,28.63,0,0,0,3.71.12"/>
  <path class="cls-1" d="M724.93,269.2a5.48,5.48,0,0,0-1.07-.85,10.61,10.61,0,0,0-3.39-1.05c-2.41-.42-4.87-.36-7.3-.64a49,49,0,0,1-16.52-4.84c1.63.77,6,.33,8,.27,3.07-.1,6.16-.62,9.25-.75a10.76,10.76,0,0,1,4.07.47c1.25.43,2.39,1.14,3.61,1.65a9.38,9.38,0,0,0,1.77.5"/>
  <path class="cls-3" d="M724.08,279.24l-1.23,0A31.3,31.3,0,0,1,712.13,277c-4.48-2-8.06-5.39-11.24-9-.15-.17-.31-.33-.46-.49l-.68-.69-.79-.84q-.42-.45-.81-.93c-.26-.31-.51-.62-.74-.95a7.56,7.56,0,0,1-.58-.93,3,3,0,0,1-.31-.85,1.26,1.26,0,0,1,0-.72,1.15,1.15,0,0,1,.74-.6,3.77,3.77,0,0,1,1.15-.17c3.56-.06,6.77-1.8,9.77-3.53a56,56,0,0,1,5.67-3c2.44-1,5.74-2.42,8.46-2.11,2.14.24,3.83,2.07,5.93,2.52"/>
  <path class="cls-1" d="M724.75,268.32a7.13,7.13,0,0,0-.87-.52l-.35-.13a25.8,25.8,0,0,0-3.09-.87,25.14,25.14,0,0,0-5.19-.63,22.29,22.29,0,0,1-5.28-.49c-.52-.13-1-.29-1.54-.41a21.3,21.3,0,0,1-3.07-.69,20.36,20.36,0,0,0-2.22-.92c-.9-.23-1.82-.42-2.72-.63a9,9,0,0,1,1.71-.13,4.26,4.26,0,0,1,.8.2,62.52,62.52,0,0,0,10.9,2.72,39.1,39.1,0,0,1,4,.7"/>
  <line class="cls-4" x1="721.38" y1="266.88" x2="725.26" y2="266.88"/>
  <path class="cls-4" d="M710.79,261.84a.65.65,0,0,1,.27.53,1.14,1.14,0,0,1,.1-.36.41.41,0,0,1,.27-.23,2.14,2.14,0,0,0-.62,0"/>
  <path class="cls-4" d="M713.92,261.71a.65.65,0,0,1,.27.53,1.07,1.07,0,0,1,.1-.36.43.43,0,0,1,.27-.24,2.56,2.56,0,0,0-.62,0"/>
  <path class="cls-4" d="M717.65,262.52a.87.87,0,0,0-.2-.45,1.27,1.27,0,0,1,.34,0,1.23,1.23,0,0,0-.16.35"/>
  <line class="cls-4" x1="721.44" y1="266.77" x2="725.26" y2="266.79"/>
  <path class="cls-9" d="M725.27,270.11a.65.65,0,0,0,.35.21c.1,0,0-.88,0-1a8.85,8.85,0,0,1-.05-1.15c0,.24-.3.55-.47.71s-.24.15-.35.24-.16.23,0,.4a4.93,4.93,0,0,0,.4.39Z"/>
  <line class="cls-4" x1="725.65" y1="270.27" x2="725.65" y2="263.99"/>
  <line class="cls-10" x1="725.65" y1="263.99" x2="725.65" y2="263.64"/>
  <line class="cls-10" x1="725.47" y1="263.76" x2="725.8" y2="263.76"/>
  <line class="cls-4" x1="725.64" y1="270.27" x2="725.64" y2="263.99"/>
  <line class="cls-10" x1="725.64" y1="263.99" x2="725.64" y2="263.64"/>
  <line class="cls-10" x1="725.81" y1="263.76" x2="725.48" y2="263.76"/>
  <line class="cls-4" x1="725.64" y1="270.27" x2="725.64" y2="263.99"/>
  <line class="cls-10" x1="725.64" y1="263.99" x2="725.64" y2="263.64"/>
  <line class="cls-10" x1="725.82" y1="263.76" x2="725.48" y2="263.76"/>
  <line class="cls-4" x1="725.65" y1="270.27" x2="725.65" y2="263.99"/>
  <line class="cls-10" x1="725.65" y1="263.99" x2="725.65" y2="263.64"/>
  <line class="cls-10" x1="725.47" y1="263.76" x2="725.8" y2="263.76"/>
  <path class="cls-8" d="M726,270.14a1.76,1.76,0,0,1-.23-1.61,16,16,0,0,0,.25-1.84"/>
  <path class="cls-1" d="M729.86,237.47l-.05,0a5.37,5.37,0,0,0-1-.12c-.66-.14-1.29-.38-1.94-.54-.41-.1-.81-.21-1.23-.27a10.34,10.34,0,0,0-3.42.13,5.82,5.82,0,0,1,2.08.07,17.18,17.18,0,0,0,2.63.68,17.14,17.14,0,0,1,3.2.36C730.06,237.72,730,237.56,729.86,237.47Z"/>
  <path class="cls-1" d="M670.58,332.68c-1.79-8.49,2.72-15.53,6.56-22.6l.42-.79,1.43-2.62,1.64-3"/>
  <path class="cls-11" d="M710.51,194.17a10.53,10.53,0,0,1-1,6.3c-.58,1-.82,2.18-2.2,2.37a22.13,22.13,0,0,1-3.24-.27,6.68,6.68,0,0,1-5.86-3.7,11.37,11.37,0,0,0-.47-1.14,4.82,4.82,0,0,1-.37-1.15c0-.24-.06-.47-.09-.72s0-.64,0-1a5.33,5.33,0,0,1,.11-1.19c.06-.35.06-.7.11-1a4.86,4.86,0,0,1,.6-1.79c.91-1.46,2.68-1.91,4.26-2.35a9.21,9.21,0,0,1,2.2-.24c1.17,0,3.37-.78,4.24.27.58.74.56,1.79.86,2.61A9.43,9.43,0,0,1,710.51,194.17Z"/>
  <path class="cls-4" d="M716.69,193.32c.54,1,1.74,1.83,2,3a8,8,0,0,1-.63,3.94,17.64,17.64,0,0,1-2.3,4,31.19,31.19,0,0,1-5.89,6.21,14.13,14.13,0,0,1-4.32,2.16,11.91,11.91,0,0,1-3,.48"/>
  <path class="cls-4" d="M676.48,191.55c3-.6,5.74-3.11,8.21-4.75,7.28-4.84,18-5.92,25.39-.66,1.29.92,2.31,2.07,3.53,3.06a23.61,23.61,0,0,1,1.81,1.65"/>
  <path class="cls-3" d="M686.89,195.94c2.42,2.62,5.94,4,9.38,5,3.86,1.13,8.14,2.42,12.19,1.56l.39-.09"/>
  <path class="cls-5" d="M687.05,195.91a24.5,24.5,0,0,1,4.46-3.85,28.1,28.1,0,0,1,18.5-4"/>
  <path class="cls-4" d="M686.83,195.92c-1.16-.09.08-2.2.31-2.54a18,18,0,0,1,3.39-3.84,12.94,12.94,0,0,1,4.21-2.4c.54-.18,1.08-.32,1.63-.46,3.7-1,7.8-1.73,11.39,0,.76.37,1.51.76,2.24,1.17"/>
  <path class="cls-4" d="M686.49,195.64c-.2.53.21,1.07.62,1.47a16.16,16.16,0,0,0,4.48,3,35.13,35.13,0,0,0,5.06,1.83l.5.15,1.67.51c3.06.92,7.06,1.75,10.12.55a.54.54,0,0,0,0-.56"/>
  <path class="cls-3" d="M706.51,203.83a.71.71,0,0,1,.86.28,1.87,1.87,0,0,1,.24.91"/>
  <path class="cls-3" d="M708.25,203.5c.62-.16,1.1.64,1.75.64"/>
  <path class="cls-3" d="M704.66,203.84V205"/>
  <path class="cls-3" d="M706.5,204.51v-.67C706.71,204.05,706.32,204.26,706.5,204.51Z"/>
  <path class="cls-3" d="M708,203.71l.42.77"/>
  <path class="cls-3" d="M708.72,203.36a6,6,0,0,1,1.34,0,1.3,1.3,0,0,1,1,.74"/>
  <path class="cls-3" d="M703.66,203.87l-.16.44"/>
  <path class="cls-3" d="M702,203.57l-.15.45"/>
  <path class="cls-3" d="M700.63,203.28a.35.35,0,0,0-.38.37"/>
  <path class="cls-3" d="M698.48,202.76c-.13,0-.28.09-.23.21"/>
  <path class="cls-3" d="M699.46,202.86a.2.2,0,0,1-.23.22"/>
  <path class="cls-3" d="M705.39,203.9a1.27,1.27,0,0,1,.13.72"/>
  <path class="cls-3" d="M702.74,203.72a1.78,1.78,0,0,0-.13.45"/>
  <path class="cls-3" d="M701.14,203.46a.18.18,0,0,0-.08.15"/>
  <path class="cls-3" d="M706.74,187.84a1.22,1.22,0,0,0,.85.24,3,3,0,0,0,.87-.23,2.36,2.36,0,0,0,.28-.12,1.24,1.24,0,0,0,.54-.71,2.43,2.43,0,0,0,.08-.89"/>
  <path class="cls-3" d="M710.62,186.68a1.28,1.28,0,0,1-.54,1.12,1.85,1.85,0,0,1-1.28.31c.14.12.21.35.39.41a2.7,2.7,0,0,0,.9.15,1.4,1.4,0,0,0,.54,0,.52.52,0,0,0,.37-.36"/>
  <path class="cls-3" d="M706.23,187.89a10.25,10.25,0,0,0,1.28-.65c.07,0,.15-.1.16-.18"/>
  <path class="cls-3" d="M704.5,188.18a2.8,2.8,0,0,1,.84-.64l.49-.29"/>
  <path class="cls-3" d="M703.84,187.91a2.07,2.07,0,0,0,.48-.5"/>
  <path class="cls-3" d="M711,189.51a1.22,1.22,0,0,1-1-.34l-.7-.52"/>
  <path class="cls-3" d="M709,189a6.18,6.18,0,0,0-3.45-.64"/>
  <path class="cls-3" d="M701.46,188.42a1.26,1.26,0,0,0,.77-.73"/>
  <path class="cls-3" d="M703.26,188v-.45"/>
  <path class="cls-3" d="M697.15,202.16l-.46.3"/>
  <path class="cls-3" d="M709.77,188.31a1,1,0,0,0,.78-.43c.22-.32.1-.58.1-.93"/>
  <path class="cls-3" d="M709.12,187.88a2.86,2.86,0,0,0,.32-1.38"/>
  <path class="cls-3" d="M708.05,187.72a2,2,0,0,0,.4-.61"/>
  <path class="cls-3" d="M709.55,187.4a2.34,2.34,0,0,0-.11-1.23"/>
  <path class="cls-4" d="M715.79,228.25c.23-2.46,0-5.07,0-7.55"/>
  <path class="cls-1" d="M655.26,850.61c-4,2.38-6.34,7.77-6.93,13.14-1.53,14,2.45,35.53,8.41,47.49,4.84,9.71,7.93,19.38,12.34,29.18,5.26,11.66,13.46,17,14.91,31.37.58,5.77-.55,15,.88,20.22a18.36,18.36,0,0,0,.59,1.77,10,10,0,0,0,3.76,4.58,26,26,0,0,0,2.48,1.46,17.87,17.87,0,0,0,2.69,1.36,27.24,27.24,0,0,0,.83-4.17c.53-3.27,1.07-6.59,1.42-9.89.85-8,1.72-16,2.51-24,.45-4.48.66-8.36-.6-12.75-.22-.79-.45-1.57-.68-2.34-1.7-5.56-4.13-9.54-4-15.65"/>
  <path class="cls-1" d="M698,924.29l1.79,9.19c.82,4.18,2.92,7.41,3.72,11.5.93,4.76.16,10.57.08,15.45q-.12,8.18-.37,16.35-.51,16.37-1.54,32.69c-.07,1.13-5.48-1-6-1.15-4.25-1-7-4.16-6.62-9.54"/>
  <path class="cls-1" d="M649.35,858.94c0-2.76.14-5.37-.73-8-1.19-3.63-3.11-7-4.67-10.46l-8.21-18.34c-3.69-8.24-8.26-15.93-12.14-24.07q-7.53-15.74-14-31.93c-8.16-20.46-14.91-41.45-21.65-62.42-2.14-6.66-4.58-13.22-6.8-19.8-5.33-15.78-8.57-32.35-8.36-49,.23-17.9-3-34.62-4.33-52.49l-4.32-59.63c-2.27-31.18-6.41-61.65-10.1-92.66-2.23-18.72-2-38.88,7.92-54.86,5.47-8.78,15.43-17.85,25.77-20,11.93-2.49,27-2.69,38.44,2.07,10.13,4.2,18.73,14.52,23.9,23.85a123.64,123.64,0,0,1,14.76,43.74c3.78,28.93-.23,60-4.2,88.7-4,29.11-8.06,58.24-10.32,87.54-.51,6.55-.92,13.14-.18,19.66.94,8.22,4.92,14.47,7.18,22.12,2.18,7.42,3.39,16.23,4.35,23.94,4.08,32.74,3.25,65.87,8.26,98.64,2.14,13.95,4.39,27.9,7.24,41.73,1.59,7.67,2.64,15.43,4.06,23.13.95,5.1,1.77,10.22,2.69,15.35,1.23,6.86,5.52,12.93,8,19.38L696,875.74l1.53,4c3.21,8.37,7.07,16.59,8.5,25.43,1.51,9.37,2,18.85,3.53,28.22a54.17,54.17,0,0,1,.86,7.43c.07,3.12-.38,6.23-.62,9.35-.34,4.35-.88,8.84-.9,13.18q-.11,24.24,1.12,48.45a3.12,3.12,0,0,1-.23,1.7,2,2,0,0,1-1,.77c-3.42,1.62-5.89.88-9.08-.76a7.15,7.15,0,0,1-3.7-4.44"/>
  <path class="cls-1" d="M661.24,921.25c0,.27,0,.54,0,.82a81.09,81.09,0,0,0,1.13,13.41c1.11,6,4.27,12.7,6.22,18.48a3.89,3.89,0,0,0,1.07,1.92c.92.71,2.23,0,2.8-1.13a9.08,9.08,0,0,0,.64-3.85l.06-3.08"/>
  <path class="cls-3" d="M708.31,927.41a39.7,39.7,0,0,1-2.23-6,15.15,15.15,0,0,1-.8-4"/>
  <path class="cls-3" d="M695.9,988.56a3.5,3.5,0,0,0-3.1.5,5.31,5.31,0,0,0-1.16,2.66,30.39,30.39,0,0,0-1.1,7"/>
  <path class="cls-3" d="M697.61,1008.15a35.73,35.73,0,0,1-.24-10.53,5.05,5.05,0,0,1,.7-2.32c.88-1.26,2.48-1.13,3.84-1"/>
  <path class="cls-3" d="M705.9,1014.6a58.63,58.63,0,0,1-1-14.13,3.43,3.43,0,0,1,.18-1.07c.43-1,1.65-1.07,2.61-.92.25,0,.83.1,1.07.1"/>
  <path class="cls-4" d="M666.92,942.26l.09-.32a7,7,0,0,1,2.29-1.05"/>
  <path class="cls-4" d="M682,914.33a7.21,7.21,0,0,1,4.66,3,21.65,21.65,0,0,1,3.79,10.47"/>
  <path class="cls-4" d="M700.43,908.29c3.24-1.22,4.88,3.5,4.88,5.8"/>
  <path class="cls-4" d="M692.86,911.07c2.17.93,4.56,2.09,5.34,4.32a7,7,0,0,1,.31,2.19,16.73,16.73,0,0,1-.51,4.34"/>
  <path class="cls-4" d="M685.46,851a25.23,25.23,0,0,0-3.93-6.53"/>
  <path class="cls-1" d="M632.26,251a28.68,28.68,0,0,0,5.09-6.49"/>
  <path class="cls-4" d="M621.84,243.29l0-1.54,1.28-.06,0-1.76"/>
  <path class="cls-4" d="M626.13,241a1.27,1.27,0,0,0,1.31.92"/>
  <path class="cls-12" d="M702.68,190l.52.49.25.24a13,13,0,0,1,1.56,2.38,7.82,7.82,0,0,1-1.89-1.56c-.53-.49-1.06-1-1.62-1.43"/>
  <path class="cls-12" d="M703.45,189.16l.85,1.27c.19.29.38.57.55.86l.23.43.43.81"/>
  <path class="cls-12" d="M704.72,189.29c.22.53.59,1,.86,1.48a5.9,5.9,0,0,1,.58,1.7c.07-.64.31-1.6,0-2.15a3.37,3.37,0,0,0-.22-.35,2.4,2.4,0,0,1-.3-.74"/>
  <path class="cls-12" d="M707.05,191.73a2.36,2.36,0,0,0,.27-1.16,2.87,2.87,0,0,0-.58-1.61"/>
  <path class="cls-12" d="M707.61,192.07a8.65,8.65,0,0,0,.43-2.9"/>
  <path class="cls-12" d="M708.72,190.52a5.25,5.25,0,0,1-.62,1.64,1.11,1.11,0,0,0,1.15-.74"/>
  <path class="cls-12" d="M699.69,192.85l.4.16a19.63,19.63,0,0,1,2.84,1.29,2.31,2.31,0,0,0,.45.21c.35.13.43.35.78.48l-.66-.2c-.65-.2-1.3-.35-2-.51l-3.25-.77"/>
  <path class="cls-12" d="M704.91,196.63a10.57,10.57,0,0,0-3.19,1.58,3.48,3.48,0,0,1-.51.34c-.45.22-1,.23-1.35.6"/>
  <path class="cls-12" d="M704.29,195.91a16.35,16.35,0,0,1-4.69.74,8.42,8.42,0,0,1-1.8-.27s-.07,0-.07-.06.07,0,0,0"/>
  <path class="cls-12" d="M704.48,195.44a5.57,5.57,0,0,1-2.66.07c-.62-.15-1.27-.25-1.9-.38a12,12,0,0,1-1.87-.59"/>
  <path class="cls-12" d="M698.82,197.74c.79-.08,1.61-.09,2.39-.22a5.9,5.9,0,0,0,1.79-.72c.65-.34,1.31-.6,2-.91"/>
  <path class="cls-12" d="M700.59,200.33a14.36,14.36,0,0,1,1.8-1.69l.49-.34a7.17,7.17,0,0,0,1.84-1.49"/>
  <path class="cls-12" d="M704.94,195.21a3.54,3.54,0,0,1-1.71.15,7.93,7.93,0,0,1-.84-.21c-1-.29-2-.54-3-.77"/>
  <path class="cls-12" d="M701.12,191l.21.16c.56.43,1.15.82,1.69,1.26s1,.67,1.52,1a.91.91,0,0,1,.29.26,3.74,3.74,0,0,1-1.3-.46c-.35-.2-.7-.4-1-.63s-.66-.37-1-.59a8.46,8.46,0,0,0-1.24-.8"/>
  <path class="cls-12" d="M705.84,200l.78-2.81"/>
  <path class="cls-12" d="M704.5,199.11l1.62-2.48"/>
  <path class="cls-12" d="M701.76,201.06l1-1.63a4.4,4.4,0,0,1,.3-.45,3.78,3.78,0,0,1,.54-.52l1.59-1.35a4.88,4.88,0,0,0-.82.93c-.25.34-.44.74-.67,1.1s-.27.42-.39.65"/>
  <path class="cls-12" d="M704.82,200.2a7.67,7.67,0,0,1,1.24-2.86"/>
  <path class="cls-12" d="M706.81,199.52v-1.74"/>
  <path class="cls-12" d="M708.3,198l-.71-.58a3.76,3.76,0,0,1-.06,1.06"/>
  <path class="cls-12" d="M709,197.74a4.29,4.29,0,0,0-.62-.66"/>
  <path class="cls-12" d="M709.38,197.28a1.5,1.5,0,0,0-.49-1.18"/>
  <path class="cls-12" d="M710.05,196.83l-.17-.62"/>
  <path class="cls-13" d="M707.43,198.57v1.23"/>
  <path class="cls-13" d="M706.13,199.18a7.52,7.52,0,0,1-.09,2"/>
  <path class="cls-13" d="M706.74,199.13a8.66,8.66,0,0,0,.26,1.67"/>
  <path class="cls-13" d="M707.93,198.9l-.1,2"/>
  <path class="cls-13" d="M701.55,198.24c-.39.31-.93.46-1.24.83"/>
  <path class="cls-12" d="M699.48,191.91c.8.42,1.61.8,2.42,1.18l.66.31,2,.95"/>
  <path class="cls-14" d="M705.25,200.86v1.23"/>
  <path class="cls-14" d="M706.27,200.69a1.76,1.76,0,0,0,.14,1.13"/>
  <path class="cls-14" d="M708,200.63l.22.84"/>
  <path class="cls-14" d="M708.46,200.86a2.13,2.13,0,0,1-.16-1.06"/>
  <path class="cls-12" d="M708.9,192.76a2.53,2.53,0,0,1,.83-.95"/>
  <path class="cls-12" d="M709.45,193.11l.55-.26"/>
  <path class="cls-13" d="M701.26,199.15a5.66,5.66,0,0,0,.94-.58,1.85,1.85,0,0,0,.39-.35"/>
  <path class="cls-13" d="M701.88,199.71a4.42,4.42,0,0,0,1.35-1.44"/>
  <path class="cls-13" d="M700.62,198.19c.39-.48,1.17-.46,1.61-.89"/>
  <path class="cls-13" d="M699.3,197.38a3.08,3.08,0,0,0,1.67-.22"/>
  <path class="cls-13" d="M699,196.73c.69-.17,1.44.16,2.11-.09"/>
  <path class="cls-13" d="M702.83,200.18a1.58,1.58,0,0,1,.22-.29,4.75,4.75,0,0,0,.72-1.1"/>
  <path class="cls-13" d="M703.8,200a2.27,2.27,0,0,0,.66-1.28"/>
  <path class="cls-13" d="M704.7,200.41a5.65,5.65,0,0,1,.42-1.51"/>
  <path class="cls-13" d="M705.48,200.35a7.5,7.5,0,0,1,.4-1.53"/>
  <path class="cls-13" d="M699.21,198.14a3.11,3.11,0,0,1,.68-.19,2.16,2.16,0,0,0,.54-.29"/>
  <path class="cls-13" d="M702.15,200.35a3.73,3.73,0,0,1,.79-1"/>
  <path class="cls-13" d="M704.06,201c.09-.32.19-.65.29-1"/>
  <path class="cls-13" d="M708.26,198.34a.49.49,0,0,0,.1.26c.18.24.41.48.39.78"/>
  <path class="cls-13" d="M709,198.27a10.16,10.16,0,0,0,.48,1,.26.26,0,0,1,0,.19"/>
  <path class="cls-13" d="M709.6,198a1.4,1.4,0,0,1,.44.66"/>
  <path class="cls-13" d="M709.78,197.39a1.15,1.15,0,0,1,.44.62"/>
  <path class="cls-13" d="M710.11,196.91a.82.82,0,0,1,.25.43"/>
  <path class="cls-14" d="M698.34,197.11h.84"/>
  <path class="cls-14" d="M697.93,196.22h.86"/>
  <path class="cls-14" d="M698,196.85a1.32,1.32,0,0,1,.56,0"/>
  <path class="cls-14" d="M698.51,198.22l1.29-.27"/>
  <path class="cls-14" d="M698.43,197.78l.7,0"/>
  <path class="cls-14" d="M699.69,198.85a2.24,2.24,0,0,1,.51-.36.82.82,0,0,0,.38-.2"/>
  <path class="cls-14" d="M698.76,198.78a1,1,0,0,1,.29-.09l.41-.08"/>
  <path class="cls-14" d="M699.12,199.45a1.08,1.08,0,0,1,.62-.21"/>
  <path class="cls-14" d="M699.8,199.88a3.84,3.84,0,0,0,.59-.33"/>
  <path class="cls-14" d="M700.13,199.29a1.3,1.3,0,0,1,.62-.41"/>
  <path class="cls-14" d="M700.84,199.78c.18-.15.36-.29.56-.43"/>
  <path class="cls-14" d="M700.27,200.39a.38.38,0,0,0,.2-.1"/>
  <path class="cls-14" d="M708.78,199.81a.93.93,0,0,1,.19.6"/>
  <path class="cls-14" d="M709.16,199.57l.09.36"/>
  <path class="cls-14" d="M709.48,199l.08.28"/>
  <path class="cls-14" d="M707.45,200.1a1.53,1.53,0,0,0,.11.48,1.72,1.72,0,0,1,.07.21,1.59,1.59,0,0,1,0,.38,1.41,1.41,0,0,0,.2.66"/>
  <path class="cls-14" d="M706.61,200.52a11.76,11.76,0,0,1,.16,1.57"/>
  <path class="cls-14" d="M707.08,200.72v.62a.46.46,0,0,0,.09.33"/>
  <path class="cls-14" d="M705.72,200.44l0,.72"/>
  <path class="cls-14" d="M704.71,201.5a3.34,3.34,0,0,0,.23-1.12"/>
  <path class="cls-14" d="M700.76,200.65l.32-.31.51-.49"/>
  <path class="cls-14" d="M701.62,200.53a1.94,1.94,0,0,0,.81-.82"/>
  <path class="cls-14" d="M701,201.11a.49.49,0,0,1,.36-.29"/>
  <path class="cls-14" d="M702.94,199.87a2.33,2.33,0,0,0-.44.82"/>
  <path class="cls-14" d="M703.39,200.14q-.14.35-.3.69a3.89,3.89,0,0,1-.38.73"/>
  <path class="cls-14" d="M701.89,201.53a1.27,1.27,0,0,0,.32-.47"/>
  <path class="cls-14" d="M704.06,200.47a4.5,4.5,0,0,0-.22,1.31"/>
  <path class="cls-14" d="M703.41,201.14l-.13.83"/>
  <path class="cls-14" d="M703.64,200.66a1.11,1.11,0,0,1,.28-.61"/>
  <path class="cls-14" d="M704.48,200.51a4.53,4.53,0,0,0-.07,1.64"/>
  <path class="cls-14" d="M705.84,201.5a1.87,1.87,0,0,0,0,.53"/>
  <path class="cls-3" d="M708.61,188a1.66,1.66,0,0,1,.47.81c.3.86.63,1.72.92,2.61l.11.36a3.1,3.1,0,0,1,.15.52,30,30,0,0,1,.34,4,7.45,7.45,0,0,1-.83,3.74,21.46,21.46,0,0,1-1.48,2.42"/>
  <path class="cls-3" d="M708.17,202.31a1.07,1.07,0,0,1-.32.16,10.44,10.44,0,0,1-3.9-.05,15.49,15.49,0,0,1-2.26-.4,6.57,6.57,0,0,1-1.88-1.25,6.37,6.37,0,0,1-1.81-2.19,9.63,9.63,0,0,1-.68-5.07,5.26,5.26,0,0,1,.65-2.29,5.53,5.53,0,0,1,2-1.82,8.79,8.79,0,0,1,1.76-.75,9.35,9.35,0,0,1,2.19-.2c1.56-.08,3.14-.12,4.71-.12.26,0,.9,1.9,1,2.15a12.92,12.92,0,0,1,.58,2.38,16.54,16.54,0,0,1,.28,4.27,8.65,8.65,0,0,1-.91,2.88A5.76,5.76,0,0,1,708.17,202.31Z"/>
  <path class="cls-12" d="M706.85,191.74c-.15-.34,0-.75-.12-1.09a1.62,1.62,0,0,0-.1-.18c-.22-.41-.23-.93-.53-1.29"/>
  <path class="cls-13" d="M701.52,197.16a.57.57,0,0,1,.27-.16c.1,0,.21,0,.31-.06a2.27,2.27,0,0,0,.55-.25"/>
  <path class="cls-13" d="M701.7,196.42c.19-.22.61,0,.8-.25"/>
  <path class="cls-13" d="M702,198a3.88,3.88,0,0,1,.86-.38"/>
  <path class="cls-13" d="M697.89,195.28c.61-.14,1.21.32,1.84.32"/>
  <path class="cls-13" d="M700.41,195.61a6.69,6.69,0,0,1,1,0,1.87,1.87,0,0,0,.71.06"/>
  <path class="cls-12" d="M700.74,196.1a2.49,2.49,0,0,0,.61,0l.31-.07a2.7,2.7,0,0,1,.41-.06c.72-.08,1.46-.14,2.19-.17"/>
  <path class="cls-13" d="M701.48,196l-.73.12a4.39,4.39,0,0,1-1.3-.06,2.15,2.15,0,0,1-1.11-.41"/>
  <g>
    <path class="cls-15" d="M707.08,191.9a2.92,2.92,0,1,1-3.07,2.92A3,3,0,0,1,707.08,191.9Z"/>
    <path class="cls-16" d="M710.17,194.82a3.08,3.08,0,1,1-3.09-2.92A3,3,0,0,1,710.17,194.82Z"/>
  </g>
</svg>
